<svg width="1440" height="77" viewBox="0 0 1440 77" fill="none" xmlns="http://www.w3.org/2000/svg">
<mask id="path-1-inside-1_2_1200" fill="white">
<path d="M0 0H1440V77H0V0Z"/>
</mask>
<path d="M0 0H1440V77H0V0Z" fill="white"/>
<path d="M1440 77V76H0V77V78H1440V77Z" fill="#C6C6C6" mask="url(#path-1-inside-1_2_1200)"/>
<path d="M142.875 25.5042C138.743 25.5042 134.703 29.2448 134.239 34.6496V25.9498H128.305V52.182H134.312V39.4845C134.312 35.9277 136.833 30.9103 142.875 30.9103V25.5042Z" fill="black"/>
<path d="M205.878 47.9825V30.0104H209.357C213.996 30.0104 217.766 32.9091 217.766 38.8515C217.766 44.7939 213.996 47.9825 209.357 47.9825H205.878ZM199.934 52.1857H210.082C216.316 52.1857 224 48.1275 224 38.8515C224 29.7205 216.316 25.9521 210.082 25.9521H199.934V52.1857Z" fill="black"/>
<path d="M177.189 39.1413C177.189 34.3584 179.654 30.4451 183.713 30.4451C187.628 30.4451 189.802 34.3584 189.802 39.1413C189.802 43.9242 187.628 47.8375 183.713 47.8375C179.654 47.8375 177.189 43.9242 177.189 39.1413ZM171.1 39.4312C171.1 47.2578 175.16 52.7654 181.539 52.7654C186.178 52.7654 188.933 49.7217 190.382 44.7939V52.1857H196.325V25.9521H190.382V32.909C189.078 28.2711 186.323 25.5172 181.974 25.5172C175.45 25.5172 171.1 31.4597 171.1 39.4312Z" fill="black"/>
<path d="M35.7432 52.7665C28.3493 52.7665 24 46.8241 24 39.4323C24 31.7506 28.7842 25.5183 37.9178 25.5183C47.3413 25.5183 50.5308 31.8956 50.6758 35.519H43.8619C43.7169 33.4899 41.9772 30.4462 37.7728 30.4462C33.2785 30.4462 30.379 34.3595 30.379 39.1424C30.379 43.9253 33.2785 47.8386 37.7728 47.8386C41.8322 47.8386 43.5719 44.65 44.2968 41.4614H37.7728V38.8525H51.4624V52.1867H45.4566V43.7804C45.0217 46.8241 43.137 52.7665 35.7432 52.7665Z" fill="black"/>
<path d="M63.6388 52.7655C57.9846 52.7655 54.5052 48.9971 54.5052 41.4604V25.9521H60.5942V41.4604C60.5942 45.3737 62.4789 47.2579 65.6684 47.2579C71.9025 47.2579 74.2221 39.5762 74.2221 34.2135V25.9521H80.3111V52.1857H74.3671V42.4749C73.2073 47.8376 70.0178 52.7655 63.6388 52.7655Z" fill="black"/>
<path d="M116.698 25.5036C111.503 25.5036 108.226 30.5206 107.156 35.1594C106.973 28.9428 103.915 25.5036 99.0224 25.5036C94.7952 25.5036 90.8734 29.2723 89.8549 35.2344V25.9499H83.9191V52.1841H89.931V42.7792C89.931 40.4477 90.9033 30.8793 96.9552 30.8793C100.876 30.8793 101.284 34.4147 101.284 39.2473V52.1841H107.293V42.7792C107.293 40.4477 108.306 30.8793 114.358 30.8793C118.275 30.8793 118.68 34.4147 118.68 39.2473V52.1841H124.697V36.6667C124.725 29.2223 122.096 25.5036 116.698 25.5036Z" fill="black"/>
<path d="M155.772 25.5036C147.989 25.5036 142.716 31.6044 142.716 39.1346C142.716 47.4316 147.731 52.7653 155.772 52.7653C163.555 52.7653 168.923 46.6647 168.923 39.1346C168.923 30.8375 163.809 25.5036 155.772 25.5036ZM155.772 48.1218C151.241 48.1218 148.306 44.2871 148.306 39.1346C148.306 33.982 151.252 30.1471 155.772 30.1471C160.293 30.1471 163.119 33.982 163.119 39.1346C163.119 44.2871 160.289 48.1218 155.772 48.1218Z" fill="black"/>
<rect x="236" y="22.5" width="95" height="32" rx="16" fill="white"/>
<rect x="236" y="22.5" width="95" height="32" rx="16" stroke="#C6C6C6"/>
<g clip-path="url(#clip0_2_1200)">
<path fill-rule="evenodd" clip-rule="evenodd" d="M251.97 28.5C246.457 28.5 242 33.0833 242 38.7535C242 43.286 244.856 47.1227 248.817 48.4806C249.313 48.5827 249.494 48.26 249.494 47.9885C249.494 47.7508 249.478 46.936 249.478 46.0871C246.704 46.6983 246.127 44.8648 246.127 44.8648C245.681 43.6765 245.021 43.371 245.021 43.371C244.113 42.7429 245.087 42.7429 245.087 42.7429C246.094 42.8108 246.622 43.7954 246.622 43.7954C247.513 45.3571 248.949 44.9158 249.527 44.6442C249.61 43.9821 249.874 43.5237 250.154 43.2692C247.942 43.0315 245.615 42.1488 245.615 38.2102C245.615 37.0898 246.011 36.1731 246.638 35.4602C246.539 35.2056 246.193 34.1529 246.738 32.744C246.738 32.744 247.579 32.4723 249.478 33.7965C250.29 33.572 251.128 33.4578 251.97 33.4569C252.812 33.4569 253.67 33.5758 254.463 33.7965C256.361 32.4723 257.203 32.744 257.203 32.744C257.748 34.1529 257.401 35.2056 257.302 35.4602C257.946 36.1731 258.325 37.0898 258.325 38.2102C258.325 42.1488 255.998 43.0144 253.769 43.2692C254.133 43.5917 254.446 44.2027 254.446 45.1704C254.446 46.5454 254.43 47.649 254.43 47.9883C254.43 48.26 254.611 48.5827 255.107 48.4808C259.068 47.1225 261.924 43.286 261.924 38.7535C261.94 33.0833 257.467 28.5 251.97 28.5Z" fill="black"/>
</g>
<path d="M272.816 44.224C271.675 44.224 270.752 43.9627 270.048 43.44C269.344 42.9067 268.907 42.224 268.736 41.392L270.352 40.864C270.491 41.4933 270.768 41.9787 271.184 42.32C271.611 42.6613 272.133 42.832 272.752 42.832C273.221 42.832 273.627 42.7413 273.968 42.56C274.32 42.368 274.587 42.1013 274.768 41.76C274.96 41.408 275.056 41.0027 275.056 40.544C275.056 40.0853 274.96 39.6853 274.768 39.344C274.587 39.0027 274.32 38.736 273.968 38.544C273.627 38.352 273.227 38.256 272.768 38.256C272.299 38.256 271.883 38.368 271.52 38.592C271.168 38.8053 270.88 39.0987 270.656 39.472L268.96 39.2L269.92 32.8H276.384V34.272H271.104L270.752 36.608C270.731 36.7467 270.709 36.8907 270.688 37.04C270.667 37.1787 270.645 37.312 270.624 37.44C270.613 37.5573 270.597 37.6747 270.576 37.792C270.565 37.8987 270.549 38.0053 270.528 38.112C270.837 37.7387 271.205 37.4507 271.632 37.248C272.069 37.0347 272.581 36.928 273.168 36.928C273.872 36.928 274.491 37.072 275.024 37.36C275.557 37.648 275.968 38.064 276.256 38.608C276.555 39.1413 276.704 39.7707 276.704 40.496C276.704 41.232 276.544 41.8827 276.224 42.448C275.915 43.0027 275.467 43.44 274.88 43.76C274.293 44.0693 273.605 44.224 272.816 44.224ZM278.603 44V41.92H280.651V44H278.603ZM286.567 44.224C285.713 44.224 284.988 44.0853 284.391 43.808C283.804 43.52 283.361 43.136 283.063 42.656C282.764 42.1653 282.615 41.616 282.615 41.008C282.615 40.528 282.711 40.0907 282.903 39.696C283.105 39.3013 283.372 38.9813 283.703 38.736C284.033 38.48 284.401 38.304 284.807 38.208C284.241 38.016 283.783 37.696 283.431 37.248C283.089 36.7893 282.919 36.2347 282.919 35.584C282.919 34.9973 283.068 34.48 283.367 34.032C283.676 33.5733 284.108 33.216 284.663 32.96C285.217 32.704 285.852 32.576 286.567 32.576C287.281 32.576 287.916 32.704 288.471 32.96C289.025 33.216 289.452 33.5733 289.751 34.032C290.06 34.48 290.215 34.9973 290.215 35.584C290.215 36.2347 290.039 36.7893 289.687 37.248C289.345 37.696 288.892 38.016 288.327 38.208C288.967 38.3573 289.489 38.6827 289.895 39.184C290.3 39.6853 290.503 40.2933 290.503 41.008C290.503 41.616 290.353 42.1653 290.055 42.656C289.756 43.136 289.308 43.52 288.711 43.808C288.124 44.0853 287.409 44.224 286.567 44.224ZM286.567 42.832C287.036 42.832 287.441 42.752 287.783 42.592C288.124 42.432 288.385 42.2027 288.567 41.904C288.748 41.6053 288.839 41.2533 288.839 40.848C288.839 40.4533 288.743 40.1067 288.551 39.808C288.369 39.4987 288.108 39.2587 287.767 39.088C287.425 38.9173 287.025 38.832 286.567 38.832C286.108 38.832 285.703 38.9173 285.351 39.088C285.009 39.2587 284.743 39.4987 284.551 39.808C284.369 40.1067 284.279 40.4533 284.279 40.848C284.279 41.456 284.487 41.9413 284.903 42.304C285.319 42.656 285.873 42.832 286.567 42.832ZM286.567 37.584C286.951 37.584 287.297 37.5093 287.607 37.36C287.916 37.2107 288.161 36.9973 288.343 36.72C288.524 36.4427 288.615 36.1173 288.615 35.744C288.615 35.2213 288.423 34.7947 288.039 34.464C287.655 34.1227 287.164 33.952 286.567 33.952C286.172 33.952 285.82 34.0267 285.511 34.176C285.201 34.3253 284.956 34.5387 284.775 34.816C284.604 35.0827 284.519 35.392 284.519 35.744C284.519 36.3093 284.711 36.7573 285.095 37.088C285.489 37.4187 285.98 37.584 286.567 37.584ZM292.718 44V32.8H294.222V37.376C294.222 38.1333 294.222 38.7093 294.222 39.104C294.222 39.4987 294.222 39.8027 294.222 40.016L298.27 36.064H300.238L296.382 39.68L296.046 39.984L293.726 42.16L294.222 41.008V44H292.718ZM298.59 44L295.502 40.16L296.59 39.2L300.526 44H298.59Z" fill="black"/>
<path d="M316.018 31.331C315.59 31.3309 315.152 31.5973 314.893 32.1275L313.3 35.4071L309.67 35.9224C308.502 36.0848 308.124 37.2304 308.967 38.0539L311.59 40.6076L310.981 44.1919C310.781 45.3521 311.743 46.0534 312.785 45.5036C313.188 45.2906 315.258 44.2181 316.018 43.8169L319.25 45.5036C320.294 46.0534 321.259 45.3529 321.054 44.1919L320.422 40.6076L323.045 38.0539C323.893 37.2334 323.534 36.0881 322.366 35.9224L318.712 35.4071L317.142 32.1275C316.884 31.5971 316.446 31.3313 316.018 31.331Z" fill="black"/>
<path d="M762.833 44.5V31.9H768.341C769.637 31.9 770.615 32.182 771.275 32.746C771.947 33.298 772.283 34.048 772.283 34.996C772.283 35.536 772.169 36.016 771.941 36.436C771.725 36.844 771.437 37.174 771.077 37.426C770.717 37.678 770.333 37.846 769.925 37.93C770.405 38.014 770.855 38.188 771.275 38.452C771.695 38.716 772.037 39.07 772.301 39.514C772.565 39.946 772.697 40.45 772.697 41.026C772.697 41.794 772.511 42.436 772.139 42.952C771.779 43.468 771.281 43.858 770.645 44.122C770.021 44.374 769.319 44.5 768.539 44.5H762.833ZM768.287 42.844C768.803 42.844 769.247 42.76 769.619 42.592C769.991 42.424 770.279 42.19 770.483 41.89C770.687 41.578 770.789 41.212 770.789 40.792C770.789 40.156 770.567 39.664 770.123 39.316C769.679 38.956 769.067 38.776 768.287 38.776H764.633V42.844H768.287ZM768.143 37.156C768.599 37.156 768.995 37.084 769.331 36.94C769.679 36.784 769.943 36.568 770.123 36.292C770.315 36.004 770.411 35.668 770.411 35.284C770.411 34.708 770.207 34.276 769.799 33.988C769.403 33.7 768.851 33.556 768.143 33.556H764.633V37.156H768.143ZM775.148 44.5V31.9H776.84V44.5H775.148ZM783.317 44.752C782.525 44.752 781.805 44.548 781.157 44.14C780.509 43.732 779.999 43.168 779.627 42.448C779.255 41.728 779.069 40.93 779.069 40.054C779.069 39.154 779.249 38.344 779.609 37.624C779.981 36.904 780.491 36.34 781.139 35.932C781.787 35.524 782.513 35.32 783.317 35.32C784.121 35.32 784.847 35.524 785.495 35.932C786.143 36.34 786.647 36.904 787.007 37.624C787.367 38.344 787.547 39.154 787.547 40.054C787.547 40.942 787.361 41.746 786.989 42.466C786.617 43.174 786.107 43.732 785.459 44.14C784.823 44.548 784.109 44.752 783.317 44.752ZM783.317 43.294C783.809 43.294 784.241 43.174 784.613 42.934C784.985 42.694 785.273 42.334 785.477 41.854C785.681 41.374 785.783 40.78 785.783 40.072C785.783 39.352 785.681 38.746 785.477 38.254C785.273 37.762 784.985 37.396 784.613 37.156C784.241 36.904 783.809 36.778 783.317 36.778C782.813 36.778 782.375 36.904 782.003 37.156C781.631 37.396 781.343 37.762 781.139 38.254C780.935 38.746 780.833 39.352 780.833 40.072C780.833 40.78 780.935 41.374 781.139 41.854C781.343 42.334 781.631 42.694 782.003 42.934C782.375 43.174 782.813 43.294 783.317 43.294ZM791.302 48.01C790.474 48.01 789.868 47.848 789.484 47.524C789.112 47.212 788.926 46.774 788.926 46.21C788.926 45.802 789.04 45.436 789.268 45.112C789.496 44.788 789.766 44.53 790.078 44.338C789.814 44.182 789.616 43.99 789.484 43.762C789.352 43.522 789.286 43.228 789.286 42.88C789.286 42.484 789.412 42.136 789.664 41.836C789.916 41.524 790.234 41.242 790.618 40.99C790.33 40.738 790.09 40.408 789.898 40C789.718 39.592 789.628 39.142 789.628 38.65C789.628 38.026 789.784 37.462 790.096 36.958C790.408 36.454 790.834 36.058 791.374 35.77C791.926 35.47 792.544 35.32 793.228 35.32C793.984 35.32 794.62 35.482 795.136 35.806C795.652 36.118 796.036 36.484 796.288 36.904C796.348 36.628 796.432 36.394 796.54 36.202C796.66 35.998 796.816 35.842 797.008 35.734C797.212 35.626 797.464 35.572 797.764 35.572H798.682V36.976H797.944C797.68 36.976 797.47 37.006 797.314 37.066C797.17 37.126 797.056 37.246 796.972 37.426C796.9 37.594 796.852 37.846 796.828 38.182L796.792 38.614C796.744 39.286 796.564 39.874 796.252 40.378C795.94 40.87 795.526 41.254 795.01 41.53C794.494 41.794 793.906 41.926 793.246 41.926C792.538 41.926 791.974 41.812 791.554 41.584C791.314 41.68 791.122 41.806 790.978 41.962C790.834 42.118 790.762 42.274 790.762 42.43C790.762 42.598 790.822 42.736 790.942 42.844C791.074 42.952 791.278 43.006 791.554 43.006H795.424C796 43.006 796.504 43.114 796.936 43.33C797.368 43.534 797.704 43.828 797.944 44.212C798.184 44.584 798.304 45.016 798.304 45.508C798.304 46.312 798.034 46.93 797.494 47.362C796.954 47.794 796.276 48.01 795.46 48.01H791.302ZM795.244 46.57C795.652 46.57 795.976 46.492 796.216 46.336C796.468 46.192 796.594 45.922 796.594 45.526C796.594 45.142 796.474 44.872 796.234 44.716C795.994 44.572 795.664 44.5 795.244 44.5H791.068C790.9 44.608 790.75 44.758 790.618 44.95C790.486 45.154 790.42 45.382 790.42 45.634C790.42 45.982 790.528 46.222 790.744 46.354C790.972 46.498 791.314 46.57 791.77 46.57H795.244ZM793.246 40.594C793.834 40.594 794.302 40.42 794.65 40.072C794.998 39.712 795.172 39.232 795.172 38.632C795.172 38.248 795.094 37.906 794.938 37.606C794.782 37.306 794.554 37.072 794.254 36.904C793.966 36.736 793.63 36.652 793.246 36.652C792.862 36.652 792.52 36.736 792.22 36.904C791.932 37.072 791.71 37.306 791.554 37.606C791.398 37.906 791.32 38.248 791.32 38.632C791.32 39.232 791.494 39.712 791.842 40.072C792.19 40.42 792.658 40.594 793.246 40.594Z" fill="black"/>
<path d="M833.265 44.5V31.9H837.675C838.863 31.9 839.919 32.158 840.843 32.674C841.767 33.19 842.481 33.922 842.985 34.87C843.501 35.818 843.759 36.916 843.759 38.164C843.759 39.472 843.507 40.606 843.003 41.566C842.499 42.514 841.779 43.24 840.843 43.744C839.919 44.248 838.833 44.5 837.585 44.5H833.265ZM837.315 42.844C838.335 42.844 839.181 42.67 839.853 42.322C840.537 41.962 841.041 41.44 841.365 40.756C841.701 40.06 841.869 39.196 841.869 38.164C841.869 37.228 841.701 36.418 841.365 35.734C841.041 35.038 840.549 34.504 839.889 34.132C839.229 33.748 838.413 33.556 837.441 33.556H835.065V42.844H837.315ZM846.159 44.5V35.572H847.869V44.5H846.159ZM846.105 33.916V31.9H847.905V33.916H846.105ZM853.878 44.752C853.242 44.752 852.648 44.656 852.096 44.464C851.544 44.272 851.076 43.984 850.692 43.6C850.32 43.216 850.074 42.748 849.954 42.196L851.556 41.674C851.64 41.998 851.772 42.286 851.952 42.538C852.144 42.79 852.396 42.994 852.708 43.15C853.032 43.294 853.428 43.366 853.896 43.366C854.508 43.366 854.976 43.258 855.3 43.042C855.636 42.826 855.804 42.52 855.804 42.124C855.804 41.788 855.684 41.512 855.444 41.296C855.204 41.08 854.79 40.918 854.202 40.81L853.122 40.612C852.546 40.492 852.054 40.342 851.646 40.162C851.25 39.97 850.926 39.7 850.674 39.352C850.434 39.004 850.314 38.56 850.314 38.02C850.314 37.504 850.464 37.042 850.764 36.634C851.064 36.214 851.472 35.89 851.988 35.662C852.504 35.434 853.068 35.32 853.68 35.32C854.7 35.32 855.51 35.536 856.11 35.968C856.71 36.4 857.112 36.94 857.316 37.588L855.822 38.164C855.738 37.912 855.612 37.678 855.444 37.462C855.276 37.246 855.042 37.06 854.742 36.904C854.454 36.748 854.094 36.67 853.662 36.67C853.098 36.67 852.666 36.784 852.366 37.012C852.078 37.24 851.934 37.522 851.934 37.858C851.934 38.17 852.036 38.416 852.24 38.596C852.456 38.764 852.858 38.902 853.446 39.01L854.508 39.208C855.288 39.376 855.984 39.664 856.596 40.072C857.208 40.48 857.514 41.116 857.514 41.98C857.514 42.544 857.37 43.036 857.082 43.456C856.794 43.864 856.374 44.182 855.822 44.41C855.282 44.638 854.634 44.752 853.878 44.752ZM863.384 44.752C862.52 44.752 861.758 44.56 861.098 44.176C860.45 43.792 859.946 43.246 859.586 42.538C859.226 41.818 859.046 40.984 859.046 40.036C859.046 39.124 859.232 38.308 859.604 37.588C859.976 36.868 860.486 36.31 861.134 35.914C861.794 35.518 862.538 35.32 863.366 35.32C864.014 35.32 864.596 35.434 865.112 35.662C865.628 35.89 866.054 36.202 866.39 36.598C866.726 36.994 866.972 37.432 867.128 37.912L865.544 38.452C865.376 37.96 865.112 37.558 864.752 37.246C864.392 36.934 863.924 36.778 863.348 36.778C862.88 36.778 862.454 36.904 862.07 37.156C861.686 37.396 861.38 37.762 861.152 38.254C860.924 38.746 860.81 39.34 860.81 40.036C860.81 40.744 860.918 41.344 861.134 41.836C861.362 42.328 861.668 42.694 862.052 42.934C862.436 43.174 862.874 43.294 863.366 43.294C864.014 43.294 864.524 43.114 864.896 42.754C865.28 42.394 865.562 41.932 865.742 41.368L867.344 41.926C867.032 42.79 866.534 43.48 865.85 43.996C865.178 44.5 864.356 44.752 863.384 44.752ZM872.856 44.752C872.064 44.752 871.344 44.548 870.696 44.14C870.048 43.732 869.538 43.168 869.166 42.448C868.794 41.728 868.608 40.93 868.608 40.054C868.608 39.154 868.788 38.344 869.148 37.624C869.52 36.904 870.03 36.34 870.678 35.932C871.326 35.524 872.052 35.32 872.856 35.32C873.66 35.32 874.386 35.524 875.034 35.932C875.682 36.34 876.186 36.904 876.546 37.624C876.906 38.344 877.086 39.154 877.086 40.054C877.086 40.942 876.9 41.746 876.528 42.466C876.156 43.174 875.646 43.732 874.998 44.14C874.362 44.548 873.648 44.752 872.856 44.752ZM872.856 43.294C873.348 43.294 873.78 43.174 874.152 42.934C874.524 42.694 874.812 42.334 875.016 41.854C875.22 41.374 875.322 40.78 875.322 40.072C875.322 39.352 875.22 38.746 875.016 38.254C874.812 37.762 874.524 37.396 874.152 37.156C873.78 36.904 873.348 36.778 872.856 36.778C872.352 36.778 871.914 36.904 871.542 37.156C871.17 37.396 870.882 37.762 870.678 38.254C870.474 38.746 870.372 39.352 870.372 40.072C870.372 40.78 870.474 41.374 870.678 41.854C870.882 42.334 871.17 42.694 871.542 42.934C871.914 43.174 872.352 43.294 872.856 43.294ZM881.204 44.5L878.162 35.572H879.944L881.492 40.468C881.708 41.14 881.966 41.974 882.266 42.97C882.35 42.718 882.608 41.884 883.04 40.468L884.516 35.572H886.244L883.31 44.5H881.204ZM891.557 44.752C890.729 44.752 890.003 44.572 889.379 44.212C888.767 43.84 888.287 43.306 887.939 42.61C887.603 41.902 887.435 41.056 887.435 40.072C887.435 39.124 887.609 38.29 887.957 37.57C888.305 36.85 888.785 36.298 889.397 35.914C890.021 35.518 890.717 35.32 891.485 35.32C892.361 35.32 893.111 35.548 893.735 36.004C894.371 36.448 894.833 37.066 895.121 37.858C895.421 38.638 895.517 39.508 895.409 40.468H889.127C889.151 41.152 889.277 41.71 889.505 42.142C889.745 42.562 890.045 42.868 890.405 43.06C890.765 43.24 891.167 43.33 891.611 43.33C892.247 43.33 892.745 43.156 893.105 42.808C893.477 42.46 893.753 42.064 893.933 41.62L895.481 42.178C895.265 42.742 894.965 43.216 894.581 43.6C894.209 43.984 893.765 44.272 893.249 44.464C892.745 44.656 892.181 44.752 891.557 44.752ZM893.699 39.118C893.699 38.602 893.597 38.164 893.393 37.804C893.189 37.432 892.919 37.15 892.583 36.958C892.259 36.766 891.893 36.67 891.485 36.67C890.885 36.67 890.363 36.892 889.919 37.336C889.487 37.768 889.235 38.362 889.163 39.118H893.699ZM897.787 44.5V35.572H899.443C899.443 35.776 899.443 35.968 899.443 36.148C899.443 36.316 899.443 36.472 899.443 36.616C899.443 36.76 899.443 36.898 899.443 37.03C899.443 37.162 899.443 37.306 899.443 37.462C899.659 36.97 900.013 36.514 900.505 36.094C900.997 35.662 901.633 35.446 902.413 35.446C902.749 35.446 903.025 35.476 903.241 35.536V37.264C902.857 37.216 902.539 37.192 902.287 37.192C901.315 37.192 900.601 37.474 900.145 38.038C899.701 38.59 899.479 39.406 899.479 40.486V44.5H897.787Z" fill="black"/>
<path d="M937.874 44.5V31.9H942.986C943.862 31.9 944.612 32.062 945.236 32.386C945.872 32.698 946.352 33.148 946.676 33.736C947.012 34.312 947.18 34.978 947.18 35.734C947.18 36.502 947.012 37.174 946.676 37.75C946.34 38.326 945.854 38.776 945.218 39.1C944.594 39.424 943.844 39.586 942.968 39.586H939.674V44.5H937.874ZM942.644 38.02C943.22 38.02 943.706 37.924 944.102 37.732C944.498 37.528 944.792 37.258 944.984 36.922C945.188 36.574 945.29 36.178 945.29 35.734C945.29 35.29 945.194 34.906 945.002 34.582C944.81 34.258 944.516 34.006 944.12 33.826C943.724 33.646 943.232 33.556 942.644 33.556H939.674V38.02H942.644ZM949.222 44.5V35.572H950.878C950.878 35.776 950.878 35.968 950.878 36.148C950.878 36.316 950.878 36.472 950.878 36.616C950.878 36.76 950.878 36.898 950.878 37.03C950.878 37.162 950.878 37.306 950.878 37.462C951.094 36.97 951.448 36.514 951.94 36.094C952.432 35.662 953.068 35.446 953.848 35.446C954.184 35.446 954.46 35.476 954.676 35.536V37.264C954.292 37.216 953.974 37.192 953.722 37.192C952.75 37.192 952.036 37.474 951.58 38.038C951.136 38.59 950.914 39.406 950.914 40.486V44.5H949.222ZM956.429 44.5V35.572H958.139V44.5H956.429ZM956.375 33.916V31.9H958.175V33.916H956.375ZM964.724 44.752C963.86 44.752 963.098 44.56 962.438 44.176C961.79 43.792 961.286 43.246 960.926 42.538C960.566 41.818 960.386 40.984 960.386 40.036C960.386 39.124 960.572 38.308 960.944 37.588C961.316 36.868 961.826 36.31 962.474 35.914C963.134 35.518 963.878 35.32 964.706 35.32C965.354 35.32 965.936 35.434 966.452 35.662C966.968 35.89 967.394 36.202 967.73 36.598C968.066 36.994 968.312 37.432 968.468 37.912L966.884 38.452C966.716 37.96 966.452 37.558 966.092 37.246C965.732 36.934 965.264 36.778 964.688 36.778C964.22 36.778 963.794 36.904 963.41 37.156C963.026 37.396 962.72 37.762 962.492 38.254C962.264 38.746 962.15 39.34 962.15 40.036C962.15 40.744 962.258 41.344 962.474 41.836C962.702 42.328 963.008 42.694 963.392 42.934C963.776 43.174 964.214 43.294 964.706 43.294C965.354 43.294 965.864 43.114 966.236 42.754C966.62 42.394 966.902 41.932 967.082 41.368L968.684 41.926C968.372 42.79 967.874 43.48 967.19 43.996C966.518 44.5 965.696 44.752 964.724 44.752ZM970.632 44.5V35.572H972.342V44.5H970.632ZM970.578 33.916V31.9H972.378V33.916H970.578ZM975.273 44.5V35.572H976.911V36.382C976.911 36.49 976.911 36.604 976.911 36.724C976.911 36.832 976.911 36.946 976.911 37.066C976.995 36.862 977.151 36.628 977.379 36.364C977.619 36.088 977.943 35.848 978.351 35.644C978.771 35.428 979.263 35.32 979.827 35.32C980.535 35.32 981.117 35.458 981.573 35.734C982.041 36.01 982.383 36.394 982.599 36.886C982.815 37.378 982.923 37.966 982.923 38.65V44.5H981.231V39.046C981.231 38.278 981.063 37.714 980.727 37.354C980.403 36.982 979.941 36.796 979.341 36.796C978.633 36.796 978.099 37.012 977.739 37.444C977.391 37.864 977.175 38.344 977.091 38.884C977.007 39.412 976.965 40 976.965 40.648V44.5H975.273ZM987.261 48.01C986.433 48.01 985.827 47.848 985.443 47.524C985.071 47.212 984.885 46.774 984.885 46.21C984.885 45.802 984.999 45.436 985.227 45.112C985.455 44.788 985.725 44.53 986.037 44.338C985.773 44.182 985.575 43.99 985.443 43.762C985.311 43.522 985.245 43.228 985.245 42.88C985.245 42.484 985.371 42.136 985.623 41.836C985.875 41.524 986.193 41.242 986.577 40.99C986.289 40.738 986.049 40.408 985.857 40C985.677 39.592 985.587 39.142 985.587 38.65C985.587 38.026 985.743 37.462 986.055 36.958C986.367 36.454 986.793 36.058 987.333 35.77C987.885 35.47 988.503 35.32 989.187 35.32C989.943 35.32 990.579 35.482 991.095 35.806C991.611 36.118 991.995 36.484 992.247 36.904C992.307 36.628 992.391 36.394 992.499 36.202C992.619 35.998 992.775 35.842 992.967 35.734C993.171 35.626 993.423 35.572 993.723 35.572H994.641V36.976H993.903C993.639 36.976 993.429 37.006 993.273 37.066C993.129 37.126 993.015 37.246 992.931 37.426C992.859 37.594 992.811 37.846 992.787 38.182L992.751 38.614C992.703 39.286 992.523 39.874 992.211 40.378C991.899 40.87 991.485 41.254 990.969 41.53C990.453 41.794 989.865 41.926 989.205 41.926C988.497 41.926 987.933 41.812 987.513 41.584C987.273 41.68 987.081 41.806 986.937 41.962C986.793 42.118 986.721 42.274 986.721 42.43C986.721 42.598 986.781 42.736 986.901 42.844C987.033 42.952 987.237 43.006 987.513 43.006H991.383C991.959 43.006 992.463 43.114 992.895 43.33C993.327 43.534 993.663 43.828 993.903 44.212C994.143 44.584 994.263 45.016 994.263 45.508C994.263 46.312 993.993 46.93 993.453 47.362C992.913 47.794 992.235 48.01 991.419 48.01H987.261ZM991.203 46.57C991.611 46.57 991.935 46.492 992.175 46.336C992.427 46.192 992.553 45.922 992.553 45.526C992.553 45.142 992.433 44.872 992.193 44.716C991.953 44.572 991.623 44.5 991.203 44.5H987.027C986.859 44.608 986.709 44.758 986.577 44.95C986.445 45.154 986.379 45.382 986.379 45.634C986.379 45.982 986.487 46.222 986.703 46.354C986.931 46.498 987.273 46.57 987.729 46.57H991.203ZM989.205 40.594C989.793 40.594 990.261 40.42 990.609 40.072C990.957 39.712 991.131 39.232 991.131 38.632C991.131 38.248 991.053 37.906 990.897 37.606C990.741 37.306 990.513 37.072 990.213 36.904C989.925 36.736 989.589 36.652 989.205 36.652C988.821 36.652 988.479 36.736 988.179 36.904C987.891 37.072 987.669 37.306 987.513 37.606C987.357 37.906 987.279 38.248 987.279 38.632C987.279 39.232 987.453 39.712 987.801 40.072C988.149 40.42 988.617 40.594 989.205 40.594Z" fill="black"/>
<path d="M1029.13 44.5V31.9H1038.29V33.556H1030.93V37.552H1036.73V39.19H1030.93V44.5H1029.13ZM1042.95 44.752C1042.12 44.752 1041.4 44.572 1040.77 44.212C1040.16 43.84 1039.68 43.306 1039.33 42.61C1039 41.902 1038.83 41.056 1038.83 40.072C1038.83 39.124 1039 38.29 1039.35 37.57C1039.7 36.85 1040.18 36.298 1040.79 35.914C1041.42 35.518 1042.11 35.32 1042.88 35.32C1043.76 35.32 1044.51 35.548 1045.13 36.004C1045.77 36.448 1046.23 37.066 1046.52 37.858C1046.82 38.638 1046.91 39.508 1046.8 40.468H1040.52C1040.55 41.152 1040.67 41.71 1040.9 42.142C1041.14 42.562 1041.44 42.868 1041.8 43.06C1042.16 43.24 1042.56 43.33 1043.01 43.33C1043.64 43.33 1044.14 43.156 1044.5 42.808C1044.87 42.46 1045.15 42.064 1045.33 41.62L1046.88 42.178C1046.66 42.742 1046.36 43.216 1045.98 43.6C1045.6 43.984 1045.16 44.272 1044.64 44.464C1044.14 44.656 1043.58 44.752 1042.95 44.752ZM1045.09 39.118C1045.09 38.602 1044.99 38.164 1044.79 37.804C1044.58 37.432 1044.31 37.15 1043.98 36.958C1043.65 36.766 1043.29 36.67 1042.88 36.67C1042.28 36.67 1041.76 36.892 1041.31 37.336C1040.88 37.768 1040.63 38.362 1040.56 39.118H1045.09ZM1051.49 44.752C1050.61 44.752 1049.91 44.524 1049.38 44.068C1048.86 43.612 1048.61 42.988 1048.61 42.196C1048.61 41.416 1048.86 40.78 1049.36 40.288C1049.88 39.784 1050.55 39.412 1051.38 39.172C1052.21 38.92 1053.15 38.752 1054.22 38.668V38.398C1054.22 38.05 1054.16 37.756 1054.02 37.516C1053.89 37.264 1053.69 37.072 1053.41 36.94C1053.14 36.808 1052.78 36.742 1052.35 36.742C1051.65 36.742 1051.13 36.898 1050.78 37.21C1050.45 37.51 1050.2 37.888 1050.05 38.344L1048.43 37.822C1048.52 37.39 1048.73 36.988 1049.06 36.616C1049.39 36.232 1049.84 35.92 1050.39 35.68C1050.95 35.44 1051.61 35.32 1052.35 35.32C1053.14 35.32 1053.8 35.446 1054.33 35.698C1054.86 35.95 1055.25 36.31 1055.52 36.778C1055.78 37.246 1055.91 37.804 1055.91 38.452V42.538C1055.91 42.742 1055.95 42.88 1056.02 42.952C1056.09 43.024 1056.23 43.06 1056.44 43.06H1057.35V44.5H1056.06C1055.47 44.5 1055.06 44.386 1054.83 44.158C1054.61 43.93 1054.46 43.594 1054.4 43.15C1054.07 43.666 1053.66 44.062 1053.2 44.338C1052.73 44.614 1052.16 44.752 1051.49 44.752ZM1051.94 43.366C1052.33 43.366 1052.7 43.276 1053.05 43.096C1053.4 42.904 1053.68 42.616 1053.9 42.232C1054.11 41.848 1054.22 41.374 1054.22 40.81V39.892C1053.03 40.012 1052.09 40.24 1051.4 40.576C1050.7 40.9 1050.35 41.392 1050.35 42.052C1050.35 42.46 1050.48 42.784 1050.75 43.024C1051.02 43.252 1051.42 43.366 1051.94 43.366ZM1061.95 44.5C1061.45 44.5 1061.04 44.422 1060.7 44.266C1060.37 44.098 1060.12 43.852 1059.95 43.528C1059.78 43.204 1059.7 42.796 1059.7 42.304V36.976H1057.66V35.572H1059.7V32.782H1061.39V35.572H1063.8V36.976H1061.39V42.16C1061.39 42.46 1061.46 42.682 1061.6 42.826C1061.75 42.97 1061.97 43.042 1062.27 43.042H1064.14V44.5H1061.95ZM1068.86 44.752C1068.2 44.752 1067.65 44.614 1067.21 44.338C1066.78 44.062 1066.45 43.678 1066.24 43.186C1066.03 42.682 1065.93 42.094 1065.93 41.422V35.572H1067.62V41.026C1067.62 41.794 1067.78 42.364 1068.09 42.736C1068.41 43.096 1068.87 43.276 1069.46 43.276C1070.43 43.276 1071.06 42.904 1071.35 42.16C1071.65 41.416 1071.8 40.516 1071.8 39.46V35.572H1073.49V44.5H1071.83C1071.83 44.188 1071.83 43.918 1071.83 43.69C1071.83 43.45 1071.83 43.21 1071.83 42.97C1071.59 43.402 1071.23 43.81 1070.75 44.194C1070.29 44.566 1069.66 44.752 1068.86 44.752ZM1076.44 44.5V35.572H1078.1C1078.1 35.776 1078.1 35.968 1078.1 36.148C1078.1 36.316 1078.1 36.472 1078.1 36.616C1078.1 36.76 1078.1 36.898 1078.1 37.03C1078.1 37.162 1078.1 37.306 1078.1 37.462C1078.32 36.97 1078.67 36.514 1079.16 36.094C1079.65 35.662 1080.29 35.446 1081.07 35.446C1081.41 35.446 1081.68 35.476 1081.9 35.536V37.264C1081.51 37.216 1081.2 37.192 1080.94 37.192C1079.97 37.192 1079.26 37.474 1078.8 38.038C1078.36 38.59 1078.14 39.406 1078.14 40.486V44.5H1076.44ZM1086.98 44.752C1086.16 44.752 1085.43 44.572 1084.81 44.212C1084.19 43.84 1083.71 43.306 1083.37 42.61C1083.03 41.902 1082.86 41.056 1082.86 40.072C1082.86 39.124 1083.04 38.29 1083.38 37.57C1083.73 36.85 1084.21 36.298 1084.82 35.914C1085.45 35.518 1086.14 35.32 1086.91 35.32C1087.79 35.32 1088.54 35.548 1089.16 36.004C1089.8 36.448 1090.26 37.066 1090.55 37.858C1090.85 38.638 1090.94 39.508 1090.84 40.468H1084.55C1084.58 41.152 1084.7 41.71 1084.93 42.142C1085.17 42.562 1085.47 42.868 1085.83 43.06C1086.19 43.24 1086.59 43.33 1087.04 43.33C1087.67 43.33 1088.17 43.156 1088.53 42.808C1088.9 42.46 1089.18 42.064 1089.36 41.62L1090.91 42.178C1090.69 42.742 1090.39 43.216 1090.01 43.6C1089.64 43.984 1089.19 44.272 1088.68 44.464C1088.17 44.656 1087.61 44.752 1086.98 44.752ZM1089.13 39.118C1089.13 38.602 1089.02 38.164 1088.82 37.804C1088.62 37.432 1088.35 37.15 1088.01 36.958C1087.69 36.766 1087.32 36.67 1086.91 36.67C1086.31 36.67 1085.79 36.892 1085.35 37.336C1084.91 37.768 1084.66 38.362 1084.59 39.118H1089.13ZM1096.29 44.752C1095.66 44.752 1095.06 44.656 1094.51 44.464C1093.96 44.272 1093.49 43.984 1093.11 43.6C1092.73 43.216 1092.49 42.748 1092.37 42.196L1093.97 41.674C1094.05 41.998 1094.19 42.286 1094.37 42.538C1094.56 42.79 1094.81 42.994 1095.12 43.15C1095.45 43.294 1095.84 43.366 1096.31 43.366C1096.92 43.366 1097.39 43.258 1097.71 43.042C1098.05 42.826 1098.22 42.52 1098.22 42.124C1098.22 41.788 1098.1 41.512 1097.86 41.296C1097.62 41.08 1097.2 40.918 1096.62 40.81L1095.54 40.612C1094.96 40.492 1094.47 40.342 1094.06 40.162C1093.66 39.97 1093.34 39.7 1093.09 39.352C1092.85 39.004 1092.73 38.56 1092.73 38.02C1092.73 37.504 1092.88 37.042 1093.18 36.634C1093.48 36.214 1093.89 35.89 1094.4 35.662C1094.92 35.434 1095.48 35.32 1096.09 35.32C1097.11 35.32 1097.92 35.536 1098.52 35.968C1099.12 36.4 1099.53 36.94 1099.73 37.588L1098.24 38.164C1098.15 37.912 1098.03 37.678 1097.86 37.462C1097.69 37.246 1097.46 37.06 1097.16 36.904C1096.87 36.748 1096.51 36.67 1096.08 36.67C1095.51 36.67 1095.08 36.784 1094.78 37.012C1094.49 37.24 1094.35 37.522 1094.35 37.858C1094.35 38.17 1094.45 38.416 1094.65 38.596C1094.87 38.764 1095.27 38.902 1095.86 39.01L1096.92 39.208C1097.7 39.376 1098.4 39.664 1099.01 40.072C1099.62 40.48 1099.93 41.116 1099.93 41.98C1099.93 42.544 1099.78 43.036 1099.5 43.456C1099.21 43.864 1098.79 44.182 1098.24 44.41C1097.7 44.638 1097.05 44.752 1096.29 44.752Z" fill="black"/>
<rect x="1117.5" y="16" width="82" height="45" rx="22.5" fill="#F0F0F0"/>
<rect x="1117.5" y="16" width="82" height="45" rx="22.5" stroke="#C6C6C6"/>
<path d="M1133.27 44.5L1138 31.9H1140.49L1145.13 44.5H1143.12L1140.15 36.094C1140.01 35.734 1139.9 35.41 1139.8 35.122C1139.71 34.822 1139.62 34.552 1139.53 34.312C1139.46 34.132 1139.4 33.964 1139.34 33.808C1139.29 33.652 1139.24 33.514 1139.19 33.394L1138.81 34.438C1138.73 34.678 1138.64 34.936 1138.54 35.212C1138.45 35.488 1138.34 35.782 1138.22 36.094L1135.21 44.5H1133.27ZM1135.81 41.17L1136.38 39.514H1141.96L1142.54 41.17H1135.81ZM1151.46 44.752C1150.75 44.752 1150.16 44.596 1149.68 44.284C1149.2 43.972 1148.82 43.594 1148.56 43.15C1148.56 43.354 1148.56 43.564 1148.56 43.78C1148.56 43.984 1148.56 44.224 1148.56 44.5H1146.92V31.9H1148.61V35.212C1148.61 35.608 1148.61 35.938 1148.61 36.202C1148.61 36.466 1148.61 36.706 1148.61 36.922C1148.87 36.478 1149.23 36.1 1149.69 35.788C1150.16 35.476 1150.75 35.32 1151.46 35.32C1152.17 35.32 1152.8 35.512 1153.35 35.896C1153.9 36.268 1154.33 36.814 1154.64 37.534C1154.96 38.242 1155.11 39.076 1155.11 40.036C1155.11 40.984 1154.96 41.818 1154.64 42.538C1154.33 43.246 1153.9 43.792 1153.35 44.176C1152.8 44.56 1152.17 44.752 1151.46 44.752ZM1150.97 43.312C1151.45 43.312 1151.87 43.204 1152.21 42.988C1152.57 42.76 1152.86 42.406 1153.06 41.926C1153.26 41.434 1153.37 40.798 1153.37 40.018C1153.37 39.238 1153.26 38.608 1153.06 38.128C1152.87 37.636 1152.59 37.288 1152.23 37.084C1151.87 36.868 1151.45 36.76 1150.97 36.76C1150.49 36.76 1150.07 36.88 1149.69 37.12C1149.32 37.36 1149.03 37.726 1148.83 38.218C1148.63 38.71 1148.52 39.31 1148.52 40.018C1148.52 40.726 1148.63 41.332 1148.83 41.836C1149.05 42.328 1149.33 42.7 1149.69 42.952C1150.07 43.192 1150.49 43.312 1150.97 43.312ZM1160.96 44.752C1160.17 44.752 1159.45 44.548 1158.8 44.14C1158.15 43.732 1157.64 43.168 1157.27 42.448C1156.9 41.728 1156.71 40.93 1156.71 40.054C1156.71 39.154 1156.89 38.344 1157.25 37.624C1157.63 36.904 1158.14 36.34 1158.78 35.932C1159.43 35.524 1160.16 35.32 1160.96 35.32C1161.77 35.32 1162.49 35.524 1163.14 35.932C1163.79 36.34 1164.29 36.904 1164.65 37.624C1165.01 38.344 1165.19 39.154 1165.19 40.054C1165.19 40.942 1165.01 41.746 1164.63 42.466C1164.26 43.174 1163.75 43.732 1163.1 44.14C1162.47 44.548 1161.75 44.752 1160.96 44.752ZM1160.96 43.294C1161.45 43.294 1161.89 43.174 1162.26 42.934C1162.63 42.694 1162.92 42.334 1163.12 41.854C1163.33 41.374 1163.43 40.78 1163.43 40.072C1163.43 39.352 1163.33 38.746 1163.12 38.254C1162.92 37.762 1162.63 37.396 1162.26 37.156C1161.89 36.904 1161.45 36.778 1160.96 36.778C1160.46 36.778 1160.02 36.904 1159.65 37.156C1159.28 37.396 1158.99 37.762 1158.78 38.254C1158.58 38.746 1158.48 39.352 1158.48 40.072C1158.48 40.78 1158.58 41.374 1158.78 41.854C1158.99 42.334 1159.28 42.694 1159.65 42.934C1160.02 43.174 1160.46 43.294 1160.96 43.294ZM1170.24 44.752C1169.58 44.752 1169.03 44.614 1168.59 44.338C1168.15 44.062 1167.83 43.678 1167.61 43.186C1167.41 42.682 1167.31 42.094 1167.31 41.422V35.572H1169V41.026C1169 41.794 1169.16 42.364 1169.47 42.736C1169.79 43.096 1170.25 43.276 1170.84 43.276C1171.81 43.276 1172.44 42.904 1172.73 42.16C1173.03 41.416 1173.18 40.516 1173.18 39.46V35.572H1174.87V44.5H1173.21C1173.21 44.188 1173.21 43.918 1173.21 43.69C1173.21 43.45 1173.21 43.21 1173.21 42.97C1172.97 43.402 1172.61 43.81 1172.13 44.194C1171.66 44.566 1171.03 44.752 1170.24 44.752ZM1180.94 44.5C1180.45 44.5 1180.03 44.422 1179.7 44.266C1179.36 44.098 1179.11 43.852 1178.94 43.528C1178.77 43.204 1178.69 42.796 1178.69 42.304V36.976H1176.65V35.572H1178.69V32.782H1180.38V35.572H1182.79V36.976H1180.38V42.16C1180.38 42.46 1180.45 42.682 1180.6 42.826C1180.74 42.97 1180.96 43.042 1181.26 43.042H1183.13V44.5H1180.94Z" fill="black"/>
<path d="M1310 0H1309.5V77H1310H1310.5V0H1310ZM1224 77H1224.5V0H1224H1223.5V77H1224Z" fill="#C6C6C6"/>
<path d="M1245.6 44V32.8H1247.2V42.496H1253.23V44H1245.6ZM1257.85 44.224C1257.15 44.224 1256.51 44.0427 1255.93 43.68C1255.36 43.3173 1254.91 42.816 1254.57 42.176C1254.24 41.536 1254.08 40.8267 1254.08 40.048C1254.08 39.248 1254.24 38.528 1254.56 37.888C1254.89 37.248 1255.34 36.7467 1255.92 36.384C1256.49 36.0213 1257.14 35.84 1257.85 35.84C1258.57 35.84 1259.21 36.0213 1259.79 36.384C1260.37 36.7467 1260.81 37.248 1261.13 37.888C1261.45 38.528 1261.61 39.248 1261.61 40.048C1261.61 40.8373 1261.45 41.552 1261.12 42.192C1260.79 42.8213 1260.33 43.3173 1259.76 43.68C1259.19 44.0427 1258.56 44.224 1257.85 44.224ZM1257.85 42.928C1258.29 42.928 1258.68 42.8213 1259.01 42.608C1259.34 42.3947 1259.59 42.0747 1259.77 41.648C1259.96 41.2213 1260.05 40.6933 1260.05 40.064C1260.05 39.424 1259.96 38.8853 1259.77 38.448C1259.59 38.0107 1259.34 37.6853 1259.01 37.472C1258.68 37.248 1258.29 37.136 1257.85 37.136C1257.41 37.136 1257.02 37.248 1256.69 37.472C1256.36 37.6853 1256.1 38.0107 1255.92 38.448C1255.74 38.8853 1255.65 39.424 1255.65 40.064C1255.65 40.6933 1255.74 41.2213 1255.92 41.648C1256.1 42.0747 1256.36 42.3947 1256.69 42.608C1257.02 42.8213 1257.41 42.928 1257.85 42.928ZM1264.95 47.12C1264.22 47.12 1263.68 46.976 1263.34 46.688C1263.01 46.4107 1262.84 46.0213 1262.84 45.52C1262.84 45.1573 1262.94 44.832 1263.14 44.544C1263.35 44.256 1263.59 44.0267 1263.86 43.856C1263.63 43.7173 1263.45 43.5467 1263.34 43.344C1263.22 43.1307 1263.16 42.8693 1263.16 42.56C1263.16 42.208 1263.27 41.8987 1263.5 41.632C1263.72 41.3547 1264 41.104 1264.34 40.88C1264.09 40.656 1263.88 40.3627 1263.7 40C1263.54 39.6373 1263.46 39.2373 1263.46 38.8C1263.46 38.2453 1263.6 37.744 1263.88 37.296C1264.16 36.848 1264.54 36.496 1265.02 36.24C1265.51 35.9733 1266.06 35.84 1266.66 35.84C1267.34 35.84 1267.9 35.984 1268.36 36.272C1268.82 36.5493 1269.16 36.8747 1269.38 37.248C1269.44 37.0027 1269.51 36.7947 1269.61 36.624C1269.72 36.4427 1269.85 36.304 1270.02 36.208C1270.21 36.112 1270.43 36.064 1270.7 36.064H1271.51V37.312H1270.86C1270.62 37.312 1270.44 37.3387 1270.3 37.392C1270.17 37.4453 1270.07 37.552 1269.99 37.712C1269.93 37.8613 1269.89 38.0853 1269.86 38.384L1269.83 38.768C1269.79 39.3653 1269.63 39.888 1269.35 40.336C1269.08 40.7733 1268.71 41.1147 1268.25 41.36C1267.79 41.5947 1267.27 41.712 1266.68 41.712C1266.05 41.712 1265.55 41.6107 1265.18 41.408C1264.96 41.4933 1264.79 41.6053 1264.66 41.744C1264.54 41.8827 1264.47 42.0213 1264.47 42.16C1264.47 42.3093 1264.53 42.432 1264.63 42.528C1264.75 42.624 1264.93 42.672 1265.18 42.672H1268.62C1269.13 42.672 1269.58 42.768 1269.96 42.96C1270.34 43.1413 1270.64 43.4027 1270.86 43.744C1271.07 44.0747 1271.18 44.4587 1271.18 44.896C1271.18 45.6107 1270.94 46.16 1270.46 46.544C1269.98 46.928 1269.37 47.12 1268.65 47.12H1264.95ZM1268.46 45.84C1268.82 45.84 1269.11 45.7707 1269.32 45.632C1269.54 45.504 1269.66 45.264 1269.66 44.912C1269.66 44.5707 1269.55 44.3307 1269.34 44.192C1269.12 44.064 1268.83 44 1268.46 44H1264.74C1264.6 44.096 1264.46 44.2293 1264.34 44.4C1264.23 44.5813 1264.17 44.784 1264.17 45.008C1264.17 45.3173 1264.26 45.5307 1264.46 45.648C1264.66 45.776 1264.96 45.84 1265.37 45.84H1268.46ZM1266.68 40.528C1267.2 40.528 1267.62 40.3733 1267.93 40.064C1268.24 39.744 1268.39 39.3173 1268.39 38.784C1268.39 38.4427 1268.32 38.1387 1268.18 37.872C1268.05 37.6053 1267.84 37.3973 1267.58 37.248C1267.32 37.0987 1267.02 37.024 1266.68 37.024C1266.34 37.024 1266.04 37.0987 1265.77 37.248C1265.51 37.3973 1265.32 37.6053 1265.18 37.872C1265.04 38.1387 1264.97 38.4427 1264.97 38.784C1264.97 39.3173 1265.12 39.744 1265.43 40.064C1265.74 40.3733 1266.16 40.528 1266.68 40.528ZM1277.14 44V36.064H1278.66V44H1277.14ZM1277.09 34.592V32.8H1278.69V34.592H1277.09ZM1281.27 44V36.064H1282.72V36.784C1282.72 36.88 1282.72 36.9813 1282.72 37.088C1282.72 37.184 1282.72 37.2853 1282.72 37.392C1282.8 37.2107 1282.93 37.0027 1283.14 36.768C1283.35 36.5227 1283.64 36.3093 1284 36.128C1284.37 35.936 1284.81 35.84 1285.31 35.84C1285.94 35.84 1286.46 35.9627 1286.87 36.208C1287.28 36.4533 1287.59 36.7947 1287.78 37.232C1287.97 37.6693 1288.07 38.192 1288.07 38.8V44H1286.56V39.152C1286.56 38.4693 1286.41 37.968 1286.11 37.648C1285.83 37.3173 1285.41 37.152 1284.88 37.152C1284.25 37.152 1283.78 37.344 1283.46 37.728C1283.15 38.1013 1282.96 38.528 1282.88 39.008C1282.81 39.4773 1282.77 40 1282.77 40.576V44H1281.27Z" fill="black"/>
<rect width="130" height="77" transform="translate(1310)" fill="black"/>
<path d="M1335.1 44.224C1334.29 44.224 1333.58 44.0907 1332.96 43.824C1332.34 43.5573 1331.83 43.1947 1331.42 42.736C1331.03 42.2667 1330.74 41.728 1330.56 41.12L1332.11 40.416C1332.25 40.8747 1332.45 41.28 1332.72 41.632C1332.99 41.984 1333.32 42.2667 1333.73 42.48C1334.14 42.6827 1334.63 42.784 1335.2 42.784C1335.95 42.784 1336.53 42.624 1336.94 42.304C1337.36 41.9733 1337.57 41.536 1337.57 40.992C1337.57 40.5333 1337.4 40.16 1337.07 39.872C1336.74 39.584 1336.23 39.3653 1335.54 39.216L1334.05 38.88C1333.44 38.752 1332.92 38.5653 1332.48 38.32C1332.05 38.064 1331.72 37.728 1331.47 37.312C1331.24 36.896 1331.12 36.3787 1331.12 35.76C1331.12 35.1627 1331.28 34.624 1331.6 34.144C1331.93 33.6533 1332.39 33.2693 1332.98 32.992C1333.57 32.7147 1334.26 32.576 1335.02 32.576C1335.79 32.576 1336.46 32.7093 1337.02 32.976C1337.59 33.2427 1338.04 33.5787 1338.37 33.984C1338.71 34.3893 1338.94 34.8 1339.07 35.216L1337.57 35.904C1337.46 35.5947 1337.31 35.3013 1337.1 35.024C1336.9 34.7467 1336.61 34.512 1336.24 34.32C1335.88 34.1173 1335.42 34.016 1334.88 34.016C1334.43 34.016 1334.04 34.0907 1333.71 34.24C1333.39 34.3787 1333.15 34.576 1332.98 34.832C1332.81 35.0773 1332.72 35.36 1332.72 35.68C1332.72 36.128 1332.86 36.48 1333.14 36.736C1333.42 36.9813 1333.88 37.1733 1334.5 37.312L1336.03 37.648C1337.01 37.8613 1337.79 38.24 1338.37 38.784C1338.95 39.3173 1339.25 40.0053 1339.25 40.848C1339.25 41.5093 1339.09 42.096 1338.77 42.608C1338.45 43.1093 1337.97 43.504 1337.34 43.792C1336.73 44.08 1335.98 44.224 1335.1 44.224ZM1344.03 44C1343.6 44 1343.23 43.9307 1342.93 43.792C1342.63 43.6427 1342.41 43.424 1342.26 43.136C1342.11 42.848 1342.03 42.4853 1342.03 42.048V37.312H1340.23V36.064H1342.03V33.584H1343.54V36.064H1345.68V37.312H1343.54V41.92C1343.54 42.1867 1343.6 42.384 1343.73 42.512C1343.86 42.64 1344.05 42.704 1344.32 42.704H1345.99V44H1344.03ZM1349.74 44.224C1348.96 44.224 1348.33 44.0213 1347.86 43.616C1347.4 43.2107 1347.18 42.656 1347.18 41.952C1347.18 41.2587 1347.4 40.6933 1347.85 40.256C1348.31 39.808 1348.9 39.4773 1349.64 39.264C1350.38 39.04 1351.22 38.8907 1352.17 38.816V38.576C1352.17 38.2667 1352.11 38.0053 1351.99 37.792C1351.87 37.568 1351.69 37.3973 1351.45 37.28C1351.2 37.1627 1350.89 37.104 1350.5 37.104C1349.88 37.104 1349.42 37.2427 1349.11 37.52C1348.81 37.7867 1348.59 38.1227 1348.46 38.528L1347.02 38.064C1347.1 37.68 1347.29 37.3227 1347.58 36.992C1347.87 36.6507 1348.27 36.3733 1348.76 36.16C1349.26 35.9467 1349.84 35.84 1350.5 35.84C1351.21 35.84 1351.79 35.952 1352.26 36.176C1352.73 36.4 1353.08 36.72 1353.32 37.136C1353.55 37.552 1353.67 38.048 1353.67 38.624V42.256C1353.67 42.4373 1353.7 42.56 1353.77 42.624C1353.83 42.688 1353.95 42.72 1354.14 42.72H1354.95V44H1353.8C1353.28 44 1352.91 43.8987 1352.71 43.696C1352.51 43.4933 1352.38 43.1947 1352.33 42.8C1352.03 43.2587 1351.67 43.6107 1351.26 43.856C1350.84 44.1013 1350.33 44.224 1349.74 44.224ZM1350.14 42.992C1350.49 42.992 1350.82 42.912 1351.13 42.752C1351.44 42.5813 1351.69 42.3253 1351.88 41.984C1352.07 41.6427 1352.17 41.2213 1352.17 40.72V39.904C1351.11 40.0107 1350.27 40.2133 1349.66 40.512C1349.04 40.8 1348.73 41.2373 1348.73 41.824C1348.73 42.1867 1348.84 42.4747 1349.08 42.688C1349.32 42.8907 1349.68 42.992 1350.14 42.992ZM1356.37 44V36.064H1357.85C1357.85 36.2453 1357.85 36.416 1357.85 36.576C1357.85 36.7253 1357.85 36.864 1357.85 36.992C1357.85 37.12 1357.85 37.2427 1357.85 37.36C1357.85 37.4773 1357.85 37.6053 1357.85 37.744C1358.04 37.3067 1358.35 36.9013 1358.79 36.528C1359.23 36.144 1359.79 35.952 1360.49 35.952C1360.79 35.952 1361.03 35.9787 1361.22 36.032V37.568C1360.88 37.5253 1360.6 37.504 1360.37 37.504C1359.51 37.504 1358.88 37.7547 1358.47 38.256C1358.08 38.7467 1357.88 39.472 1357.88 40.432V44H1356.37ZM1365.56 44C1365.13 44 1364.76 43.9307 1364.46 43.792C1364.16 43.6427 1363.94 43.424 1363.79 43.136C1363.64 42.848 1363.56 42.4853 1363.56 42.048V37.312H1361.76V36.064H1363.56V33.584H1365.07V36.064H1367.21V37.312H1365.07V41.92C1365.07 42.1867 1365.13 42.384 1365.26 42.512C1365.39 42.64 1365.59 42.704 1365.85 42.704H1367.52V44H1365.56ZM1376.03 44.224C1375.47 44.224 1374.94 44.1387 1374.45 43.968C1373.96 43.7973 1373.54 43.5413 1373.2 43.2C1372.87 42.8587 1372.65 42.4427 1372.54 41.952L1373.97 41.488C1374.04 41.776 1374.16 42.032 1374.32 42.256C1374.49 42.48 1374.72 42.6613 1374.99 42.8C1375.28 42.928 1375.63 42.992 1376.05 42.992C1376.59 42.992 1377.01 42.896 1377.3 42.704C1377.6 42.512 1377.74 42.24 1377.74 41.888C1377.74 41.5893 1377.64 41.344 1377.42 41.152C1377.21 40.96 1376.84 40.816 1376.32 40.72L1375.36 40.544C1374.85 40.4373 1374.41 40.304 1374.05 40.144C1373.7 39.9733 1373.41 39.7333 1373.18 39.424C1372.97 39.1147 1372.86 38.72 1372.86 38.24C1372.86 37.7813 1373 37.3707 1373.26 37.008C1373.53 36.6347 1373.89 36.3467 1374.35 36.144C1374.81 35.9413 1375.31 35.84 1375.86 35.84C1376.76 35.84 1377.48 36.032 1378.02 36.416C1378.55 36.8 1378.91 37.28 1379.09 37.856L1377.76 38.368C1377.69 38.144 1377.57 37.936 1377.42 37.744C1377.28 37.552 1377.07 37.3867 1376.8 37.248C1376.54 37.1093 1376.22 37.04 1375.84 37.04C1375.34 37.04 1374.96 37.1413 1374.69 37.344C1374.43 37.5467 1374.3 37.7973 1374.3 38.096C1374.3 38.3733 1374.4 38.592 1374.58 38.752C1374.77 38.9013 1375.13 39.024 1375.65 39.12L1376.59 39.296C1377.29 39.4453 1377.9 39.7013 1378.45 40.064C1378.99 40.4267 1379.26 40.992 1379.26 41.76C1379.26 42.2613 1379.14 42.6987 1378.88 43.072C1378.62 43.4347 1378.25 43.7173 1377.76 43.92C1377.28 44.1227 1376.7 44.224 1376.03 44.224ZM1384.31 44.224C1383.57 44.224 1382.92 44.064 1382.37 43.744C1381.83 43.4133 1381.4 42.9387 1381.09 42.32C1380.79 41.6907 1380.64 40.9387 1380.64 40.064C1380.64 39.2213 1380.8 38.48 1381.11 37.84C1381.42 37.2 1381.84 36.7093 1382.39 36.368C1382.94 36.016 1383.56 35.84 1384.24 35.84C1385.02 35.84 1385.69 36.0427 1386.24 36.448C1386.81 36.8427 1387.22 37.392 1387.47 38.096C1387.74 38.7893 1387.83 39.5627 1387.73 40.416H1382.15C1382.17 41.024 1382.28 41.52 1382.48 41.904C1382.7 42.2773 1382.96 42.5493 1383.28 42.72C1383.6 42.88 1383.96 42.96 1384.35 42.96C1384.92 42.96 1385.36 42.8053 1385.68 42.496C1386.01 42.1867 1386.26 41.8347 1386.42 41.44L1387.79 41.936C1387.6 42.4373 1387.34 42.8587 1386.99 43.2C1386.66 43.5413 1386.27 43.7973 1385.81 43.968C1385.36 44.1387 1384.86 44.224 1384.31 44.224ZM1386.21 39.216C1386.21 38.7573 1386.12 38.368 1385.94 38.048C1385.76 37.7173 1385.52 37.4667 1385.22 37.296C1384.93 37.1253 1384.6 37.04 1384.24 37.04C1383.71 37.04 1383.24 37.2373 1382.85 37.632C1382.47 38.016 1382.24 38.544 1382.18 39.216H1386.21ZM1389.84 44V32.8H1391.35V44H1389.84ZM1393.95 44V32.8H1395.46V44H1393.95ZM1398.05 44V36.064H1399.57V44H1398.05ZM1398 34.592V32.8H1399.6V34.592H1398ZM1402.17 44V36.064H1403.63V36.784C1403.63 36.88 1403.63 36.9813 1403.63 37.088C1403.63 37.184 1403.63 37.2853 1403.63 37.392C1403.7 37.2107 1403.84 37.0027 1404.04 36.768C1404.26 36.5227 1404.54 36.3093 1404.91 36.128C1405.28 35.936 1405.72 35.84 1406.22 35.84C1406.85 35.84 1407.37 35.9627 1407.77 36.208C1408.19 36.4533 1408.49 36.7947 1408.68 37.232C1408.88 37.6693 1408.97 38.192 1408.97 38.8V44H1407.47V39.152C1407.47 38.4693 1407.32 37.968 1407.02 37.648C1406.73 37.3173 1406.32 37.152 1405.79 37.152C1405.16 37.152 1404.68 37.344 1404.36 37.728C1404.05 38.1013 1403.86 38.528 1403.79 39.008C1403.71 39.4773 1403.68 40 1403.68 40.576V44H1402.17ZM1412.83 47.12C1412.09 47.12 1411.55 46.976 1411.21 46.688C1410.88 46.4107 1410.72 46.0213 1410.72 45.52C1410.72 45.1573 1410.82 44.832 1411.02 44.544C1411.22 44.256 1411.46 44.0267 1411.74 43.856C1411.51 43.7173 1411.33 43.5467 1411.21 43.344C1411.09 43.1307 1411.04 42.8693 1411.04 42.56C1411.04 42.208 1411.15 41.8987 1411.37 41.632C1411.6 41.3547 1411.88 41.104 1412.22 40.88C1411.96 40.656 1411.75 40.3627 1411.58 40C1411.42 39.6373 1411.34 39.2373 1411.34 38.8C1411.34 38.2453 1411.48 37.744 1411.76 37.296C1412.03 36.848 1412.41 36.496 1412.89 36.24C1413.38 35.9733 1413.93 35.84 1414.54 35.84C1415.21 35.84 1415.78 35.984 1416.24 36.272C1416.69 36.5493 1417.04 36.8747 1417.26 37.248C1417.31 37.0027 1417.39 36.7947 1417.48 36.624C1417.59 36.4427 1417.73 36.304 1417.9 36.208C1418.08 36.112 1418.31 36.064 1418.57 36.064H1419.39V37.312H1418.73C1418.5 37.312 1418.31 37.3387 1418.17 37.392C1418.04 37.4453 1417.94 37.552 1417.87 37.712C1417.8 37.8613 1417.76 38.0853 1417.74 38.384L1417.71 38.768C1417.67 39.3653 1417.51 39.888 1417.23 40.336C1416.95 40.7733 1416.58 41.1147 1416.12 41.36C1415.67 41.5947 1415.14 41.712 1414.56 41.712C1413.93 41.712 1413.43 41.6107 1413.05 41.408C1412.84 41.4933 1412.67 41.6053 1412.54 41.744C1412.41 41.8827 1412.35 42.0213 1412.35 42.16C1412.35 42.3093 1412.4 42.432 1412.51 42.528C1412.63 42.624 1412.81 42.672 1413.05 42.672H1416.49C1417 42.672 1417.45 42.768 1417.84 42.96C1418.22 43.1413 1418.52 43.4027 1418.73 43.744C1418.95 44.0747 1419.05 44.4587 1419.05 44.896C1419.05 45.6107 1418.81 46.16 1418.33 46.544C1417.85 46.928 1417.25 47.12 1416.52 47.12H1412.83ZM1416.33 45.84C1416.69 45.84 1416.98 45.7707 1417.2 45.632C1417.42 45.504 1417.53 45.264 1417.53 44.912C1417.53 44.5707 1417.43 44.3307 1417.21 44.192C1417 44.064 1416.71 44 1416.33 44H1412.62C1412.47 44.096 1412.34 44.2293 1412.22 44.4C1412.1 44.5813 1412.04 44.784 1412.04 45.008C1412.04 45.3173 1412.14 45.5307 1412.33 45.648C1412.53 45.776 1412.84 45.84 1413.24 45.84H1416.33ZM1414.56 40.528C1415.08 40.528 1415.49 40.3733 1415.8 40.064C1416.11 39.744 1416.27 39.3173 1416.27 38.784C1416.27 38.4427 1416.2 38.1387 1416.06 37.872C1415.92 37.6053 1415.72 37.3973 1415.45 37.248C1415.2 37.0987 1414.9 37.024 1414.56 37.024C1414.21 37.024 1413.91 37.0987 1413.64 37.248C1413.39 37.3973 1413.19 37.6053 1413.05 37.872C1412.91 38.1387 1412.84 38.4427 1412.84 38.784C1412.84 39.3173 1413 39.744 1413.31 40.064C1413.62 40.3733 1414.03 40.528 1414.56 40.528Z" fill="white"/>
<defs>
<clipPath id="clip0_2_1200">
<rect width="20" height="20" fill="white" transform="translate(242 28.5)"/>
</clipPath>
</defs>
</svg>
