<svg width="891" height="290" viewBox="0 0 891 290" fill="none" xmlns="http://www.w3.org/2000/svg">
<path d="M46.7241 150.16C35.8041 148.84 26.7441 145.12 19.5441 139C12.4641 132.88 7.48406 125.14 4.60406 115.78L21.1641 108.22C23.2041 114.82 26.3241 120.4 30.5241 124.96C34.8441 129.52 40.2441 132.52 46.7241 133.96L46.7241 90.58L42.7641 89.68C36.1641 88.24 30.4641 86.2 25.6641 83.56C20.9841 80.8 17.3241 77.08 14.6841 72.4C12.1641 67.72 10.9041 61.96 10.9041 55.12C10.9041 49 12.3441 43.42 15.2241 38.38C18.2241 33.34 22.4241 29.2 27.8241 25.96C33.2241 22.72 39.5241 20.68 46.7241 19.84L46.7241 3.28L60.7641 3.28L60.7641 19.84C67.8441 20.68 74.0241 22.66 79.3041 25.78C84.5841 28.78 88.7841 32.38 91.9041 36.58C95.0241 40.66 97.2441 44.8 98.5641 49L82.5441 56.56C81.4641 53.68 80.0841 50.92 78.4041 48.28C76.7241 45.52 74.3841 43 71.3841 40.72C68.5041 38.44 64.9641 36.88 60.7641 36.04L60.7641 76L65.9841 77.44C76.5441 80.08 84.8841 84.34 91.0041 90.22C97.2441 95.98 100.364 103.54 100.364 112.9C100.364 123.34 96.8841 131.98 89.9241 138.82C83.0841 145.54 73.3641 149.38 60.7641 150.34L60.7641 166.72L46.7241 166.72L46.7241 150.16ZM60.7641 134.68C67.7241 133.84 73.0641 131.62 76.7841 128.02C80.6241 124.42 82.5441 119.86 82.5441 114.34C82.5441 110.74 81.7041 107.62 80.0241 104.98C78.4641 102.22 76.0641 99.94 72.8241 98.14C69.7041 96.22 65.6841 94.72 60.7641 93.64L60.7641 112C60.7641 113.92 60.7641 115.84 60.7641 117.76C60.7641 119.56 60.7641 121.42 60.7641 123.34C60.7641 125.26 60.7641 127.18 60.7641 129.1C60.7641 130.9 60.7641 132.76 60.7641 134.68ZM46.7241 58.18C46.7241 54.22 46.7241 50.38 46.7241 46.66C46.7241 42.94 46.7241 39.22 46.7241 35.5C40.8441 36.34 36.2241 38.44 32.8641 41.8C29.5041 45.16 27.8241 49.24 27.8241 54.04C27.8241 59.2 29.3241 63.22 32.3241 66.1C35.3241 68.98 40.1241 71.26 46.7241 72.94L46.7241 58.18ZM161.276 150.52C148.196 150.52 137.636 147.04 129.596 140.08C121.676 133.12 117.236 123.76 116.276 112L135.176 108.04C135.416 113.44 136.616 118.18 138.776 122.26C141.056 126.34 144.116 129.46 147.956 131.62C151.796 133.78 156.236 134.86 161.276 134.86C165.836 134.86 169.916 134.02 173.516 132.34C177.116 130.54 179.936 128.02 181.976 124.78C184.136 121.54 185.216 117.76 185.216 113.44C185.216 109 184.136 105.16 181.976 101.92C179.936 98.56 177.056 96.04 173.336 94.36C169.736 92.56 165.596 91.66 160.916 91.66L151.916 91.66L151.916 76.36L160.916 76.36C164.996 76.36 168.716 75.52 172.076 73.84C175.556 72.16 178.256 69.76 180.176 66.64C182.216 63.52 183.236 59.86 183.236 55.66C183.236 51.58 182.216 47.98 180.176 44.86C178.256 41.74 175.616 39.34 172.256 37.66C169.016 35.98 165.356 35.14 161.276 35.14C154.556 35.14 149.096 37.24 144.896 41.44C140.816 45.52 138.476 50.92 137.876 57.64L119.336 54.58C119.936 47.98 121.976 42.04 125.456 36.76C128.936 31.48 133.736 27.28 139.856 24.16C145.976 21.04 153.116 19.48 161.276 19.48C169.556 19.48 176.696 20.92 182.696 23.8C188.816 26.68 193.436 30.64 196.556 35.68C199.796 40.72 201.416 46.42 201.416 52.78C201.416 57.82 200.396 62.38 198.356 66.46C196.436 70.54 193.736 74.02 190.256 76.9C186.896 79.66 182.936 81.76 178.376 83.2C186.056 85 192.176 88.78 196.736 94.54C201.416 100.3 203.756 107.38 203.756 115.78C203.756 122.14 202.016 128.02 198.536 133.42C195.176 138.7 190.256 142.9 183.776 146.02C177.416 149.02 169.916 150.52 161.276 150.52ZM225.512 173.2L239.732 148L227.492 148L227.492 124.6L250.352 124.6L250.352 148L236.312 173.2L225.512 173.2ZM291.728 63.04C291.728 61.24 291.728 58.84 291.728 55.84C291.728 52.72 291.728 49.24 291.728 45.4C288.248 51.28 283.448 56.38 277.328 60.7C271.208 64.9 264.728 67.48 257.888 68.44L257.888 49.72C265.688 47.8 272.828 44.56 279.308 40C285.908 35.32 291.128 29.32 294.968 22L309.548 22L309.548 148L291.728 148L291.728 63.04ZM338.702 128.2C340.142 127.36 341.522 126.52 342.842 125.68C344.282 124.72 345.662 123.82 346.982 122.98C358.742 115.54 368.582 108.58 376.502 102.1C384.542 95.62 390.902 88.9 395.582 81.94C400.382 74.98 402.782 67.84 402.782 60.52C402.782 55.24 401.762 50.74 399.722 47.02C397.682 43.3 394.922 40.48 391.442 38.56C387.962 36.64 384.122 35.68 379.922 35.68C375.362 35.68 371.222 36.76 367.502 38.92C363.902 41.08 361.022 44.26 358.862 48.46C356.822 52.66 355.802 57.64 355.802 63.4L337.622 60.88C337.742 52.84 339.482 45.7 342.842 39.46C346.322 33.22 351.242 28.36 357.602 24.88C363.962 21.28 371.462 19.48 380.102 19.48C388.622 19.48 396.002 21.16 402.242 24.52C408.602 27.88 413.402 32.5 416.642 38.38C420.002 44.26 421.682 50.98 421.682 58.54C421.682 65.14 420.542 71.38 418.262 77.26C416.102 83.02 412.802 88.48 408.362 93.64C403.202 99.52 396.542 105.52 388.382 111.64C380.342 117.64 370.382 124.24 358.502 131.44L387.842 131.44L423.122 131.44L423.122 148L338.702 148L338.702 128.2ZM472.8 150.52C468.72 150.52 464.34 150.16 459.66 149.44C454.98 148.72 451.2 147.82 448.32 146.74L448.32 128.38C451.92 129.7 455.64 130.78 459.48 131.62C463.32 132.46 467.52 132.88 472.08 132.88C477.36 132.88 482.22 132.16 486.66 130.72C491.22 129.28 495.3 127.06 498.9 124.06C503.82 120.1 507.54 114.58 510.06 107.5C512.58 100.42 513.84 91.78 513.84 81.58C511.32 87.7 507 92.62 500.88 96.34C494.76 100.06 487.98 101.92 480.54 101.92C472.74 101.92 465.9 100.24 460.02 96.88C454.14 93.4 449.58 88.72 446.34 82.84C443.22 76.96 441.66 70.42 441.66 63.22C441.66 55.18 443.34 47.86 446.7 41.26C450.06 34.54 454.92 29.26 461.28 25.42C467.64 21.46 475.2 19.48 483.96 19.48C490.44 19.48 496.32 20.56 501.6 22.72C507 24.76 511.8 27.94 516 32.26C521.04 37.42 524.88 44.08 527.52 52.24C530.28 60.4 531.66 69.82 531.66 80.5C531.66 94.42 529.5 106.66 525.18 117.22C520.86 127.66 514.26 135.82 505.38 141.7C496.62 147.58 485.76 150.52 472.8 150.52ZM484.86 86.62C489.54 86.62 493.74 85.6 497.46 83.56C501.18 81.4 504.12 78.4 506.28 74.56C508.44 70.6 509.52 66.1 509.52 61.06C509.52 55.9 508.44 51.4 506.28 47.56C504.12 43.6 501.18 40.54 497.46 38.38C493.74 36.22 489.54 35.14 484.86 35.14C480.3 35.14 476.16 36.22 472.44 38.38C468.72 40.54 465.72 43.6 463.44 47.56C461.28 51.4 460.2 55.9 460.2 61.06C460.2 66.1 461.28 70.6 463.44 74.56C465.72 78.4 468.72 81.4 472.44 83.56C476.16 85.6 480.3 86.62 484.86 86.62ZM548.07 173.2L562.29 148L550.05 148L550.05 124.6L572.91 124.6L572.91 148L558.87 173.2L548.07 173.2ZM596.573 128.2C598.013 127.36 599.393 126.52 600.713 125.68C602.153 124.72 603.533 123.82 604.853 122.98C616.613 115.54 626.453 108.58 634.373 102.1C642.413 95.62 648.773 88.9 653.453 81.94C658.253 74.98 660.653 67.84 660.653 60.52C660.653 55.24 659.633 50.74 657.593 47.02C655.553 43.3 652.793 40.48 649.313 38.56C645.833 36.64 641.993 35.68 637.793 35.68C633.233 35.68 629.093 36.76 625.373 38.92C621.773 41.08 618.893 44.26 616.733 48.46C614.693 52.66 613.673 57.64 613.673 63.4L595.493 60.88C595.613 52.84 597.353 45.7 600.713 39.46C604.193 33.22 609.113 28.36 615.473 24.88C621.833 21.28 629.333 19.48 637.973 19.48C646.493 19.48 653.873 21.16 660.113 24.52C666.473 27.88 671.273 32.5 674.513 38.38C677.873 44.26 679.553 50.98 679.553 58.54C679.553 65.14 678.413 71.38 676.133 77.26C673.973 83.02 670.673 88.48 666.233 93.64C661.073 99.52 654.413 105.52 646.253 111.64C638.213 117.64 628.253 124.24 616.373 131.44L645.713 131.44L680.993 131.44L680.993 148L596.573 148L596.573 128.2ZM730.671 150.52C726.591 150.52 722.211 150.16 717.531 149.44C712.851 148.72 709.071 147.82 706.191 146.74L706.191 128.38C709.791 129.7 713.511 130.78 717.351 131.62C721.191 132.46 725.391 132.88 729.951 132.88C735.231 132.88 740.091 132.16 744.531 130.72C749.091 129.28 753.171 127.06 756.771 124.06C761.691 120.1 765.411 114.58 767.931 107.5C770.451 100.42 771.711 91.78 771.711 81.58C769.191 87.7 764.871 92.62 758.751 96.34C752.631 100.06 745.851 101.92 738.411 101.92C730.611 101.92 723.771 100.24 717.891 96.88C712.011 93.4 707.451 88.72 704.211 82.84C701.091 76.96 699.531 70.42 699.531 63.22C699.531 55.18 701.211 47.86 704.571 41.26C707.931 34.54 712.791 29.26 719.151 25.42C725.511 21.46 733.071 19.48 741.831 19.48C748.311 19.48 754.191 20.56 759.471 22.72C764.871 24.76 769.671 27.94 773.871 32.26C778.911 37.42 782.751 44.08 785.391 52.24C788.151 60.4 789.531 69.82 789.531 80.5C789.531 94.42 787.371 106.66 783.051 117.22C778.731 127.66 772.131 135.82 763.251 141.7C754.491 147.58 743.631 150.52 730.671 150.52ZM742.731 86.62C747.411 86.62 751.611 85.6 755.331 83.56C759.051 81.4 761.991 78.4 764.151 74.56C766.311 70.6 767.391 66.1 767.391 61.06C767.391 55.9 766.311 51.4 764.151 47.56C761.991 43.6 759.051 40.54 755.331 38.38C751.611 36.22 747.411 35.14 742.731 35.14C738.171 35.14 734.031 36.22 730.311 38.38C726.591 40.54 723.591 43.6 721.311 47.56C719.151 51.4 718.071 55.9 718.071 61.06C718.071 66.1 719.151 70.6 721.311 74.56C723.591 78.4 726.591 81.4 730.311 83.56C734.031 85.6 738.171 86.62 742.731 86.62ZM821.689 148C821.689 133.48 823.489 119.86 827.089 107.14C830.809 94.3 836.089 82.6 842.929 72.04C849.769 61.36 858.049 51.7 867.769 43.06C868.729 42.34 869.629 41.62 870.469 40.9C871.309 40.06 872.209 39.28 873.169 38.56L845.809 38.56L802.969 38.56L802.969 22L888.469 22L888.469 41.62C876.229 51.82 866.689 62.44 859.849 73.48C853.009 84.4 848.269 95.86 845.629 107.86C842.989 119.74 841.669 133.12 841.669 148L821.689 148Z" fill="black"/>
<path d="M154.602 242L154.602 223.76L147.162 223.76L147.162 221L165.252 221L165.252 223.76L157.602 223.76L157.602 242L154.602 242ZM168.014 242L168.014 221L170.834 221L170.834 226.52C170.834 226.88 170.834 227.22 170.834 227.54C170.834 227.84 170.834 228.12 170.834 228.38C170.834 228.6 170.834 228.81 170.834 229.01C170.834 229.21 170.834 229.41 170.834 229.61C170.974 229.25 171.224 228.85 171.584 228.41C171.944 227.97 172.474 227.58 173.174 227.24C173.894 226.88 174.764 226.7 175.784 226.7C176.884 226.7 177.804 226.93 178.544 227.39C179.304 227.85 179.864 228.5 180.224 229.34C180.584 230.16 180.764 231.13 180.764 232.25L180.764 242L177.944 242L177.944 232.91C177.944 231.63 177.664 230.69 177.104 230.09C176.564 229.47 175.794 229.16 174.794 229.16C173.614 229.16 172.724 229.52 172.124 230.24C171.544 230.94 171.184 231.74 171.044 232.64C170.904 233.52 170.834 234.5 170.834 235.58L170.834 242L168.014 242ZM191.235 242.42C189.855 242.42 188.645 242.12 187.605 241.52C186.585 240.9 185.785 240.01 185.205 238.85C184.645 237.67 184.365 236.26 184.365 234.62C184.365 233.04 184.655 231.65 185.235 230.45C185.815 229.25 186.615 228.33 187.635 227.69C188.675 227.03 189.835 226.7 191.115 226.7C192.575 226.7 193.825 227.08 194.865 227.84C195.925 228.58 196.695 229.61 197.175 230.93C197.675 232.23 197.835 233.68 197.655 235.28L187.185 235.28C187.225 236.42 187.435 237.35 187.815 238.07C188.215 238.77 188.715 239.28 189.315 239.6C189.915 239.9 190.585 240.05 191.325 240.05C192.385 240.05 193.215 239.76 193.815 239.18C194.435 238.6 194.895 237.94 195.195 237.2L197.775 238.13C197.415 239.07 196.915 239.86 196.275 240.5C195.655 241.14 194.915 241.62 194.055 241.94C193.215 242.26 192.275 242.42 191.235 242.42ZM194.805 233.03C194.805 232.17 194.635 231.44 194.295 230.84C193.955 230.22 193.505 229.75 192.945 229.43C192.405 229.11 191.795 228.95 191.115 228.95C190.115 228.95 189.245 229.32 188.505 230.06C187.785 230.78 187.365 231.77 187.245 233.03L194.805 233.03ZM213.104 242.42C211.644 242.42 210.474 242.04 209.594 241.28C208.734 240.52 208.304 239.48 208.304 238.16C208.304 236.86 208.724 235.8 209.564 234.98C210.424 234.14 211.544 233.52 212.924 233.12C214.304 232.7 215.884 232.42 217.664 232.28L217.664 231.83C217.664 231.25 217.554 230.76 217.334 230.36C217.114 229.94 216.774 229.62 216.314 229.4C215.854 229.18 215.264 229.07 214.544 229.07C213.384 229.07 212.514 229.33 211.934 229.85C211.374 230.35 210.964 230.98 210.704 231.74L208.004 230.87C208.164 230.15 208.514 229.48 209.054 228.86C209.614 228.22 210.354 227.7 211.274 227.3C212.214 226.9 213.304 226.7 214.544 226.7C215.864 226.7 216.964 226.91 217.844 227.33C218.724 227.75 219.384 228.35 219.824 229.13C220.264 229.91 220.484 230.84 220.484 231.92L220.484 238.73C220.484 239.07 220.544 239.3 220.664 239.42C220.784 239.54 221.014 239.6 221.354 239.6L222.884 239.6L222.884 242L220.724 242C219.744 242 219.064 241.81 218.684 241.43C218.304 241.05 218.064 240.49 217.964 239.75C217.404 240.61 216.734 241.27 215.954 241.73C215.174 242.19 214.224 242.42 213.104 242.42ZM213.854 240.11C214.514 240.11 215.134 239.96 215.714 239.66C216.294 239.34 216.764 238.86 217.124 238.22C217.484 237.58 217.664 236.79 217.664 235.85L217.664 234.32C215.684 234.52 214.114 234.9 212.954 235.46C211.794 236 211.214 236.82 211.214 237.92C211.214 238.6 211.434 239.14 211.874 239.54C212.334 239.92 212.994 240.11 213.854 240.11ZM225.553 242L225.553 227.12L228.283 227.12L228.283 228.35C228.283 228.51 228.283 228.68 228.283 228.86C228.283 229.02 228.283 229.19 228.283 229.37C228.543 228.93 228.863 228.51 229.243 228.11C229.623 227.71 230.113 227.38 230.713 227.12C231.313 226.84 232.003 226.7 232.783 226.7C233.863 226.7 234.803 226.98 235.603 227.54C236.403 228.08 237.003 228.83 237.403 229.79C237.803 228.93 238.393 228.2 239.173 227.6C239.973 227 241.043 226.7 242.383 226.7C243.483 226.7 244.413 226.91 245.173 227.33C245.953 227.73 246.543 228.34 246.943 229.16C247.343 229.96 247.543 230.95 247.543 232.13L247.543 242L244.693 242L244.693 232.91C244.693 231.61 244.423 230.67 243.883 230.09C243.343 229.49 242.573 229.19 241.573 229.19C240.473 229.19 239.653 229.51 239.113 230.15C238.593 230.77 238.263 231.48 238.123 232.28C237.983 233.08 237.913 233.98 237.913 234.98L237.913 242L235.153 242L235.153 232.91C235.153 231.61 234.873 230.67 234.313 230.09C233.773 229.49 233.003 229.19 232.003 229.19C230.943 229.19 230.143 229.51 229.603 230.15C229.063 230.77 228.723 231.49 228.583 232.31C228.443 233.11 228.373 234 228.373 234.98L228.373 242L225.553 242ZM258.123 242.42C256.803 242.42 255.603 242.08 254.523 241.4C253.443 240.72 252.593 239.78 251.973 238.58C251.353 237.38 251.043 236.05 251.043 234.59C251.043 233.09 251.343 231.74 251.943 230.54C252.563 229.34 253.413 228.4 254.493 227.72C255.573 227.04 256.783 226.7 258.123 226.7C259.463 226.7 260.673 227.04 261.753 227.72C262.833 228.4 263.673 229.34 264.273 230.54C264.873 231.74 265.173 233.09 265.173 234.59C265.173 236.07 264.863 237.41 264.243 238.61C263.623 239.79 262.773 240.72 261.693 241.4C260.633 242.08 259.443 242.42 258.123 242.42ZM258.123 239.99C258.943 239.99 259.663 239.79 260.283 239.39C260.903 238.99 261.383 238.39 261.723 237.59C262.063 236.79 262.233 235.8 262.233 234.62C262.233 233.42 262.063 232.41 261.723 231.59C261.383 230.77 260.903 230.16 260.283 229.76C259.663 229.34 258.943 229.13 258.123 229.13C257.283 229.13 256.553 229.34 255.933 229.76C255.313 230.16 254.833 230.77 254.493 231.59C254.153 232.41 253.983 233.42 253.983 234.62C253.983 235.8 254.153 236.79 254.493 237.59C254.833 238.39 255.313 238.99 255.933 239.39C256.553 239.79 257.283 239.99 258.123 239.99ZM273.592 242.42C272.492 242.42 271.572 242.19 270.832 241.73C270.112 241.27 269.572 240.63 269.212 239.81C268.872 238.97 268.702 237.99 268.702 236.87L268.702 227.12L271.522 227.12L271.522 236.21C271.522 237.49 271.782 238.44 272.302 239.06C272.842 239.66 273.602 239.96 274.582 239.96C276.202 239.96 277.252 239.34 277.732 238.1C278.232 236.86 278.482 235.36 278.482 233.6L278.482 227.12L281.302 227.12L281.302 242L278.542 242C278.542 241.48 278.542 241.03 278.542 240.65C278.542 240.25 278.542 239.85 278.542 239.45C278.142 240.17 277.542 240.85 276.742 241.49C275.962 242.11 274.912 242.42 273.592 242.42ZM286.227 242L286.227 227.12L288.957 227.12L288.957 228.47C288.957 228.65 288.957 228.84 288.957 229.04C288.957 229.22 288.957 229.41 288.957 229.61C289.097 229.27 289.357 228.88 289.737 228.44C290.137 227.98 290.677 227.58 291.357 227.24C292.057 226.88 292.877 226.7 293.817 226.7C294.997 226.7 295.967 226.93 296.727 227.39C297.507 227.85 298.077 228.49 298.437 229.31C298.797 230.13 298.977 231.11 298.977 232.25L298.977 242L296.157 242L296.157 232.91C296.157 231.63 295.877 230.69 295.317 230.09C294.777 229.47 294.007 229.16 293.007 229.16C291.827 229.16 290.937 229.52 290.337 230.24C289.757 230.94 289.397 231.74 289.257 232.64C289.117 233.52 289.047 234.5 289.047 235.58L289.047 242L286.227 242ZM308.878 242C308.058 242 307.368 241.87 306.808 241.61C306.248 241.33 305.828 240.92 305.548 240.38C305.268 239.84 305.128 239.16 305.128 238.34L305.128 229.46L301.738 229.46L301.738 227.12L305.128 227.12L305.128 222.47L307.948 222.47L307.948 227.12L311.968 227.12L311.968 229.46L307.948 229.46L307.948 238.1C307.948 238.6 308.068 238.97 308.308 239.21C308.548 239.45 308.918 239.57 309.418 239.57L312.538 239.57L312.538 242L308.878 242ZM329.285 242.42C327.965 242.42 326.765 242.08 325.685 241.4C324.605 240.72 323.755 239.78 323.135 238.58C322.515 237.38 322.205 236.05 322.205 234.59C322.205 233.09 322.505 231.74 323.105 230.54C323.725 229.34 324.575 228.4 325.655 227.72C326.735 227.04 327.945 226.7 329.285 226.7C330.625 226.7 331.835 227.04 332.915 227.72C333.995 228.4 334.835 229.34 335.435 230.54C336.035 231.74 336.335 233.09 336.335 234.59C336.335 236.07 336.025 237.41 335.405 238.61C334.785 239.79 333.935 240.72 332.855 241.4C331.795 242.08 330.605 242.42 329.285 242.42ZM329.285 239.99C330.105 239.99 330.825 239.79 331.445 239.39C332.065 238.99 332.545 238.39 332.885 237.59C333.225 236.79 333.395 235.8 333.395 234.62C333.395 233.42 333.225 232.41 332.885 231.59C332.545 230.77 332.065 230.16 331.445 229.76C330.825 229.34 330.105 229.13 329.285 229.13C328.445 229.13 327.715 229.34 327.095 229.76C326.475 230.16 325.995 230.77 325.655 231.59C325.315 232.41 325.145 233.42 325.145 234.62C325.145 235.8 325.315 236.79 325.655 237.59C325.995 238.39 326.475 238.99 327.095 239.39C327.715 239.79 328.445 239.99 329.285 239.99ZM341.278 242L341.278 229.46L338.038 229.46L338.038 227.12L341.278 227.12L341.278 224.93C341.278 224.03 341.418 223.29 341.698 222.71C341.978 222.13 342.398 221.7 342.958 221.42C343.518 221.14 344.208 221 345.028 221L348.478 221L348.478 223.43L345.568 223.43C345.048 223.43 344.668 223.55 344.428 223.79C344.208 224.01 344.098 224.38 344.098 224.9L344.098 227.12L347.938 227.12L347.938 229.46L344.098 229.46L344.098 242L341.278 242ZM357.886 242L357.886 227.12L360.736 227.12L360.736 242L357.886 242ZM357.796 224.36L357.796 221L360.796 221L360.796 224.36L357.796 224.36ZM365.621 242L365.621 227.12L368.351 227.12L368.351 228.47C368.351 228.65 368.351 228.84 368.351 229.04C368.351 229.22 368.351 229.41 368.351 229.61C368.491 229.27 368.751 228.88 369.131 228.44C369.531 227.98 370.071 227.58 370.751 227.24C371.451 226.88 372.271 226.7 373.211 226.7C374.391 226.7 375.361 226.93 376.121 227.39C376.901 227.85 377.471 228.49 377.831 229.31C378.191 230.13 378.371 231.11 378.371 232.25L378.371 242L375.551 242L375.551 232.91C375.551 231.63 375.271 230.69 374.711 230.09C374.171 229.47 373.401 229.16 372.401 229.16C371.221 229.16 370.331 229.52 369.731 230.24C369.151 230.94 368.791 231.74 368.651 232.64C368.511 233.52 368.441 234.5 368.441 235.58L368.441 242L365.621 242ZM389.172 242.42C387.732 242.42 386.462 242.1 385.362 241.46C384.282 240.82 383.442 239.91 382.842 238.73C382.242 237.53 381.942 236.14 381.942 234.56C381.942 233.04 382.252 231.68 382.872 230.48C383.492 229.28 384.342 228.35 385.422 227.69C386.522 227.03 387.762 226.7 389.142 226.7C390.222 226.7 391.192 226.89 392.052 227.27C392.912 227.65 393.622 228.17 394.182 228.83C394.742 229.49 395.152 230.22 395.412 231.02L392.772 231.92C392.492 231.1 392.052 230.43 391.452 229.91C390.852 229.39 390.072 229.13 389.112 229.13C388.332 229.13 387.622 229.34 386.982 229.76C386.342 230.16 385.832 230.77 385.452 231.59C385.072 232.41 384.882 233.4 384.882 234.56C384.882 235.74 385.062 236.74 385.422 237.56C385.802 238.38 386.312 238.99 386.952 239.39C387.592 239.79 388.322 239.99 389.142 239.99C390.222 239.99 391.072 239.69 391.692 239.09C392.332 238.49 392.802 237.72 393.102 236.78L395.772 237.71C395.252 239.15 394.422 240.3 393.282 241.16C392.162 242 390.792 242.42 389.172 242.42ZM404.959 242.42C403.639 242.42 402.439 242.08 401.359 241.4C400.279 240.72 399.429 239.78 398.809 238.58C398.189 237.38 397.879 236.05 397.879 234.59C397.879 233.09 398.179 231.74 398.779 230.54C399.399 229.34 400.249 228.4 401.329 227.72C402.409 227.04 403.619 226.7 404.959 226.7C406.299 226.7 407.509 227.04 408.589 227.72C409.669 228.4 410.509 229.34 411.109 230.54C411.709 231.74 412.009 233.09 412.009 234.59C412.009 236.07 411.699 237.41 411.079 238.61C410.459 239.79 409.609 240.72 408.529 241.4C407.469 242.08 406.279 242.42 404.959 242.42ZM404.959 239.99C405.779 239.99 406.499 239.79 407.119 239.39C407.739 238.99 408.219 238.39 408.559 237.59C408.899 236.79 409.069 235.8 409.069 234.62C409.069 233.42 408.899 232.41 408.559 231.59C408.219 230.77 407.739 230.16 407.119 229.76C406.499 229.34 405.779 229.13 404.959 229.13C404.119 229.13 403.389 229.34 402.769 229.76C402.149 230.16 401.669 230.77 401.329 231.59C400.989 232.41 400.819 233.42 400.819 234.62C400.819 235.8 400.989 236.79 401.329 237.59C401.669 238.39 402.149 238.99 402.769 239.39C403.389 239.79 404.119 239.99 404.959 239.99ZM415.748 242L415.748 227.12L418.478 227.12L418.478 228.35C418.478 228.51 418.478 228.68 418.478 228.86C418.478 229.02 418.478 229.19 418.478 229.37C418.738 228.93 419.058 228.51 419.438 228.11C419.818 227.71 420.308 227.38 420.908 227.12C421.508 226.84 422.198 226.7 422.978 226.7C424.058 226.7 424.998 226.98 425.798 227.54C426.598 228.08 427.198 228.83 427.598 229.79C427.998 228.93 428.588 228.2 429.368 227.6C430.168 227 431.238 226.7 432.578 226.7C433.678 226.7 434.608 226.91 435.368 227.33C436.148 227.73 436.738 228.34 437.138 229.16C437.538 229.96 437.738 230.95 437.738 232.13L437.738 242L434.888 242L434.888 232.91C434.888 231.61 434.618 230.67 434.078 230.09C433.538 229.49 432.768 229.19 431.768 229.19C430.668 229.19 429.848 229.51 429.308 230.15C428.788 230.77 428.458 231.48 428.318 232.28C428.178 233.08 428.108 233.98 428.108 234.98L428.108 242L425.348 242L425.348 232.91C425.348 231.61 425.068 230.67 424.508 230.09C423.968 229.49 423.198 229.19 422.198 229.19C421.138 229.19 420.338 229.51 419.798 230.15C419.258 230.77 418.918 231.49 418.778 232.31C418.638 233.11 418.568 234 418.568 234.98L418.568 242L415.748 242ZM448.168 242.42C446.788 242.42 445.578 242.12 444.538 241.52C443.518 240.9 442.718 240.01 442.138 238.85C441.578 237.67 441.298 236.26 441.298 234.62C441.298 233.04 441.588 231.65 442.168 230.45C442.748 229.25 443.548 228.33 444.568 227.69C445.608 227.03 446.768 226.7 448.048 226.7C449.508 226.7 450.758 227.08 451.798 227.84C452.858 228.58 453.628 229.61 454.108 230.93C454.608 232.23 454.768 233.68 454.588 235.28L444.118 235.28C444.158 236.42 444.368 237.35 444.748 238.07C445.148 238.77 445.648 239.28 446.248 239.6C446.848 239.9 447.518 240.05 448.258 240.05C449.318 240.05 450.148 239.76 450.748 239.18C451.368 238.6 451.828 237.94 452.128 237.2L454.708 238.13C454.348 239.07 453.848 239.86 453.208 240.5C452.588 241.14 451.848 241.62 450.988 241.94C450.148 242.26 449.208 242.42 448.168 242.42ZM451.738 233.03C451.738 232.17 451.568 231.44 451.228 230.84C450.888 230.22 450.438 229.75 449.878 229.43C449.338 229.11 448.728 228.95 448.048 228.95C447.048 228.95 446.178 229.32 445.438 230.06C444.718 230.78 444.298 231.77 444.178 233.03L451.738 233.03ZM471.957 242.42C470.577 242.42 469.367 242.12 468.327 241.52C467.307 240.9 466.507 240.01 465.927 238.85C465.367 237.67 465.087 236.26 465.087 234.62C465.087 233.04 465.377 231.65 465.957 230.45C466.537 229.25 467.337 228.33 468.357 227.69C469.397 227.03 470.557 226.7 471.837 226.7C473.297 226.7 474.547 227.08 475.587 227.84C476.647 228.58 477.417 229.61 477.897 230.93C478.397 232.23 478.557 233.68 478.377 235.28L467.907 235.28C467.947 236.42 468.157 237.35 468.537 238.07C468.937 238.77 469.437 239.28 470.037 239.6C470.637 239.9 471.307 240.05 472.047 240.05C473.107 240.05 473.937 239.76 474.537 239.18C475.157 238.6 475.617 237.94 475.917 237.2L478.497 238.13C478.137 239.07 477.637 239.86 476.997 240.5C476.377 241.14 475.637 241.62 474.777 241.94C473.937 242.26 472.997 242.42 471.957 242.42ZM475.527 233.03C475.527 232.17 475.357 231.44 475.017 230.84C474.677 230.22 474.227 229.75 473.667 229.43C473.127 229.11 472.517 228.95 471.837 228.95C470.837 228.95 469.967 229.32 469.227 230.06C468.507 230.78 468.087 231.77 467.967 233.03L475.527 233.03ZM486.18 242.42C484.72 242.42 483.55 242.04 482.67 241.28C481.81 240.52 481.38 239.48 481.38 238.16C481.38 236.86 481.8 235.8 482.64 234.98C483.5 234.14 484.62 233.52 486 233.12C487.38 232.7 488.96 232.42 490.74 232.28L490.74 231.83C490.74 231.25 490.63 230.76 490.41 230.36C490.19 229.94 489.85 229.62 489.39 229.4C488.93 229.18 488.34 229.07 487.62 229.07C486.46 229.07 485.59 229.33 485.01 229.85C484.45 230.35 484.04 230.98 483.78 231.74L481.08 230.87C481.24 230.15 481.59 229.48 482.13 228.86C482.69 228.22 483.43 227.7 484.35 227.3C485.29 226.9 486.38 226.7 487.62 226.7C488.94 226.7 490.04 226.91 490.92 227.33C491.8 227.75 492.46 228.35 492.9 229.13C493.34 229.91 493.56 230.84 493.56 231.92L493.56 238.73C493.56 239.07 493.62 239.3 493.74 239.42C493.86 239.54 494.09 239.6 494.43 239.6L495.96 239.6L495.96 242L493.8 242C492.82 242 492.14 241.81 491.76 241.43C491.38 241.05 491.14 240.49 491.04 239.75C490.48 240.61 489.81 241.27 489.03 241.73C488.25 242.19 487.3 242.42 486.18 242.42ZM486.93 240.11C487.59 240.11 488.21 239.96 488.79 239.66C489.37 239.34 489.84 238.86 490.2 238.22C490.56 237.58 490.74 236.79 490.74 235.85L490.74 234.32C488.76 234.52 487.19 234.9 486.03 235.46C484.87 236 484.29 236.82 484.29 237.92C484.29 238.6 484.51 239.14 484.95 239.54C485.41 239.92 486.07 240.11 486.93 240.11ZM498.629 242L498.629 227.12L501.389 227.12C501.389 227.46 501.389 227.78 501.389 228.08C501.389 228.36 501.389 228.62 501.389 228.86C501.389 229.1 501.389 229.33 501.389 229.55C501.389 229.77 501.389 230.01 501.389 230.27C501.749 229.45 502.339 228.69 503.159 227.99C503.979 227.27 505.039 226.91 506.339 226.91C506.899 226.91 507.359 226.96 507.719 227.06L507.719 229.94C507.079 229.86 506.549 229.82 506.129 229.82C504.509 229.82 503.319 230.29 502.559 231.23C501.819 232.15 501.449 233.51 501.449 235.31L501.449 242L498.629 242ZM510.67 242L510.67 227.12L513.4 227.12L513.4 228.47C513.4 228.65 513.4 228.84 513.4 229.04C513.4 229.22 513.4 229.41 513.4 229.61C513.54 229.27 513.8 228.88 514.18 228.44C514.58 227.98 515.12 227.58 515.8 227.24C516.5 226.88 517.32 226.7 518.26 226.7C519.44 226.7 520.41 226.93 521.17 227.39C521.95 227.85 522.52 228.49 522.88 229.31C523.24 230.13 523.42 231.11 523.42 232.25L523.42 242L520.6 242L520.6 232.91C520.6 231.63 520.32 230.69 519.76 230.09C519.22 229.47 518.45 229.16 517.45 229.16C516.27 229.16 515.38 229.52 514.78 230.24C514.2 230.94 513.84 231.74 513.7 232.64C513.56 233.52 513.49 234.5 513.49 235.58L513.49 242L510.67 242ZM533.891 242.42C532.511 242.42 531.301 242.12 530.261 241.52C529.241 240.9 528.441 240.01 527.861 238.85C527.301 237.67 527.021 236.26 527.021 234.62C527.021 233.04 527.311 231.65 527.891 230.45C528.471 229.25 529.271 228.33 530.291 227.69C531.331 227.03 532.491 226.7 533.771 226.7C535.231 226.7 536.481 227.08 537.521 227.84C538.581 228.58 539.351 229.61 539.831 230.93C540.331 232.23 540.491 233.68 540.311 235.28L529.841 235.28C529.881 236.42 530.091 237.35 530.471 238.07C530.871 238.77 531.371 239.28 531.971 239.6C532.571 239.9 533.241 240.05 533.981 240.05C535.041 240.05 535.871 239.76 536.471 239.18C537.091 238.6 537.551 237.94 537.851 237.2L540.431 238.13C540.071 239.07 539.571 239.86 538.931 240.5C538.311 241.14 537.571 241.62 536.711 241.94C535.871 242.26 534.931 242.42 533.891 242.42ZM537.461 233.03C537.461 232.17 537.291 231.44 536.951 230.84C536.611 230.22 536.161 229.75 535.601 229.43C535.061 229.11 534.451 228.95 533.771 228.95C532.771 228.95 531.901 229.32 531.161 230.06C530.441 230.78 530.021 231.77 529.901 233.03L537.461 233.03ZM549.283 242.42C548.103 242.42 547.053 242.11 546.133 241.49C545.213 240.85 544.483 239.94 543.943 238.76C543.423 237.56 543.163 236.17 543.163 234.59C543.163 232.99 543.423 231.6 543.943 230.42C544.483 229.22 545.213 228.3 546.133 227.66C547.053 227.02 548.103 226.7 549.283 226.7C550.443 226.7 551.413 226.96 552.193 227.48C552.973 228 553.583 228.64 554.023 229.4C554.023 229.04 554.023 228.64 554.023 228.2C554.023 227.74 554.023 227.18 554.023 226.52L554.023 221L556.843 221L556.843 242L554.083 242C554.083 241.56 554.083 241.17 554.083 240.83C554.083 240.47 554.083 240.11 554.083 239.75C553.643 240.49 553.023 241.12 552.223 241.64C551.443 242.16 550.463 242.42 549.283 242.42ZM550.063 240.02C550.883 240.02 551.593 239.82 552.193 239.42C552.813 239.02 553.293 238.41 553.633 237.59C553.993 236.77 554.173 235.77 554.173 234.59C554.173 233.39 553.993 232.38 553.633 231.56C553.293 230.74 552.813 230.13 552.193 229.73C551.593 229.31 550.883 229.1 550.063 229.1C549.263 229.1 548.563 229.29 547.963 229.67C547.383 230.03 546.923 230.62 546.583 231.44C546.243 232.24 546.073 233.29 546.073 234.59C546.073 235.89 546.243 236.95 546.583 237.77C546.923 238.57 547.383 239.15 547.963 239.51C548.563 239.85 549.263 240.02 550.063 240.02ZM576.97 242.42C575.79 242.42 574.8 242.16 574 241.64C573.2 241.12 572.58 240.49 572.14 239.75C572.14 240.09 572.14 240.44 572.14 240.8C572.14 241.14 572.14 241.54 572.14 242L569.41 242L569.41 221L572.23 221L572.23 226.52C572.23 227.18 572.23 227.73 572.23 228.17C572.23 228.61 572.23 229.01 572.23 229.37C572.65 228.63 573.25 228 574.03 227.48C574.81 226.96 575.79 226.7 576.97 226.7C578.15 226.7 579.2 227.02 580.12 227.66C581.04 228.28 581.76 229.19 582.28 230.39C582.8 231.57 583.06 232.96 583.06 234.56C583.06 236.14 582.8 237.53 582.28 238.73C581.76 239.91 581.04 240.82 580.12 241.46C579.2 242.1 578.15 242.42 576.97 242.42ZM576.16 240.02C576.96 240.02 577.65 239.84 578.23 239.48C578.83 239.1 579.3 238.51 579.64 237.71C579.98 236.89 580.15 235.83 580.15 234.53C580.15 233.23 579.98 232.18 579.64 231.38C579.32 230.56 578.86 229.98 578.26 229.64C577.66 229.28 576.96 229.1 576.16 229.1C575.36 229.1 574.65 229.3 574.03 229.7C573.41 230.1 572.93 230.71 572.59 231.53C572.25 232.35 572.08 233.35 572.08 234.53C572.08 235.71 572.25 236.72 572.59 237.56C572.95 238.38 573.43 239 574.03 239.42C574.65 239.82 575.36 240.02 576.16 240.02ZM585.341 247.85L585.341 245.33L588.341 245.33C588.881 245.33 589.301 245.23 589.601 245.03C589.921 244.85 590.181 244.49 590.381 243.95L591.731 240.11L591.431 242.51L584.561 227.12L587.711 227.12L590.771 234.53C591.551 236.35 592.061 237.58 592.301 238.22C592.341 238.08 592.381 237.95 592.421 237.83C592.481 237.71 592.531 237.58 592.571 237.44C592.671 237.14 592.791 236.78 592.931 236.36C593.071 235.94 593.241 235.43 593.441 234.83L595.991 227.12L598.961 227.12L593.111 244.1C592.791 245.06 592.431 245.81 592.031 246.35C591.651 246.89 591.171 247.27 590.591 247.49C590.031 247.73 589.311 247.85 588.431 247.85L585.341 247.85ZM618.283 242.42C616.283 242.42 614.533 241.98 613.033 241.1C611.533 240.2 610.373 238.93 609.553 237.29C608.753 235.65 608.353 233.72 608.353 231.5C608.353 229.4 608.823 227.52 609.763 225.86C610.703 224.2 611.973 222.91 613.573 221.99C615.193 221.05 616.963 220.58 618.883 220.58C620.583 220.58 622.073 220.88 623.353 221.48C624.653 222.06 625.713 222.82 626.533 223.76C627.353 224.7 627.953 225.74 628.333 226.88L625.273 228.11C624.913 227.15 624.453 226.32 623.893 225.62C623.333 224.9 622.633 224.35 621.793 223.97C620.953 223.57 619.963 223.37 618.823 223.37C617.563 223.37 616.373 223.68 615.253 224.3C614.153 224.92 613.263 225.85 612.583 227.09C611.903 228.31 611.563 229.77 611.563 231.47C611.563 233.17 611.863 234.64 612.463 235.88C613.063 237.12 613.903 238.07 614.983 238.73C616.063 239.37 617.303 239.69 618.703 239.69C619.983 239.69 621.103 239.44 622.063 238.94C623.023 238.42 623.763 237.76 624.283 236.96C624.823 236.14 625.123 235.29 625.183 234.41L617.923 234.41L617.923 231.65L628.273 231.65L628.273 242L625.363 242C625.363 241.58 625.363 241.21 625.363 240.89C625.363 240.57 625.363 240.28 625.363 240.02C625.363 239.7 625.363 239.41 625.363 239.15C625.363 238.89 625.363 238.62 625.363 238.34C624.843 239.4 624.013 240.35 622.873 241.19C621.753 242.01 620.223 242.42 618.283 242.42ZM637.371 242.42C636.271 242.42 635.351 242.19 634.611 241.73C633.891 241.27 633.351 240.63 632.991 239.81C632.651 238.97 632.481 237.99 632.481 236.87L632.481 227.12L635.301 227.12L635.301 236.21C635.301 237.49 635.561 238.44 636.081 239.06C636.621 239.66 637.381 239.96 638.361 239.96C639.981 239.96 641.031 239.34 641.511 238.1C642.011 236.86 642.261 235.36 642.261 233.6L642.261 227.12L645.081 227.12L645.081 242L642.321 242C642.321 241.48 642.321 241.03 642.321 240.65C642.321 240.25 642.321 239.85 642.321 239.45C641.921 240.17 641.321 240.85 640.521 241.49C639.741 242.11 638.691 242.42 637.371 242.42ZM650.006 242L650.006 227.12L652.736 227.12L652.736 228.35C652.736 228.51 652.736 228.68 652.736 228.86C652.736 229.02 652.736 229.19 652.736 229.37C652.996 228.93 653.316 228.51 653.696 228.11C654.076 227.71 654.566 227.38 655.166 227.12C655.766 226.84 656.456 226.7 657.236 226.7C658.316 226.7 659.256 226.98 660.056 227.54C660.856 228.08 661.456 228.83 661.856 229.79C662.256 228.93 662.846 228.2 663.626 227.6C664.426 227 665.496 226.7 666.836 226.7C667.936 226.7 668.866 226.91 669.626 227.33C670.406 227.73 670.996 228.34 671.396 229.16C671.796 229.96 671.996 230.95 671.996 232.13L671.996 242L669.146 242L669.146 232.91C669.146 231.61 668.876 230.67 668.336 230.09C667.796 229.49 667.026 229.19 666.026 229.19C664.926 229.19 664.106 229.51 663.566 230.15C663.046 230.77 662.716 231.48 662.576 232.28C662.436 233.08 662.366 233.98 662.366 234.98L662.366 242L659.606 242L659.606 232.91C659.606 231.61 659.326 230.67 658.766 230.09C658.226 229.49 657.456 229.19 656.456 229.19C655.396 229.19 654.596 229.51 654.056 230.15C653.516 230.77 653.176 231.49 653.036 232.31C652.896 233.11 652.826 234 652.826 234.98L652.826 242L650.006 242ZM676.666 242L676.666 227.12L679.426 227.12C679.426 227.46 679.426 227.78 679.426 228.08C679.426 228.36 679.426 228.62 679.426 228.86C679.426 229.1 679.426 229.33 679.426 229.55C679.426 229.77 679.426 230.01 679.426 230.27C679.786 229.45 680.376 228.69 681.196 227.99C682.016 227.27 683.076 226.91 684.376 226.91C684.936 226.91 685.396 226.96 685.756 227.06L685.756 229.94C685.116 229.86 684.586 229.82 684.166 229.82C682.546 229.82 681.356 230.29 680.596 231.23C679.856 232.15 679.486 233.51 679.486 235.31L679.486 242L676.666 242ZM694.383 242.42C693.063 242.42 691.863 242.08 690.783 241.4C689.703 240.72 688.853 239.78 688.233 238.58C687.613 237.38 687.303 236.05 687.303 234.59C687.303 233.09 687.603 231.74 688.203 230.54C688.823 229.34 689.673 228.4 690.753 227.72C691.833 227.04 693.043 226.7 694.383 226.7C695.723 226.7 696.933 227.04 698.013 227.72C699.093 228.4 699.933 229.34 700.533 230.54C701.133 231.74 701.433 233.09 701.433 234.59C701.433 236.07 701.123 237.41 700.503 238.61C699.883 239.79 699.033 240.72 697.953 241.4C696.893 242.08 695.703 242.42 694.383 242.42ZM694.383 239.99C695.203 239.99 695.923 239.79 696.543 239.39C697.163 238.99 697.643 238.39 697.983 237.59C698.323 236.79 698.493 235.8 698.493 234.62C698.493 233.42 698.323 232.41 697.983 231.59C697.643 230.77 697.163 230.16 696.543 229.76C695.923 229.34 695.203 229.13 694.383 229.13C693.543 229.13 692.813 229.34 692.193 229.76C691.573 230.16 691.093 230.77 690.753 231.59C690.413 232.41 690.243 233.42 690.243 234.62C690.243 235.8 690.413 236.79 690.753 237.59C691.093 238.39 691.573 238.99 692.193 239.39C692.813 239.79 693.543 239.99 694.383 239.99ZM709.012 242.42C707.552 242.42 706.382 242.04 705.502 241.28C704.642 240.52 704.212 239.48 704.212 238.16C704.212 236.86 704.632 235.8 705.472 234.98C706.332 234.14 707.452 233.52 708.832 233.12C710.212 232.7 711.792 232.42 713.572 232.28L713.572 231.83C713.572 231.25 713.462 230.76 713.242 230.36C713.022 229.94 712.682 229.62 712.222 229.4C711.762 229.18 711.172 229.07 710.452 229.07C709.292 229.07 708.422 229.33 707.842 229.85C707.282 230.35 706.872 230.98 706.612 231.74L703.912 230.87C704.072 230.15 704.422 229.48 704.962 228.86C705.522 228.22 706.262 227.7 707.182 227.3C708.122 226.9 709.212 226.7 710.452 226.7C711.772 226.7 712.872 226.91 713.752 227.33C714.632 227.75 715.292 228.35 715.732 229.13C716.172 229.91 716.392 230.84 716.392 231.92L716.392 238.73C716.392 239.07 716.452 239.3 716.572 239.42C716.692 239.54 716.922 239.6 717.262 239.6L718.792 239.6L718.792 242L716.632 242C715.652 242 714.972 241.81 714.592 241.43C714.212 241.05 713.972 240.49 713.872 239.75C713.312 240.61 712.642 241.27 711.862 241.73C711.082 242.19 710.132 242.42 709.012 242.42ZM709.762 240.11C710.422 240.11 711.042 239.96 711.622 239.66C712.202 239.34 712.672 238.86 713.032 238.22C713.392 237.58 713.572 236.79 713.572 235.85L713.572 234.32C711.592 234.52 710.022 234.9 708.862 235.46C707.702 236 707.122 236.82 707.122 237.92C707.122 238.6 707.342 239.14 707.782 239.54C708.242 239.92 708.902 240.11 709.762 240.11ZM726.471 242.42C725.291 242.42 724.241 242.11 723.321 241.49C722.401 240.85 721.671 239.94 721.131 238.76C720.611 237.56 720.351 236.17 720.351 234.59C720.351 232.99 720.611 231.6 721.131 230.42C721.671 229.22 722.401 228.3 723.321 227.66C724.241 227.02 725.291 226.7 726.471 226.7C727.631 226.7 728.601 226.96 729.381 227.48C730.161 228 730.771 228.64 731.211 229.4C731.211 229.04 731.211 228.64 731.211 228.2C731.211 227.74 731.211 227.18 731.211 226.52L731.211 221L734.031 221L734.031 242L731.271 242C731.271 241.56 731.271 241.17 731.271 240.83C731.271 240.47 731.271 240.11 731.271 239.75C730.831 240.49 730.211 241.12 729.411 241.64C728.631 242.16 727.651 242.42 726.471 242.42ZM727.251 240.02C728.071 240.02 728.781 239.82 729.381 239.42C730.001 239.02 730.481 238.41 730.821 237.59C731.181 236.77 731.361 235.77 731.361 234.59C731.361 233.39 731.181 232.38 730.821 231.56C730.481 230.74 730.001 230.13 729.381 229.73C728.781 229.31 728.071 229.1 727.251 229.1C726.451 229.1 725.751 229.29 725.151 229.67C724.571 230.03 724.111 230.62 723.771 231.44C723.431 232.24 723.261 233.29 723.261 234.59C723.261 235.89 723.431 236.95 723.771 237.77C724.111 238.57 724.571 239.15 725.151 239.51C725.751 239.85 726.451 240.02 727.251 240.02ZM233.478 281.42C232.298 281.42 231.248 281.11 230.328 280.49C229.408 279.85 228.678 278.94 228.138 277.76C227.618 276.56 227.358 275.17 227.358 273.59C227.358 271.99 227.618 270.6 228.138 269.42C228.678 268.22 229.408 267.3 230.328 266.66C231.248 266.02 232.298 265.7 233.478 265.7C234.638 265.7 235.608 265.96 236.388 266.48C237.168 267 237.778 267.64 238.218 268.4C238.218 268.04 238.218 267.64 238.218 267.2C238.218 266.74 238.218 266.18 238.218 265.52L238.218 260L241.038 260L241.038 281L238.278 281C238.278 280.56 238.278 280.17 238.278 279.83C238.278 279.47 238.278 279.11 238.278 278.75C237.838 279.49 237.218 280.12 236.418 280.64C235.638 281.16 234.658 281.42 233.478 281.42ZM234.258 279.02C235.078 279.02 235.788 278.82 236.388 278.42C237.008 278.02 237.488 277.41 237.828 276.59C238.188 275.77 238.368 274.77 238.368 273.59C238.368 272.39 238.188 271.38 237.828 270.56C237.488 269.74 237.008 269.13 236.388 268.73C235.788 268.31 235.078 268.1 234.258 268.1C233.458 268.1 232.758 268.29 232.158 268.67C231.578 269.03 231.118 269.62 230.778 270.44C230.438 271.24 230.268 272.29 230.268 273.59C230.268 274.89 230.438 275.95 230.778 276.77C231.118 277.57 231.578 278.15 232.158 278.51C232.758 278.85 233.458 279.02 234.258 279.02ZM245.928 281L245.928 266.12L248.778 266.12L248.778 281L245.928 281ZM245.838 263.36L245.838 260L248.838 260L248.838 263.36L245.838 263.36ZM256.183 286.85C254.803 286.85 253.793 286.58 253.153 286.04C252.533 285.52 252.223 284.79 252.223 283.85C252.223 283.17 252.413 282.56 252.793 282.02C253.173 281.48 253.623 281.05 254.143 280.73C253.703 280.47 253.373 280.15 253.153 279.77C252.933 279.37 252.823 278.88 252.823 278.3C252.823 277.64 253.033 277.06 253.453 276.56C253.873 276.04 254.403 275.57 255.043 275.15C254.563 274.73 254.163 274.18 253.843 273.5C253.543 272.82 253.393 272.07 253.393 271.25C253.393 270.21 253.653 269.27 254.173 268.43C254.693 267.59 255.403 266.93 256.303 266.45C257.223 265.95 258.253 265.7 259.393 265.7C260.653 265.7 261.713 265.97 262.573 266.51C263.433 267.03 264.073 267.64 264.493 268.34C264.593 267.88 264.733 267.49 264.913 267.17C265.113 266.83 265.373 266.57 265.693 266.39C266.033 266.21 266.453 266.12 266.953 266.12L268.483 266.12L268.483 268.46L267.253 268.46C266.813 268.46 266.463 268.51 266.203 268.61C265.963 268.71 265.773 268.91 265.633 269.21C265.513 269.49 265.433 269.91 265.393 270.47L265.333 271.19C265.253 272.31 264.953 273.29 264.433 274.13C263.913 274.95 263.223 275.59 262.363 276.05C261.503 276.49 260.523 276.71 259.423 276.71C258.243 276.71 257.303 276.52 256.603 276.14C256.203 276.3 255.883 276.51 255.643 276.77C255.403 277.03 255.283 277.29 255.283 277.55C255.283 277.83 255.383 278.06 255.583 278.24C255.803 278.42 256.143 278.51 256.603 278.51L263.053 278.51C264.013 278.51 264.853 278.69 265.573 279.05C266.293 279.39 266.853 279.88 267.253 280.52C267.653 281.14 267.853 281.86 267.853 282.68C267.853 284.02 267.403 285.05 266.503 285.77C265.603 286.49 264.473 286.85 263.113 286.85L256.183 286.85ZM262.753 284.45C263.433 284.45 263.973 284.32 264.373 284.06C264.793 283.82 265.003 283.37 265.003 282.71C265.003 282.07 264.803 281.62 264.403 281.36C264.003 281.12 263.453 281 262.753 281L255.793 281C255.513 281.18 255.263 281.43 255.043 281.75C254.823 282.09 254.713 282.47 254.713 282.89C254.713 283.47 254.893 283.87 255.253 284.09C255.633 284.33 256.203 284.45 256.963 284.45L262.753 284.45ZM259.423 274.49C260.403 274.49 261.183 274.2 261.763 273.62C262.343 273.02 262.633 272.22 262.633 271.22C262.633 270.58 262.503 270.01 262.243 269.51C261.983 269.01 261.603 268.62 261.103 268.34C260.623 268.06 260.063 267.92 259.423 267.92C258.783 267.92 258.213 268.06 257.713 268.34C257.233 268.62 256.863 269.01 256.603 269.51C256.343 270.01 256.213 270.58 256.213 271.22C256.213 272.22 256.503 273.02 257.083 273.62C257.663 274.2 258.443 274.49 259.423 274.49ZM271.387 281L271.387 266.12L274.237 266.12L274.237 281L271.387 281ZM271.297 263.36L271.297 260L274.297 260L274.297 263.36L271.297 263.36ZM284.312 281C283.492 281 282.802 280.87 282.242 280.61C281.682 280.33 281.262 279.92 280.982 279.38C280.702 278.84 280.562 278.16 280.562 277.34L280.562 268.46L277.172 268.46L277.172 266.12L280.562 266.12L280.562 261.47L283.382 261.47L283.382 266.12L287.402 266.12L287.402 268.46L283.382 268.46L283.382 277.1C283.382 277.6 283.502 277.97 283.742 278.21C283.982 278.45 284.352 278.57 284.852 278.57L287.972 278.57L287.972 281L284.312 281ZM295.003 281.42C293.543 281.42 292.373 281.04 291.493 280.28C290.633 279.52 290.203 278.48 290.203 277.16C290.203 275.86 290.623 274.8 291.463 273.98C292.323 273.14 293.443 272.52 294.823 272.12C296.203 271.7 297.783 271.42 299.563 271.28L299.563 270.83C299.563 270.25 299.453 269.76 299.233 269.36C299.013 268.94 298.673 268.62 298.213 268.4C297.753 268.18 297.163 268.07 296.443 268.07C295.283 268.07 294.413 268.33 293.833 268.85C293.273 269.35 292.863 269.98 292.603 270.74L289.903 269.87C290.063 269.15 290.413 268.48 290.953 267.86C291.513 267.22 292.253 266.7 293.173 266.3C294.113 265.9 295.203 265.7 296.443 265.7C297.763 265.7 298.863 265.91 299.743 266.33C300.623 266.75 301.283 267.35 301.723 268.13C302.163 268.91 302.383 269.84 302.383 270.92L302.383 277.73C302.383 278.07 302.443 278.3 302.563 278.42C302.683 278.54 302.913 278.6 303.253 278.6L304.783 278.6L304.783 281L302.623 281C301.643 281 300.963 280.81 300.583 280.43C300.203 280.05 299.963 279.49 299.863 278.75C299.303 279.61 298.633 280.27 297.853 280.73C297.073 281.19 296.123 281.42 295.003 281.42ZM295.753 279.11C296.413 279.11 297.033 278.96 297.613 278.66C298.193 278.34 298.663 277.86 299.023 277.22C299.383 276.58 299.563 275.79 299.563 274.85L299.563 273.32C297.583 273.52 296.013 273.9 294.853 274.46C293.693 275 293.113 275.82 293.113 276.92C293.113 277.6 293.333 278.14 293.773 278.54C294.233 278.92 294.893 279.11 295.753 279.11ZM307.452 281L307.452 260L310.272 260L310.272 281L307.452 281ZM328.564 281.42C327.184 281.42 325.974 281.12 324.934 280.52C323.914 279.9 323.114 279.01 322.534 277.85C321.974 276.67 321.694 275.26 321.694 273.62C321.694 272.04 321.984 270.65 322.564 269.45C323.144 268.25 323.944 267.33 324.964 266.69C326.004 266.03 327.164 265.7 328.444 265.7C329.904 265.7 331.154 266.08 332.194 266.84C333.254 267.58 334.024 268.61 334.504 269.93C335.004 271.23 335.164 272.68 334.984 274.28L324.514 274.28C324.554 275.42 324.764 276.35 325.144 277.07C325.544 277.77 326.044 278.28 326.644 278.6C327.244 278.9 327.914 279.05 328.654 279.05C329.714 279.05 330.544 278.76 331.144 278.18C331.764 277.6 332.224 276.94 332.524 276.2L335.104 277.13C334.744 278.07 334.244 278.86 333.604 279.5C332.984 280.14 332.244 280.62 331.384 280.94C330.544 281.26 329.604 281.42 328.564 281.42ZM332.134 272.03C332.134 271.17 331.964 270.44 331.624 269.84C331.284 269.22 330.834 268.75 330.274 268.43C329.734 268.11 329.124 267.95 328.444 267.95C327.444 267.95 326.574 268.32 325.834 269.06C325.114 269.78 324.694 270.77 324.574 272.03L332.134 272.03ZM338.946 281L338.946 266.12L341.676 266.12L341.676 267.47C341.676 267.65 341.676 267.84 341.676 268.04C341.676 268.22 341.676 268.41 341.676 268.61C341.816 268.27 342.076 267.88 342.456 267.44C342.856 266.98 343.396 266.58 344.076 266.24C344.776 265.88 345.596 265.7 346.536 265.7C347.716 265.7 348.686 265.93 349.446 266.39C350.226 266.85 350.796 267.49 351.156 268.31C351.516 269.13 351.696 270.11 351.696 271.25L351.696 281L348.876 281L348.876 271.91C348.876 270.63 348.596 269.69 348.036 269.09C347.496 268.47 346.726 268.16 345.726 268.16C344.546 268.16 343.656 268.52 343.056 269.24C342.476 269.94 342.116 270.74 341.976 271.64C341.836 272.52 341.766 273.5 341.766 274.58L341.766 281L338.946 281ZM361.597 281C360.777 281 360.087 280.87 359.527 280.61C358.967 280.33 358.547 279.92 358.267 279.38C357.987 278.84 357.847 278.16 357.847 277.34L357.847 268.46L354.457 268.46L354.457 266.12L357.847 266.12L357.847 261.47L360.667 261.47L360.667 266.12L364.687 266.12L364.687 268.46L360.667 268.46L360.667 277.1C360.667 277.6 360.787 277.97 361.027 278.21C361.267 278.45 361.637 278.57 362.137 278.57L365.257 278.57L365.257 281L361.597 281ZM368.448 281L368.448 266.12L371.208 266.12C371.208 266.46 371.208 266.78 371.208 267.08C371.208 267.36 371.208 267.62 371.208 267.86C371.208 268.1 371.208 268.33 371.208 268.55C371.208 268.77 371.208 269.01 371.208 269.27C371.568 268.45 372.158 267.69 372.978 266.99C373.798 266.27 374.858 265.91 376.158 265.91C376.718 265.91 377.178 265.96 377.538 266.06L377.538 268.94C376.898 268.86 376.368 268.82 375.948 268.82C374.328 268.82 373.138 269.29 372.378 270.23C371.638 271.15 371.268 272.51 371.268 274.31L371.268 281L368.448 281ZM386.015 281.42C384.635 281.42 383.425 281.12 382.385 280.52C381.365 279.9 380.565 279.01 379.985 277.85C379.425 276.67 379.145 275.26 379.145 273.62C379.145 272.04 379.435 270.65 380.015 269.45C380.595 268.25 381.395 267.33 382.415 266.69C383.455 266.03 384.615 265.7 385.895 265.7C387.355 265.7 388.605 266.08 389.645 266.84C390.705 267.58 391.475 268.61 391.955 269.93C392.455 271.23 392.615 272.68 392.435 274.28L381.965 274.28C382.005 275.42 382.215 276.35 382.595 277.07C382.995 277.77 383.495 278.28 384.095 278.6C384.695 278.9 385.365 279.05 386.105 279.05C387.165 279.05 387.995 278.76 388.595 278.18C389.215 277.6 389.675 276.94 389.975 276.2L392.555 277.13C392.195 278.07 391.695 278.86 391.055 279.5C390.435 280.14 389.695 280.62 388.835 280.94C387.995 281.26 387.055 281.42 386.015 281.42ZM389.585 272.03C389.585 271.17 389.415 270.44 389.075 269.84C388.735 269.22 388.285 268.75 387.725 268.43C387.185 268.11 386.575 267.95 385.895 267.95C384.895 267.95 384.025 268.32 383.285 269.06C382.565 269.78 382.145 270.77 382.025 272.03L389.585 272.03ZM396.397 286.85L396.397 266.12L399.127 266.12C399.127 266.56 399.127 266.96 399.127 267.32C399.127 267.66 399.127 268.01 399.127 268.37C399.567 267.63 400.187 267 400.987 266.48C401.787 265.96 402.777 265.7 403.958 265.7C405.137 265.7 406.187 266.02 407.107 266.66C408.027 267.28 408.748 268.19 409.268 269.39C409.787 270.57 410.047 271.96 410.047 273.56C410.047 275.14 409.787 276.53 409.268 277.73C408.747 278.91 408.027 279.82 407.107 280.46C406.187 281.1 405.137 281.42 403.957 281.42C402.777 281.42 401.797 281.17 401.017 280.67C400.257 280.15 399.657 279.51 399.217 278.75L399.217 281.6L399.217 286.85L396.397 286.85ZM403.147 279.02C403.947 279.02 404.637 278.84 405.217 278.48C405.817 278.1 406.287 277.51 406.627 276.71C406.967 275.89 407.138 274.83 407.138 273.53C407.138 272.23 406.967 271.18 406.627 270.38C406.307 269.56 405.847 268.98 405.247 268.64C404.647 268.28 403.947 268.1 403.147 268.1C402.347 268.1 401.637 268.3 401.017 268.7C400.397 269.1 399.917 269.71 399.577 270.53C399.237 271.35 399.067 272.35 399.067 273.53C399.067 274.71 399.237 275.72 399.577 276.56C399.937 277.38 400.417 278 401.017 278.42C401.637 278.82 402.347 279.02 403.147 279.02ZM413.888 281L413.888 266.12L416.648 266.12C416.648 266.46 416.648 266.78 416.648 267.08C416.648 267.36 416.648 267.62 416.648 267.86C416.648 268.1 416.648 268.33 416.648 268.55C416.648 268.77 416.648 269.01 416.648 269.27C417.008 268.45 417.598 267.69 418.418 266.99C419.238 266.27 420.298 265.91 421.598 265.91C422.158 265.91 422.618 265.96 422.978 266.06L422.978 268.94C422.338 268.86 421.808 268.82 421.388 268.82C419.768 268.82 418.578 269.29 417.818 270.23C417.078 271.15 416.708 272.51 416.708 274.31L416.708 281L413.888 281ZM431.454 281.42C430.074 281.42 428.864 281.12 427.824 280.52C426.804 279.9 426.004 279.01 425.424 277.85C424.864 276.67 424.584 275.26 424.584 273.62C424.584 272.04 424.874 270.65 425.454 269.45C426.034 268.25 426.834 267.33 427.854 266.69C428.894 266.03 430.054 265.7 431.334 265.7C432.794 265.7 434.044 266.08 435.084 266.84C436.144 267.58 436.914 268.61 437.394 269.93C437.894 271.23 438.054 272.68 437.874 274.28L427.404 274.28C427.444 275.42 427.654 276.35 428.034 277.07C428.434 277.77 428.934 278.28 429.534 278.6C430.134 278.9 430.804 279.05 431.544 279.05C432.604 279.05 433.434 278.76 434.034 278.18C434.654 277.6 435.114 276.94 435.414 276.2L437.994 277.13C437.634 278.07 437.134 278.86 436.494 279.5C435.874 280.14 435.134 280.62 434.274 280.94C433.434 281.26 432.494 281.42 431.454 281.42ZM435.024 272.03C435.024 271.17 434.854 270.44 434.514 269.84C434.174 269.22 433.724 268.75 433.164 268.43C432.624 268.11 432.014 267.95 431.334 267.95C430.334 267.95 429.464 268.32 428.724 269.06C428.004 269.78 427.584 270.77 427.464 272.03L435.024 272.03ZM441.837 281L441.837 266.12L444.567 266.12L444.567 267.47C444.567 267.65 444.567 267.84 444.567 268.04C444.567 268.22 444.567 268.41 444.567 268.61C444.707 268.27 444.967 267.88 445.347 267.44C445.747 266.98 446.287 266.58 446.967 266.24C447.667 265.88 448.487 265.7 449.427 265.7C450.607 265.7 451.577 265.93 452.337 266.39C453.117 266.85 453.687 267.49 454.047 268.31C454.407 269.13 454.587 270.11 454.587 271.25L454.587 281L451.767 281L451.767 271.91C451.767 270.63 451.487 269.69 450.927 269.09C450.387 268.47 449.617 268.16 448.617 268.16C447.437 268.16 446.547 268.52 445.947 269.24C445.367 269.94 445.007 270.74 444.867 271.64C444.727 272.52 444.657 273.5 444.657 274.58L444.657 281L441.837 281ZM465.058 281.42C463.678 281.42 462.468 281.12 461.428 280.52C460.408 279.9 459.608 279.01 459.028 277.85C458.468 276.67 458.188 275.26 458.188 273.62C458.188 272.04 458.478 270.65 459.058 269.45C459.638 268.25 460.438 267.33 461.458 266.69C462.498 266.03 463.658 265.7 464.938 265.7C466.398 265.7 467.648 266.08 468.688 266.84C469.748 267.58 470.518 268.61 470.998 269.93C471.498 271.23 471.658 272.68 471.478 274.28L461.008 274.28C461.048 275.42 461.258 276.35 461.638 277.07C462.038 277.77 462.538 278.28 463.138 278.6C463.738 278.9 464.408 279.05 465.148 279.05C466.208 279.05 467.038 278.76 467.638 278.18C468.258 277.6 468.718 276.94 469.018 276.2L471.598 277.13C471.238 278.07 470.738 278.86 470.098 279.5C469.478 280.14 468.738 280.62 467.878 280.94C467.038 281.26 466.098 281.42 465.058 281.42ZM468.628 272.03C468.628 271.17 468.458 270.44 468.118 269.84C467.778 269.22 467.328 268.75 466.768 268.43C466.228 268.11 465.618 267.95 464.938 267.95C463.938 267.95 463.068 268.32 462.328 269.06C461.608 269.78 461.188 270.77 461.068 272.03L468.628 272.03ZM480.12 281.42C479.02 281.42 478.1 281.19 477.36 280.73C476.64 280.27 476.1 279.63 475.74 278.81C475.4 277.97 475.23 276.99 475.23 275.87L475.23 266.12L478.05 266.12L478.05 275.21C478.05 276.49 478.31 277.44 478.83 278.06C479.37 278.66 480.13 278.96 481.11 278.96C482.73 278.96 483.78 278.34 484.26 277.1C484.76 275.86 485.01 274.36 485.01 272.6L485.01 266.12L487.83 266.12L487.83 281L485.07 281C485.07 280.48 485.07 280.03 485.07 279.65C485.07 279.25 485.07 278.85 485.07 278.45C484.67 279.17 484.07 279.85 483.27 280.49C482.49 281.11 481.44 281.42 480.12 281.42ZM492.755 281L492.755 266.12L495.515 266.12C495.515 266.46 495.515 266.78 495.515 267.08C495.515 267.36 495.515 267.62 495.515 267.86C495.515 268.1 495.515 268.33 495.515 268.55C495.515 268.77 495.515 269.01 495.515 269.27C495.875 268.45 496.465 267.69 497.285 266.99C498.105 266.27 499.165 265.91 500.465 265.91C501.025 265.91 501.485 265.96 501.845 266.06L501.845 268.94C501.205 268.86 500.675 268.82 500.255 268.82C498.635 268.82 497.445 269.29 496.685 270.23C495.945 271.15 495.575 272.51 495.575 274.31L495.575 281L492.755 281ZM509.809 281.42C508.749 281.42 507.759 281.26 506.839 280.94C505.919 280.62 505.139 280.14 504.499 279.5C503.879 278.86 503.469 278.08 503.269 277.16L505.939 276.29C506.079 276.83 506.299 277.31 506.599 277.73C506.919 278.15 507.339 278.49 507.859 278.75C508.399 278.99 509.059 279.11 509.839 279.11C510.859 279.11 511.639 278.93 512.179 278.57C512.739 278.21 513.019 277.7 513.019 277.04C513.019 276.48 512.819 276.02 512.419 275.66C512.019 275.3 511.329 275.03 510.349 274.85L508.549 274.52C507.589 274.32 506.769 274.07 506.089 273.77C505.429 273.45 504.889 273 504.469 272.42C504.069 271.84 503.869 271.1 503.869 270.2C503.869 269.34 504.119 268.57 504.619 267.89C505.119 267.19 505.799 266.65 506.659 266.27C507.519 265.89 508.459 265.7 509.479 265.7C511.179 265.7 512.529 266.06 513.529 266.78C514.529 267.5 515.199 268.4 515.539 269.48L513.049 270.44C512.909 270.02 512.699 269.63 512.419 269.27C512.139 268.91 511.749 268.6 511.249 268.34C510.769 268.08 510.169 267.95 509.449 267.95C508.509 267.95 507.789 268.14 507.289 268.52C506.809 268.9 506.569 269.37 506.569 269.93C506.569 270.45 506.739 270.86 507.079 271.16C507.439 271.44 508.109 271.67 509.089 271.85L510.859 272.18C512.159 272.46 513.319 272.94 514.339 273.62C515.359 274.3 515.869 275.36 515.869 276.8C515.869 277.74 515.629 278.56 515.149 279.26C514.669 279.94 513.969 280.47 513.049 280.85C512.149 281.23 511.069 281.42 509.809 281.42ZM527.208 281L527.208 260L530.028 260L530.028 281L527.208 281ZM538.753 281.42C537.293 281.42 536.123 281.04 535.243 280.28C534.383 279.52 533.953 278.48 533.953 277.16C533.953 275.86 534.373 274.8 535.213 273.98C536.073 273.14 537.193 272.52 538.573 272.12C539.953 271.7 541.533 271.42 543.313 271.28L543.313 270.83C543.313 270.25 543.203 269.76 542.983 269.36C542.763 268.94 542.423 268.62 541.963 268.4C541.503 268.18 540.913 268.07 540.193 268.07C539.033 268.07 538.163 268.33 537.583 268.85C537.023 269.35 536.613 269.98 536.353 270.74L533.653 269.87C533.813 269.15 534.163 268.48 534.703 267.86C535.263 267.22 536.003 266.7 536.923 266.3C537.863 265.9 538.953 265.7 540.193 265.7C541.513 265.7 542.613 265.91 543.493 266.33C544.373 266.75 545.033 267.35 545.473 268.13C545.913 268.91 546.133 269.84 546.133 270.92L546.133 277.73C546.133 278.07 546.193 278.3 546.313 278.42C546.433 278.54 546.663 278.6 547.003 278.6L548.533 278.6L548.533 281L546.373 281C545.393 281 544.713 280.81 544.333 280.43C543.953 280.05 543.713 279.49 543.613 278.75C543.053 279.61 542.383 280.27 541.603 280.73C540.823 281.19 539.873 281.42 538.753 281.42ZM539.503 279.11C540.163 279.11 540.783 278.96 541.363 278.66C541.943 278.34 542.413 277.86 542.773 277.22C543.133 276.58 543.313 275.79 543.313 274.85L543.313 273.32C541.333 273.52 539.763 273.9 538.603 274.46C537.443 275 536.863 275.82 536.863 276.92C536.863 277.6 537.083 278.14 537.523 278.54C537.983 278.92 538.643 279.11 539.503 279.11ZM556.332 281.42C555.272 281.42 554.282 281.26 553.362 280.94C552.442 280.62 551.662 280.14 551.022 279.5C550.402 278.86 549.992 278.08 549.792 277.16L552.462 276.29C552.602 276.83 552.822 277.31 553.122 277.73C553.442 278.15 553.862 278.49 554.382 278.75C554.922 278.99 555.582 279.11 556.362 279.11C557.382 279.11 558.162 278.93 558.702 278.57C559.262 278.21 559.542 277.7 559.542 277.04C559.542 276.48 559.342 276.02 558.942 275.66C558.542 275.3 557.852 275.03 556.872 274.85L555.072 274.52C554.112 274.32 553.292 274.07 552.612 273.77C551.952 273.45 551.412 273 550.992 272.42C550.592 271.84 550.392 271.1 550.392 270.2C550.392 269.34 550.642 268.57 551.142 267.89C551.642 267.19 552.322 266.65 553.182 266.27C554.042 265.89 554.982 265.7 556.002 265.7C557.702 265.7 559.052 266.06 560.052 266.78C561.052 267.5 561.722 268.4 562.062 269.48L559.572 270.44C559.432 270.02 559.222 269.63 558.942 269.27C558.662 268.91 558.272 268.6 557.772 268.34C557.292 268.08 556.692 267.95 555.972 267.95C555.032 267.95 554.312 268.14 553.812 268.52C553.332 268.9 553.092 269.37 553.092 269.93C553.092 270.45 553.262 270.86 553.602 271.16C553.962 271.44 554.632 271.67 555.612 271.85L557.382 272.18C558.682 272.46 559.842 272.94 560.862 273.62C561.882 274.3 562.392 275.36 562.392 276.8C562.392 277.74 562.152 278.56 561.672 279.26C561.192 279.94 560.492 280.47 559.572 280.85C558.672 281.23 557.592 281.42 556.332 281.42ZM571.099 281C570.279 281 569.589 280.87 569.029 280.61C568.469 280.33 568.049 279.92 567.769 279.38C567.489 278.84 567.349 278.16 567.349 277.34L567.349 268.46L563.959 268.46L563.959 266.12L567.349 266.12L567.349 261.47L570.169 261.47L570.169 266.12L574.189 266.12L574.189 268.46L570.169 268.46L570.169 277.1C570.169 277.6 570.289 277.97 570.529 278.21C570.769 278.45 571.139 278.57 571.639 278.57L574.759 278.57L574.759 281L571.099 281ZM588.218 281L583.358 266.12L586.298 266.12L588.398 273.05C588.598 273.71 588.778 274.3 588.938 274.82C589.098 275.34 589.238 275.8 589.358 276.2C589.478 276.6 589.578 276.95 589.658 277.25C589.758 277.53 589.838 277.78 589.898 278C590.038 277.46 590.518 275.86 591.338 273.2L593.498 266.12L596.798 266.12L599.138 273.86C599.298 274.44 599.448 274.96 599.588 275.42C599.728 275.88 599.858 276.3 599.978 276.68C600.058 276.94 600.128 277.18 600.188 277.4C600.268 277.62 600.328 277.81 600.368 277.97C600.628 277.23 601.148 275.56 601.928 272.96L604.058 266.12L607.028 266.12L602.018 281L598.688 281L596.498 273.83C596.258 273.03 596.048 272.33 595.868 271.73C595.688 271.13 595.528 270.62 595.388 270.2C595.328 270 595.268 269.82 595.208 269.66C595.168 269.5 595.128 269.35 595.088 269.21C595.168 268.95 594.688 270.48 593.648 273.8L591.398 281L588.218 281ZM615.849 281.42C614.469 281.42 613.259 281.12 612.219 280.52C611.199 279.9 610.399 279.01 609.819 277.85C609.259 276.67 608.979 275.26 608.979 273.62C608.979 272.04 609.269 270.65 609.849 269.45C610.429 268.25 611.229 267.33 612.249 266.69C613.289 266.03 614.449 265.7 615.729 265.7C617.189 265.7 618.439 266.08 619.479 266.84C620.539 267.58 621.309 268.61 621.789 269.93C622.289 271.23 622.449 272.68 622.269 274.28L611.799 274.28C611.839 275.42 612.049 276.35 612.429 277.07C612.829 277.77 613.329 278.28 613.929 278.6C614.529 278.9 615.199 279.05 615.939 279.05C616.999 279.05 617.829 278.76 618.429 278.18C619.049 277.6 619.509 276.94 619.809 276.2L622.389 277.13C622.029 278.07 621.529 278.86 620.889 279.5C620.269 280.14 619.529 280.62 618.669 280.94C617.829 281.26 616.889 281.42 615.849 281.42ZM619.419 272.03C619.419 271.17 619.249 270.44 618.909 269.84C618.569 269.22 618.119 268.75 617.559 268.43C617.019 268.11 616.409 267.95 615.729 267.95C614.729 267.95 613.859 268.32 613.119 269.06C612.399 269.78 611.979 270.77 611.859 272.03L619.419 272.03ZM631.991 281.42C630.611 281.42 629.401 281.12 628.361 280.52C627.341 279.9 626.541 279.01 625.961 277.85C625.401 276.67 625.121 275.26 625.121 273.62C625.121 272.04 625.411 270.65 625.991 269.45C626.571 268.25 627.371 267.33 628.391 266.69C629.431 266.03 630.591 265.7 631.871 265.7C633.331 265.7 634.581 266.08 635.621 266.84C636.681 267.58 637.451 268.61 637.931 269.93C638.431 271.23 638.591 272.68 638.411 274.28L627.941 274.28C627.981 275.42 628.191 276.35 628.571 277.07C628.971 277.77 629.471 278.28 630.071 278.6C630.671 278.9 631.341 279.05 632.081 279.05C633.141 279.05 633.971 278.76 634.571 278.18C635.191 277.6 635.651 276.94 635.951 276.2L638.531 277.13C638.171 278.07 637.671 278.86 637.031 279.5C636.411 280.14 635.671 280.62 634.811 280.94C633.971 281.26 633.031 281.42 631.991 281.42ZM635.561 272.03C635.561 271.17 635.391 270.44 635.051 269.84C634.711 269.22 634.261 268.75 633.701 268.43C633.161 268.11 632.551 267.95 631.871 267.95C630.871 267.95 630.001 268.32 629.261 269.06C628.541 269.78 628.121 270.77 628.001 272.03L635.561 272.03ZM642.374 281L642.374 260L645.194 260L645.194 268.58C645.194 270 645.194 271.08 645.194 271.82C645.194 272.56 645.194 273.13 645.194 273.53L652.784 266.12L656.474 266.12L649.244 272.9L648.614 273.47L644.264 277.55L645.194 275.39L645.194 281L642.374 281ZM653.384 281L647.594 273.8L649.634 272L657.014 281L653.384 281ZM659.151 281L659.151 277.1L662.991 277.1L662.991 281L659.151 281Z" fill="black"/>
</svg>
