<svg width="298" height="56" viewBox="0 0 298 56" fill="none" xmlns="http://www.w3.org/2000/svg">
<rect x="0.5" y="0.5" width="297" height="55" rx="3.5" stroke="#C6C6C6"/>
<path d="M21.742 34.252C20.83 34.252 20.026 34.102 19.33 33.802C18.634 33.502 18.058 33.094 17.602 32.578C17.158 32.05 16.834 31.444 16.63 30.76L18.376 29.968C18.532 30.484 18.76 30.94 19.06 31.336C19.36 31.732 19.738 32.05 20.194 32.29C20.662 32.518 21.214 32.632 21.85 32.632C22.69 32.632 23.344 32.452 23.812 32.092C24.28 31.72 24.514 31.228 24.514 30.616C24.514 30.1 24.328 29.68 23.956 29.356C23.584 29.032 23.008 28.786 22.228 28.618L20.554 28.24C19.87 28.096 19.282 27.886 18.79 27.61C18.31 27.322 17.932 26.944 17.656 26.476C17.392 26.008 17.26 25.426 17.26 24.73C17.26 24.058 17.44 23.452 17.8 22.912C18.172 22.36 18.688 21.928 19.348 21.616C20.02 21.304 20.788 21.148 21.652 21.148C22.516 21.148 23.266 21.298 23.902 21.598C24.538 21.898 25.042 22.276 25.414 22.732C25.798 23.188 26.062 23.65 26.206 24.118L24.514 24.892C24.394 24.544 24.22 24.214 23.992 23.902C23.764 23.59 23.44 23.326 23.02 23.11C22.612 22.882 22.102 22.768 21.49 22.768C20.986 22.768 20.548 22.852 20.176 23.02C19.816 23.176 19.54 23.398 19.348 23.686C19.156 23.962 19.06 24.28 19.06 24.64C19.06 25.144 19.216 25.54 19.528 25.828C19.852 26.104 20.362 26.32 21.058 26.476L22.786 26.854C23.89 27.094 24.766 27.52 25.414 28.132C26.074 28.732 26.404 29.506 26.404 30.454C26.404 31.198 26.224 31.858 25.864 32.434C25.504 32.998 24.97 33.442 24.262 33.766C23.566 34.09 22.726 34.252 21.742 34.252ZM32.1996 34.252C31.3716 34.252 30.6456 34.072 30.0216 33.712C29.4096 33.34 28.9296 32.806 28.5816 32.11C28.2456 31.402 28.0776 30.556 28.0776 29.572C28.0776 28.624 28.2516 27.79 28.5996 27.07C28.9476 26.35 29.4276 25.798 30.0396 25.414C30.6636 25.018 31.3596 24.82 32.1276 24.82C33.0036 24.82 33.7536 25.048 34.3776 25.504C35.0136 25.948 35.4756 26.566 35.7636 27.358C36.0636 28.138 36.1596 29.008 36.0516 29.968H29.7696C29.7936 30.652 29.9196 31.21 30.1476 31.642C30.3876 32.062 30.6876 32.368 31.0476 32.56C31.4076 32.74 31.8096 32.83 32.2536 32.83C32.8896 32.83 33.3876 32.656 33.7476 32.308C34.1196 31.96 34.3956 31.564 34.5756 31.12L36.1236 31.678C35.9076 32.242 35.6076 32.716 35.2236 33.1C34.8516 33.484 34.4076 33.772 33.8916 33.964C33.3876 34.156 32.8236 34.252 32.1996 34.252ZM34.3416 28.618C34.3416 28.102 34.2396 27.664 34.0356 27.304C33.8316 26.932 33.5616 26.65 33.2256 26.458C32.9016 26.266 32.5356 26.17 32.1276 26.17C31.5276 26.17 31.0056 26.392 30.5616 26.836C30.1296 27.268 29.8776 27.862 29.8056 28.618H34.3416ZM40.7331 34.252C39.8571 34.252 39.1551 34.024 38.6271 33.568C38.1111 33.112 37.8531 32.488 37.8531 31.696C37.8531 30.916 38.1051 30.28 38.6091 29.788C39.1251 29.284 39.7971 28.912 40.6251 28.672C41.4531 28.42 42.4011 28.252 43.4691 28.168V27.898C43.4691 27.55 43.4031 27.256 43.2711 27.016C43.1391 26.764 42.9351 26.572 42.6591 26.44C42.3831 26.308 42.0291 26.242 41.5971 26.242C40.9011 26.242 40.3791 26.398 40.0311 26.71C39.6951 27.01 39.4491 27.388 39.2931 27.844L37.6731 27.322C37.7691 26.89 37.9791 26.488 38.3031 26.116C38.6391 25.732 39.0831 25.42 39.6351 25.18C40.1991 24.94 40.8531 24.82 41.5971 24.82C42.3891 24.82 43.0491 24.946 43.5771 25.198C44.1051 25.45 44.5011 25.81 44.7651 26.278C45.0291 26.746 45.1611 27.304 45.1611 27.952V32.038C45.1611 32.242 45.1971 32.38 45.2691 32.452C45.3411 32.524 45.4791 32.56 45.6831 32.56H46.6011V34H45.3051C44.7171 34 44.3091 33.886 44.0811 33.658C43.8531 33.43 43.7091 33.094 43.6491 32.65C43.3131 33.166 42.9111 33.562 42.4431 33.838C41.9751 34.114 41.4051 34.252 40.7331 34.252ZM41.1831 32.866C41.5791 32.866 41.9511 32.776 42.2991 32.596C42.6471 32.404 42.9291 32.116 43.1451 31.732C43.3611 31.348 43.4691 30.874 43.4691 30.31V29.392C42.2811 29.512 41.3391 29.74 40.6431 30.076C39.9471 30.4 39.5991 30.892 39.5991 31.552C39.5991 31.96 39.7311 32.284 39.9951 32.524C40.2711 32.752 40.6671 32.866 41.1831 32.866ZM48.2026 34V25.072H49.8586C49.8586 25.276 49.8586 25.468 49.8586 25.648C49.8586 25.816 49.8586 25.972 49.8586 26.116C49.8586 26.26 49.8586 26.398 49.8586 26.53C49.8586 26.662 49.8586 26.806 49.8586 26.962C50.0746 26.47 50.4286 26.014 50.9206 25.594C51.4126 25.162 52.0486 24.946 52.8286 24.946C53.1646 24.946 53.4406 24.976 53.6566 25.036V26.764C53.2726 26.716 52.9546 26.692 52.7026 26.692C51.7306 26.692 51.0166 26.974 50.5606 27.538C50.1166 28.09 49.8946 28.906 49.8946 29.986V34H48.2026ZM58.9405 34.252C58.0765 34.252 57.3145 34.06 56.6545 33.676C56.0065 33.292 55.5025 32.746 55.1425 32.038C54.7825 31.318 54.6025 30.484 54.6025 29.536C54.6025 28.624 54.7885 27.808 55.1605 27.088C55.5325 26.368 56.0425 25.81 56.6905 25.414C57.3505 25.018 58.0945 24.82 58.9225 24.82C59.5705 24.82 60.1525 24.934 60.6685 25.162C61.1845 25.39 61.6105 25.702 61.9465 26.098C62.2825 26.494 62.5285 26.932 62.6845 27.412L61.1005 27.952C60.9325 27.46 60.6685 27.058 60.3085 26.746C59.9485 26.434 59.4805 26.278 58.9045 26.278C58.4365 26.278 58.0105 26.404 57.6265 26.656C57.2425 26.896 56.9365 27.262 56.7085 27.754C56.4805 28.246 56.3665 28.84 56.3665 29.536C56.3665 30.244 56.4745 30.844 56.6905 31.336C56.9185 31.828 57.2245 32.194 57.6085 32.434C57.9925 32.674 58.4305 32.794 58.9225 32.794C59.5705 32.794 60.0805 32.614 60.4525 32.254C60.8365 31.894 61.1185 31.432 61.2985 30.868L62.9005 31.426C62.5885 32.29 62.0905 32.98 61.4065 33.496C60.7345 34 59.9125 34.252 58.9405 34.252ZM64.8666 34V21.4H66.5586V24.712C66.5586 24.928 66.5586 25.132 66.5586 25.324C66.5586 25.504 66.5586 25.672 66.5586 25.828C66.5586 25.96 66.5586 26.086 66.5586 26.206C66.5586 26.326 66.5586 26.446 66.5586 26.566C66.6426 26.35 66.7926 26.11 67.0086 25.846C67.2246 25.582 67.5426 25.348 67.9626 25.144C68.3946 24.928 68.9166 24.82 69.5286 24.82C70.1886 24.82 70.7406 24.958 71.1846 25.234C71.6406 25.51 71.9766 25.9 72.1926 26.404C72.4086 26.896 72.5166 27.478 72.5166 28.15V34H70.8246V28.546C70.8246 27.778 70.6566 27.214 70.3206 26.854C69.9966 26.482 69.5346 26.296 68.9346 26.296C68.2266 26.296 67.6926 26.512 67.3326 26.944C66.9846 27.364 66.7686 27.844 66.6846 28.384C66.6006 28.912 66.5586 29.5 66.5586 30.148V34H64.8666ZM79.9311 34V25.072H81.5691V25.81C81.5691 25.906 81.5691 26.008 81.5691 26.116C81.5691 26.212 81.5691 26.314 81.5691 26.422C81.7251 26.158 81.9171 25.906 82.1451 25.666C82.3731 25.426 82.6671 25.228 83.0271 25.072C83.3871 24.904 83.8011 24.82 84.2691 24.82C84.9171 24.82 85.4811 24.988 85.9611 25.324C86.4411 25.648 86.8011 26.098 87.0411 26.674C87.2811 26.158 87.6351 25.72 88.1031 25.36C88.5831 25 89.2251 24.82 90.0291 24.82C90.6891 24.82 91.2471 24.946 91.7031 25.198C92.1711 25.438 92.5251 25.804 92.7651 26.296C93.0051 26.776 93.1251 27.37 93.1251 28.078V34H91.4151V28.546C91.4151 27.766 91.2531 27.202 90.9291 26.854C90.6051 26.494 90.1431 26.314 89.5431 26.314C88.8831 26.314 88.3911 26.506 88.0671 26.89C87.7551 27.262 87.5571 27.688 87.4731 28.168C87.3891 28.648 87.3471 29.188 87.3471 29.788V34H85.6911V28.546C85.6911 27.766 85.5231 27.202 85.1871 26.854C84.8631 26.494 84.4011 26.314 83.8011 26.314C83.1651 26.314 82.6851 26.506 82.3611 26.89C82.0371 27.262 81.8331 27.694 81.7491 28.186C81.6651 28.666 81.6231 29.2 81.6231 29.788V34H79.9311ZM98.2312 34.252C97.3552 34.252 96.6532 34.024 96.1252 33.568C95.6092 33.112 95.3512 32.488 95.3512 31.696C95.3512 30.916 95.6032 30.28 96.1072 29.788C96.6232 29.284 97.2952 28.912 98.1232 28.672C98.9512 28.42 99.8992 28.252 100.967 28.168V27.898C100.967 27.55 100.901 27.256 100.769 27.016C100.637 26.764 100.433 26.572 100.157 26.44C99.8812 26.308 99.5272 26.242 99.0952 26.242C98.3992 26.242 97.8772 26.398 97.5292 26.71C97.1932 27.01 96.9472 27.388 96.7912 27.844L95.1712 27.322C95.2672 26.89 95.4772 26.488 95.8012 26.116C96.1372 25.732 96.5812 25.42 97.1332 25.18C97.6972 24.94 98.3512 24.82 99.0952 24.82C99.8872 24.82 100.547 24.946 101.075 25.198C101.603 25.45 101.999 25.81 102.263 26.278C102.527 26.746 102.659 27.304 102.659 27.952V32.038C102.659 32.242 102.695 32.38 102.767 32.452C102.839 32.524 102.977 32.56 103.181 32.56H104.099V34H102.803C102.215 34 101.807 33.886 101.579 33.658C101.351 33.43 101.207 33.094 101.147 32.65C100.811 33.166 100.409 33.562 99.9412 33.838C99.4732 34.114 98.9032 34.252 98.2312 34.252ZM98.6812 32.866C99.0772 32.866 99.4492 32.776 99.7972 32.596C100.145 32.404 100.427 32.116 100.643 31.732C100.859 31.348 100.967 30.874 100.967 30.31V29.392C99.7792 29.512 98.8372 29.74 98.1412 30.076C97.4452 30.4 97.0972 30.892 97.0972 31.552C97.0972 31.96 97.2292 32.284 97.4932 32.524C97.7692 32.752 98.1652 32.866 98.6812 32.866ZM105.701 34V25.072H107.357C107.357 25.276 107.357 25.468 107.357 25.648C107.357 25.816 107.357 25.972 107.357 26.116C107.357 26.26 107.357 26.398 107.357 26.53C107.357 26.662 107.357 26.806 107.357 26.962C107.573 26.47 107.927 26.014 108.419 25.594C108.911 25.162 109.547 24.946 110.327 24.946C110.663 24.946 110.939 24.976 111.155 25.036V26.764C110.771 26.716 110.453 26.692 110.201 26.692C109.229 26.692 108.515 26.974 108.059 27.538C107.615 28.09 107.393 28.906 107.393 29.986V34H105.701ZM112.925 34V21.4H114.617V26.548C114.617 27.4 114.617 28.048 114.617 28.492C114.617 28.936 114.617 29.278 114.617 29.518L119.171 25.072H121.385L117.047 29.14L116.669 29.482L114.059 31.93L114.617 30.634V34H112.925ZM119.531 34L116.057 29.68L117.281 28.6L121.709 34H119.531ZM126.295 34.252C125.467 34.252 124.741 34.072 124.117 33.712C123.505 33.34 123.025 32.806 122.677 32.11C122.341 31.402 122.173 30.556 122.173 29.572C122.173 28.624 122.347 27.79 122.695 27.07C123.043 26.35 123.523 25.798 124.135 25.414C124.759 25.018 125.455 24.82 126.223 24.82C127.099 24.82 127.849 25.048 128.473 25.504C129.109 25.948 129.571 26.566 129.859 27.358C130.159 28.138 130.255 29.008 130.147 29.968H123.865C123.889 30.652 124.015 31.21 124.243 31.642C124.483 32.062 124.783 32.368 125.143 32.56C125.503 32.74 125.905 32.83 126.349 32.83C126.985 32.83 127.483 32.656 127.843 32.308C128.215 31.96 128.491 31.564 128.671 31.12L130.219 31.678C130.003 32.242 129.703 32.716 129.319 33.1C128.947 33.484 128.503 33.772 127.987 33.964C127.483 34.156 126.919 34.252 126.295 34.252ZM128.437 28.618C128.437 28.102 128.335 27.664 128.131 27.304C127.927 26.932 127.657 26.65 127.321 26.458C126.997 26.266 126.631 26.17 126.223 26.17C125.623 26.17 125.101 26.392 124.657 26.836C124.225 27.268 123.973 27.862 123.901 28.618H128.437ZM135.551 34C135.059 34 134.645 33.922 134.309 33.766C133.973 33.598 133.721 33.352 133.553 33.028C133.385 32.704 133.301 32.296 133.301 31.804V26.476H131.267V25.072H133.301V22.282H134.993V25.072H137.405V26.476H134.993V31.66C134.993 31.96 135.065 32.182 135.209 32.326C135.353 32.47 135.575 32.542 135.875 32.542H137.747V34H135.551ZM139.662 37.51V25.072H141.3C141.3 25.336 141.3 25.576 141.3 25.792C141.3 25.996 141.3 26.206 141.3 26.422C141.564 25.978 141.936 25.6 142.416 25.288C142.896 24.976 143.49 24.82 144.198 24.82C144.906 24.82 145.536 25.012 146.088 25.396C146.64 25.768 147.072 26.314 147.384 27.034C147.696 27.742 147.852 28.576 147.852 29.536C147.852 30.484 147.696 31.318 147.384 32.038C147.072 32.746 146.64 33.292 146.088 33.676C145.536 34.06 144.906 34.252 144.198 34.252C143.49 34.252 142.902 34.102 142.434 33.802C141.978 33.49 141.618 33.106 141.354 32.65V34.36V37.51H139.662ZM143.712 32.812C144.192 32.812 144.606 32.704 144.954 32.488C145.314 32.26 145.596 31.906 145.8 31.426C146.004 30.934 146.106 30.298 146.106 29.518C146.106 28.738 146.004 28.108 145.8 27.628C145.608 27.136 145.332 26.788 144.972 26.584C144.612 26.368 144.192 26.26 143.712 26.26C143.232 26.26 142.806 26.38 142.434 26.62C142.062 26.86 141.774 27.226 141.57 27.718C141.366 28.21 141.264 28.81 141.264 29.518C141.264 30.226 141.366 30.832 141.57 31.336C141.786 31.828 142.074 32.2 142.434 32.452C142.806 32.692 143.232 32.812 143.712 32.812ZM150.156 34V21.4H151.848V34H150.156ZM157.083 34.252C156.207 34.252 155.505 34.024 154.977 33.568C154.461 33.112 154.203 32.488 154.203 31.696C154.203 30.916 154.455 30.28 154.959 29.788C155.475 29.284 156.147 28.912 156.975 28.672C157.803 28.42 158.751 28.252 159.819 28.168V27.898C159.819 27.55 159.753 27.256 159.621 27.016C159.489 26.764 159.285 26.572 159.009 26.44C158.733 26.308 158.379 26.242 157.947 26.242C157.251 26.242 156.729 26.398 156.381 26.71C156.045 27.01 155.799 27.388 155.643 27.844L154.023 27.322C154.119 26.89 154.329 26.488 154.653 26.116C154.989 25.732 155.433 25.42 155.985 25.18C156.549 24.94 157.203 24.82 157.947 24.82C158.739 24.82 159.399 24.946 159.927 25.198C160.455 25.45 160.851 25.81 161.115 26.278C161.379 26.746 161.511 27.304 161.511 27.952V32.038C161.511 32.242 161.547 32.38 161.619 32.452C161.691 32.524 161.829 32.56 162.033 32.56H162.951V34H161.655C161.067 34 160.659 33.886 160.431 33.658C160.203 33.43 160.059 33.094 159.999 32.65C159.663 33.166 159.261 33.562 158.793 33.838C158.325 34.114 157.755 34.252 157.083 34.252ZM157.533 32.866C157.929 32.866 158.301 32.776 158.649 32.596C158.997 32.404 159.279 32.116 159.495 31.732C159.711 31.348 159.819 30.874 159.819 30.31V29.392C158.631 29.512 157.689 29.74 156.993 30.076C156.297 30.4 155.949 30.892 155.949 31.552C155.949 31.96 156.081 32.284 156.345 32.524C156.621 32.752 157.017 32.866 157.533 32.866ZM168.206 34.252C167.342 34.252 166.58 34.06 165.92 33.676C165.272 33.292 164.768 32.746 164.408 32.038C164.048 31.318 163.868 30.484 163.868 29.536C163.868 28.624 164.054 27.808 164.426 27.088C164.798 26.368 165.308 25.81 165.956 25.414C166.616 25.018 167.36 24.82 168.188 24.82C168.836 24.82 169.418 24.934 169.934 25.162C170.45 25.39 170.876 25.702 171.212 26.098C171.548 26.494 171.794 26.932 171.95 27.412L170.366 27.952C170.198 27.46 169.934 27.058 169.574 26.746C169.214 26.434 168.746 26.278 168.17 26.278C167.702 26.278 167.276 26.404 166.892 26.656C166.508 26.896 166.202 27.262 165.974 27.754C165.746 28.246 165.632 28.84 165.632 29.536C165.632 30.244 165.74 30.844 165.956 31.336C166.184 31.828 166.49 32.194 166.874 32.434C167.258 32.674 167.696 32.794 168.188 32.794C168.836 32.794 169.346 32.614 169.718 32.254C170.102 31.894 170.384 31.432 170.564 30.868L172.166 31.426C171.854 32.29 171.356 32.98 170.672 33.496C170 34 169.178 34.252 168.206 34.252ZM177.588 34.252C176.76 34.252 176.034 34.072 175.41 33.712C174.798 33.34 174.318 32.806 173.97 32.11C173.634 31.402 173.466 30.556 173.466 29.572C173.466 28.624 173.64 27.79 173.988 27.07C174.336 26.35 174.816 25.798 175.428 25.414C176.052 25.018 176.748 24.82 177.516 24.82C178.392 24.82 179.142 25.048 179.766 25.504C180.402 25.948 180.864 26.566 181.152 27.358C181.452 28.138 181.548 29.008 181.44 29.968H175.158C175.182 30.652 175.308 31.21 175.536 31.642C175.776 32.062 176.076 32.368 176.436 32.56C176.796 32.74 177.198 32.83 177.642 32.83C178.278 32.83 178.776 32.656 179.136 32.308C179.508 31.96 179.784 31.564 179.964 31.12L181.512 31.678C181.296 32.242 180.996 32.716 180.612 33.1C180.24 33.484 179.796 33.772 179.28 33.964C178.776 34.156 178.212 34.252 177.588 34.252ZM179.73 28.618C179.73 28.102 179.628 27.664 179.424 27.304C179.22 26.932 178.95 26.65 178.614 26.458C178.29 26.266 177.924 26.17 177.516 26.17C176.916 26.17 176.394 26.392 175.95 26.836C175.518 27.268 175.266 27.862 175.194 28.618H179.73ZM188.136 34V31.66H190.44V34H188.136ZM192.847 34V31.66H195.151V34H192.847ZM197.558 34V31.66H199.862V34H197.558Z" fill="black" fill-opacity="0.6"/>
<rect x="248.5" y="6.5" width="43" height="43" rx="3.5" fill="white"/>
<rect x="248.5" y="6.5" width="43" height="43" rx="3.5" stroke="#C6C6C6"/>
<path d="M268.014 17.9532C263.596 17.9532 260.014 21.5352 260.014 25.9532C260.014 30.3712 263.596 33.9532 268.014 33.9532C269.851 33.9532 271.592 33.3222 272.942 32.2822L277.295 36.6722C277.686 37.0622 278.342 37.0622 278.733 36.6722C279.123 36.2812 279.123 35.6252 278.733 35.2342L274.349 30.8742C275.39 29.5242 276.014 27.7902 276.014 25.9532C276.014 21.5352 272.432 17.9532 268.014 17.9532ZM268.014 19.9532C271.328 19.9532 274.014 22.6392 274.014 25.9532C274.014 29.2672 271.328 31.9532 268.014 31.9532C264.7 31.9532 262.014 29.2672 262.014 25.9532C262.014 22.6392 264.7 19.9532 268.014 19.9532Z" fill="black"/>
</svg>
