<svg width="298" height="56" viewBox="0 0 298 56" fill="none" xmlns="http://www.w3.org/2000/svg">
<rect x="0.5" y="0.5" width="297" height="55" rx="3.5" stroke="#C6C6C6"/>
<rect x="248.5" y="6.5" width="43" height="43" rx="3.5" fill="white"/>
<rect x="248.5" y="6.5" width="43" height="43" rx="3.5" stroke="#C6C6C6"/>
<path d="M268.014 17.9532C263.596 17.9532 260.014 21.5352 260.014 25.9532C260.014 30.3712 263.596 33.9532 268.014 33.9532C269.851 33.9532 271.592 33.3222 272.942 32.2822L277.295 36.6722C277.686 37.0622 278.342 37.0622 278.733 36.6722C279.123 36.2812 279.123 35.6252 278.733 35.2342L274.349 30.8742C275.39 29.5242 276.014 27.7902 276.014 25.9532C276.014 21.5352 272.432 17.9532 268.014 17.9532ZM268.014 19.9532C271.328 19.9532 274.014 22.6392 274.014 25.9532C274.014 29.2672 271.328 31.9532 268.014 31.9532C264.7 31.9532 262.014 29.2672 262.014 25.9532C262.014 22.6392 264.7 19.9532 268.014 19.9532Z" fill="black"/>
</svg>
