<svg width="173" height="54" viewBox="0 0 173 54" fill="none" xmlns="http://www.w3.org/2000/svg">
<rect width="173" height="54" rx="4" fill="black"/>
<path d="M41.8191 33.252C40.9071 33.252 40.1031 33.102 39.4071 32.802C38.7111 32.502 38.1351 32.094 37.6791 31.578C37.2351 31.05 36.9111 30.444 36.7071 29.76L38.4531 28.968C38.6091 29.484 38.8371 29.94 39.1371 30.336C39.4371 30.732 39.8151 31.05 40.2711 31.29C40.7391 31.518 41.2911 31.632 41.9271 31.632C42.7671 31.632 43.4211 31.452 43.8891 31.092C44.3571 30.72 44.5911 30.228 44.5911 29.616C44.5911 29.1 44.4051 28.68 44.0331 28.356C43.6611 28.032 43.0851 27.786 42.3051 27.618L40.6311 27.24C39.9471 27.096 39.3591 26.886 38.8671 26.61C38.3871 26.322 38.0091 25.944 37.7331 25.476C37.4691 25.008 37.3371 24.426 37.3371 23.73C37.3371 23.058 37.5171 22.452 37.8771 21.912C38.2491 21.36 38.7651 20.928 39.4251 20.616C40.0971 20.304 40.8651 20.148 41.7291 20.148C42.5931 20.148 43.3431 20.298 43.9791 20.598C44.6151 20.898 45.1191 21.276 45.4911 21.732C45.8751 22.188 46.1391 22.65 46.2831 23.118L44.5911 23.892C44.4711 23.544 44.2971 23.214 44.0691 22.902C43.8411 22.59 43.5171 22.326 43.0971 22.11C42.6891 21.882 42.1791 21.768 41.5671 21.768C41.0631 21.768 40.6251 21.852 40.2531 22.02C39.8931 22.176 39.6171 22.398 39.4251 22.686C39.2331 22.962 39.1371 23.28 39.1371 23.64C39.1371 24.144 39.2931 24.54 39.6051 24.828C39.9291 25.104 40.4391 25.32 41.1351 25.476L42.8631 25.854C43.9671 26.094 44.8431 26.52 45.4911 27.132C46.1511 27.732 46.4811 28.506 46.4811 29.454C46.4811 30.198 46.3011 30.858 45.9411 31.434C45.5811 31.998 45.0471 32.442 44.3391 32.766C43.6431 33.09 42.8031 33.252 41.8191 33.252ZM51.8644 33C51.3724 33 50.9584 32.922 50.6224 32.766C50.2864 32.598 50.0344 32.352 49.8664 32.028C49.6984 31.704 49.6144 31.296 49.6144 30.804V25.476H47.5804V24.072H49.6144V21.282H51.3064V24.072H53.7184V25.476H51.3064V30.66C51.3064 30.96 51.3784 31.182 51.5224 31.326C51.6664 31.47 51.8884 31.542 52.1884 31.542H54.0604V33H51.8644ZM58.279 33.252C57.403 33.252 56.701 33.024 56.173 32.568C55.657 32.112 55.399 31.488 55.399 30.696C55.399 29.916 55.651 29.28 56.155 28.788C56.671 28.284 57.343 27.912 58.171 27.672C58.999 27.42 59.947 27.252 61.015 27.168V26.898C61.015 26.55 60.949 26.256 60.817 26.016C60.685 25.764 60.481 25.572 60.205 25.44C59.929 25.308 59.575 25.242 59.143 25.242C58.447 25.242 57.925 25.398 57.577 25.71C57.241 26.01 56.995 26.388 56.839 26.844L55.219 26.322C55.315 25.89 55.525 25.488 55.849 25.116C56.185 24.732 56.629 24.42 57.181 24.18C57.745 23.94 58.399 23.82 59.143 23.82C59.935 23.82 60.595 23.946 61.123 24.198C61.651 24.45 62.047 24.81 62.311 25.278C62.575 25.746 62.707 26.304 62.707 26.952V31.038C62.707 31.242 62.743 31.38 62.815 31.452C62.887 31.524 63.025 31.56 63.229 31.56H64.147V33H62.851C62.263 33 61.855 32.886 61.627 32.658C61.399 32.43 61.255 32.094 61.195 31.65C60.859 32.166 60.457 32.562 59.989 32.838C59.521 33.114 58.951 33.252 58.279 33.252ZM58.729 31.866C59.125 31.866 59.497 31.776 59.845 31.596C60.193 31.404 60.475 31.116 60.691 30.732C60.907 30.348 61.015 29.874 61.015 29.31V28.392C59.827 28.512 58.885 28.74 58.189 29.076C57.493 29.4 57.145 29.892 57.145 30.552C57.145 30.96 57.277 31.284 57.541 31.524C57.817 31.752 58.213 31.866 58.729 31.866ZM65.7485 33V24.072H67.4045C67.4045 24.276 67.4045 24.468 67.4045 24.648C67.4045 24.816 67.4045 24.972 67.4045 25.116C67.4045 25.26 67.4045 25.398 67.4045 25.53C67.4045 25.662 67.4045 25.806 67.4045 25.962C67.6205 25.47 67.9745 25.014 68.4665 24.594C68.9585 24.162 69.5945 23.946 70.3745 23.946C70.7105 23.946 70.9865 23.976 71.2025 24.036V25.764C70.8185 25.716 70.5005 25.692 70.2485 25.692C69.2765 25.692 68.5625 25.974 68.1065 26.538C67.6625 27.09 67.4405 27.906 67.4405 28.986V33H65.7485ZM76.0871 33C75.5951 33 75.1811 32.922 74.8451 32.766C74.5091 32.598 74.2571 32.352 74.0891 32.028C73.9211 31.704 73.8371 31.296 73.8371 30.804V25.476H71.8031V24.072H73.8371V21.282H75.5291V24.072H77.9411V25.476H75.5291V30.66C75.5291 30.96 75.6011 31.182 75.7451 31.326C75.8891 31.47 76.1111 31.542 76.4111 31.542H78.2831V33H76.0871ZM87.8636 33.252C87.2276 33.252 86.6336 33.156 86.0816 32.964C85.5296 32.772 85.0616 32.484 84.6776 32.1C84.3056 31.716 84.0596 31.248 83.9396 30.696L85.5416 30.174C85.6256 30.498 85.7576 30.786 85.9376 31.038C86.1296 31.29 86.3816 31.494 86.6936 31.65C87.0176 31.794 87.4136 31.866 87.8816 31.866C88.4936 31.866 88.9616 31.758 89.2856 31.542C89.6216 31.326 89.7896 31.02 89.7896 30.624C89.7896 30.288 89.6696 30.012 89.4296 29.796C89.1896 29.58 88.7756 29.418 88.1876 29.31L87.1076 29.112C86.5316 28.992 86.0396 28.842 85.6316 28.662C85.2356 28.47 84.9116 28.2 84.6596 27.852C84.4196 27.504 84.2996 27.06 84.2996 26.52C84.2996 26.004 84.4496 25.542 84.7496 25.134C85.0496 24.714 85.4576 24.39 85.9736 24.162C86.4896 23.934 87.0536 23.82 87.6656 23.82C88.6856 23.82 89.4956 24.036 90.0956 24.468C90.6956 24.9 91.0976 25.44 91.3016 26.088L89.8076 26.664C89.7236 26.412 89.5976 26.178 89.4296 25.962C89.2616 25.746 89.0276 25.56 88.7276 25.404C88.4396 25.248 88.0796 25.17 87.6476 25.17C87.0836 25.17 86.6516 25.284 86.3516 25.512C86.0636 25.74 85.9196 26.022 85.9196 26.358C85.9196 26.67 86.0216 26.916 86.2256 27.096C86.4416 27.264 86.8436 27.402 87.4316 27.51L88.4936 27.708C89.2736 27.876 89.9696 28.164 90.5816 28.572C91.1936 28.98 91.4996 29.616 91.4996 30.48C91.4996 31.044 91.3556 31.536 91.0676 31.956C90.7796 32.364 90.3596 32.682 89.8076 32.91C89.2676 33.138 88.6196 33.252 87.8636 33.252ZM97.1713 33.252C96.3433 33.252 95.6173 33.072 94.9933 32.712C94.3813 32.34 93.9013 31.806 93.5533 31.11C93.2173 30.402 93.0493 29.556 93.0493 28.572C93.0493 27.624 93.2233 26.79 93.5713 26.07C93.9193 25.35 94.3993 24.798 95.0113 24.414C95.6353 24.018 96.3313 23.82 97.0993 23.82C97.9753 23.82 98.7253 24.048 99.3493 24.504C99.9853 24.948 100.447 25.566 100.735 26.358C101.035 27.138 101.131 28.008 101.023 28.968H94.7413C94.7653 29.652 94.8913 30.21 95.1193 30.642C95.3593 31.062 95.6593 31.368 96.0193 31.56C96.3793 31.74 96.7813 31.83 97.2253 31.83C97.8613 31.83 98.3593 31.656 98.7193 31.308C99.0913 30.96 99.3673 30.564 99.5473 30.12L101.095 30.678C100.879 31.242 100.579 31.716 100.195 32.1C99.8233 32.484 99.3793 32.772 98.8633 32.964C98.3593 33.156 97.7953 33.252 97.1713 33.252ZM99.3133 27.618C99.3133 27.102 99.2113 26.664 99.0073 26.304C98.8033 25.932 98.5333 25.65 98.1973 25.458C97.8733 25.266 97.5073 25.17 97.0993 25.17C96.4993 25.17 95.9773 25.392 95.5333 25.836C95.1013 26.268 94.8493 26.862 94.7773 27.618H99.3133ZM103.401 33V20.4H105.093V33H103.401ZM108.024 33V20.4H109.716V33H108.024ZM112.629 33V24.072H114.339V33H112.629ZM112.575 22.416V20.4H114.375V22.416H112.575ZM117.27 33V24.072H118.908V24.882C118.908 24.99 118.908 25.104 118.908 25.224C118.908 25.332 118.908 25.446 118.908 25.566C118.992 25.362 119.148 25.128 119.376 24.864C119.616 24.588 119.94 24.348 120.348 24.144C120.768 23.928 121.26 23.82 121.824 23.82C122.532 23.82 123.114 23.958 123.57 24.234C124.038 24.51 124.38 24.894 124.596 25.386C124.812 25.878 124.92 26.466 124.92 27.15V33H123.228V27.546C123.228 26.778 123.06 26.214 122.724 25.854C122.4 25.482 121.938 25.296 121.338 25.296C120.63 25.296 120.096 25.512 119.736 25.944C119.388 26.364 119.172 26.844 119.088 27.384C119.004 27.912 118.962 28.5 118.962 29.148V33H117.27ZM129.259 36.51C128.431 36.51 127.825 36.348 127.441 36.024C127.069 35.712 126.883 35.274 126.883 34.71C126.883 34.302 126.997 33.936 127.225 33.612C127.453 33.288 127.723 33.03 128.035 32.838C127.771 32.682 127.573 32.49 127.441 32.262C127.309 32.022 127.243 31.728 127.243 31.38C127.243 30.984 127.369 30.636 127.621 30.336C127.873 30.024 128.191 29.742 128.575 29.49C128.287 29.238 128.047 28.908 127.855 28.5C127.675 28.092 127.585 27.642 127.585 27.15C127.585 26.526 127.741 25.962 128.053 25.458C128.365 24.954 128.791 24.558 129.331 24.27C129.883 23.97 130.501 23.82 131.185 23.82C131.941 23.82 132.577 23.982 133.093 24.306C133.609 24.618 133.993 24.984 134.245 25.404C134.305 25.128 134.389 24.894 134.497 24.702C134.617 24.498 134.773 24.342 134.965 24.234C135.169 24.126 135.421 24.072 135.721 24.072H136.639V25.476H135.901C135.637 25.476 135.427 25.506 135.271 25.566C135.127 25.626 135.013 25.746 134.929 25.926C134.857 26.094 134.809 26.346 134.785 26.682L134.749 27.114C134.701 27.786 134.521 28.374 134.209 28.878C133.897 29.37 133.483 29.754 132.967 30.03C132.451 30.294 131.863 30.426 131.203 30.426C130.495 30.426 129.931 30.312 129.511 30.084C129.271 30.18 129.079 30.306 128.935 30.462C128.791 30.618 128.719 30.774 128.719 30.93C128.719 31.098 128.779 31.236 128.899 31.344C129.031 31.452 129.235 31.506 129.511 31.506H133.381C133.957 31.506 134.461 31.614 134.893 31.83C135.325 32.034 135.661 32.328 135.901 32.712C136.141 33.084 136.261 33.516 136.261 34.008C136.261 34.812 135.991 35.43 135.451 35.862C134.911 36.294 134.233 36.51 133.417 36.51H129.259ZM133.201 35.07C133.609 35.07 133.933 34.992 134.173 34.836C134.425 34.692 134.551 34.422 134.551 34.026C134.551 33.642 134.431 33.372 134.191 33.216C133.951 33.072 133.621 33 133.201 33H129.025C128.857 33.108 128.707 33.258 128.575 33.45C128.443 33.654 128.377 33.882 128.377 34.134C128.377 34.482 128.485 34.722 128.701 34.854C128.929 34.998 129.271 35.07 129.727 35.07H133.201ZM131.203 29.094C131.791 29.094 132.259 28.92 132.607 28.572C132.955 28.212 133.129 27.732 133.129 27.132C133.129 26.748 133.051 26.406 132.895 26.106C132.739 25.806 132.511 25.572 132.211 25.404C131.923 25.236 131.587 25.152 131.203 25.152C130.819 25.152 130.477 25.236 130.177 25.404C129.889 25.572 129.667 25.806 129.511 26.106C129.355 26.406 129.277 26.748 129.277 27.132C129.277 27.732 129.451 28.212 129.799 28.572C130.147 28.92 130.615 29.094 131.203 29.094Z" fill="white"/>
</svg>
