<svg width="742" height="113" viewBox="0 0 742 113" fill="none" xmlns="http://www.w3.org/2000/svg">
<path d="M97.2395 48.812C93.9529 48.812 91.1302 48.2127 88.7715 47.014C86.4129 45.8153 84.5955 43.998 83.3195 41.562C82.0435 39.0873 81.4055 36.0133 81.4055 32.34V7.4H87.2055V31.47C87.2055 35.2593 88.0369 38.198 89.6995 40.286C91.3622 42.374 93.8755 43.418 97.2395 43.418C100.604 43.418 103.117 42.374 104.78 40.286C106.442 38.1593 107.274 35.2207 107.274 31.47V7.4H113.074V32.34C113.074 35.82 112.455 38.7973 111.218 41.272C110.019 43.7467 108.24 45.622 105.882 46.898C103.523 48.174 100.642 48.812 97.2395 48.812ZM122.572 48V19.232H127.85V21.842C127.85 22.19 127.85 22.5573 127.85 22.944C127.85 23.292 127.85 23.6593 127.85 24.046C128.121 23.3887 128.624 22.6347 129.358 21.784C130.132 20.8947 131.176 20.1213 132.49 19.464C133.844 18.768 135.429 18.42 137.246 18.42C139.528 18.42 141.403 18.8647 142.872 19.754C144.38 20.6433 145.482 21.8807 146.178 23.466C146.874 25.0513 147.222 26.946 147.222 29.15V48H141.77V30.426C141.77 27.9513 141.229 26.134 140.146 24.974C139.102 23.7753 137.614 23.176 135.68 23.176C133.399 23.176 131.678 23.872 130.518 25.264C129.397 26.6173 128.701 28.164 128.43 29.904C128.16 31.6053 128.024 33.5 128.024 35.588V48H122.572ZM156.33 48V7.4H161.782V48H156.33ZM171.169 48V19.232H176.679V48H171.169ZM170.995 13.896V7.4H176.795V13.896H170.995ZM186.123 48V19.232H191.401V21.61C191.401 21.9193 191.401 22.248 191.401 22.596C191.401 22.9053 191.401 23.234 191.401 23.582C191.904 22.7313 192.523 21.9193 193.257 21.146C193.992 20.3727 194.939 19.7347 196.099 19.232C197.259 18.6907 198.593 18.42 200.101 18.42C202.189 18.42 204.007 18.9613 205.553 20.044C207.1 21.088 208.26 22.538 209.033 24.394C209.807 22.7313 210.947 21.32 212.455 20.16C214.002 19 216.071 18.42 218.661 18.42C220.788 18.42 222.586 18.826 224.055 19.638C225.563 20.4113 226.704 21.5907 227.477 23.176C228.251 24.7227 228.637 26.6367 228.637 28.918V48H223.127V30.426C223.127 27.9127 222.605 26.0953 221.561 24.974C220.517 23.814 219.029 23.234 217.095 23.234C214.969 23.234 213.383 23.8527 212.339 25.09C211.334 26.2887 210.696 27.6613 210.425 29.208C210.155 30.7547 210.019 32.4947 210.019 34.428V48H204.683V30.426C204.683 27.9127 204.142 26.0953 203.059 24.974C202.015 23.814 200.527 23.234 198.593 23.234C196.544 23.234 194.997 23.8527 193.953 25.09C192.909 26.2887 192.252 27.6807 191.981 29.266C191.711 30.8127 191.575 32.5333 191.575 34.428V48H186.123ZM237.608 48V19.232H243.118V48H237.608ZM237.434 13.896V7.4H243.234V13.896H237.434ZM262.597 48C261.011 48 259.677 47.7487 258.595 47.246C257.512 46.7047 256.7 45.912 256.159 44.868C255.617 43.824 255.347 42.5093 255.347 40.924V23.756H248.793V19.232H255.347V10.242H260.799V19.232H268.571V23.756H260.799V40.46C260.799 41.4267 261.031 42.142 261.495 42.606C261.959 43.07 262.674 43.302 263.641 43.302H269.673V48H262.597ZM286.695 48.812C284.027 48.812 281.687 48.232 279.677 47.072C277.705 45.8733 276.158 44.1527 275.037 41.91C273.954 39.6287 273.413 36.9027 273.413 33.732C273.413 30.6773 273.973 27.99 275.095 25.67C276.216 23.35 277.763 21.5713 279.735 20.334C281.745 19.058 283.988 18.42 286.463 18.42C289.285 18.42 291.702 19.1547 293.713 20.624C295.762 22.0547 297.251 24.046 298.179 26.598C299.145 29.1113 299.455 31.9147 299.107 35.008H278.865C278.942 37.212 279.348 39.01 280.083 40.402C280.856 41.7553 281.823 42.7413 282.983 43.36C284.143 43.94 285.438 44.23 286.869 44.23C288.918 44.23 290.523 43.6693 291.683 42.548C292.881 41.4267 293.771 40.1507 294.351 38.72L299.339 40.518C298.643 42.3353 297.676 43.8627 296.439 45.1C295.24 46.3373 293.809 47.2653 292.147 47.884C290.523 48.5027 288.705 48.812 286.695 48.812ZM293.597 30.658C293.597 28.9953 293.268 27.584 292.611 26.424C291.953 25.2253 291.083 24.3167 290.001 23.698C288.957 23.0793 287.777 22.77 286.463 22.77C284.529 22.77 282.847 23.4853 281.417 24.916C280.025 26.308 279.213 28.222 278.981 30.658H293.597ZM316.454 48.812C314.172 48.812 312.142 48.2127 310.364 47.014C308.585 45.7767 307.174 44.0173 306.13 41.736C305.124 39.416 304.622 36.7287 304.622 33.674C304.622 30.5807 305.124 27.8933 306.13 25.612C307.174 23.292 308.585 21.5133 310.364 20.276C312.142 19.0387 314.172 18.42 316.454 18.42C318.696 18.42 320.572 18.9227 322.08 19.928C323.588 20.9333 324.767 22.1707 325.618 23.64C325.618 22.944 325.618 22.1707 325.618 21.32C325.618 20.4307 325.618 19.348 325.618 18.072V7.4H331.07V48H325.734C325.734 47.1493 325.734 46.3953 325.734 45.738C325.734 45.042 325.734 44.346 325.734 43.65C324.883 45.0807 323.684 46.2987 322.138 47.304C320.63 48.3093 318.735 48.812 316.454 48.812ZM317.962 44.172C319.547 44.172 320.92 43.7853 322.08 43.012C323.278 42.2387 324.206 41.0593 324.864 39.474C325.56 37.8887 325.908 35.9553 325.908 33.674C325.908 31.354 325.56 29.4013 324.864 27.816C324.206 26.2307 323.278 25.0513 322.08 24.278C320.92 23.466 319.547 23.06 317.962 23.06C316.415 23.06 315.062 23.4273 313.902 24.162C312.78 24.858 311.891 25.9987 311.234 27.584C310.576 29.1307 310.248 31.1607 310.248 33.674C310.248 36.1873 310.576 38.2367 311.234 39.822C311.891 41.3687 312.78 42.49 313.902 43.186C315.062 43.8433 316.415 44.172 317.962 44.172ZM355.365 59.31V19.232H360.643C360.643 20.0827 360.643 20.856 360.643 21.552C360.643 22.2093 360.643 22.886 360.643 23.582C361.494 22.1513 362.693 20.9333 364.239 19.928C365.786 18.9227 367.7 18.42 369.981 18.42C372.263 18.42 374.293 19.0387 376.071 20.276C377.85 21.4747 379.242 23.234 380.247 25.554C381.253 27.8353 381.755 30.5227 381.755 33.616C381.755 36.6707 381.253 39.358 380.247 41.678C379.242 43.9593 377.85 45.7187 376.071 46.956C374.293 48.1933 372.263 48.812 369.981 48.812C367.7 48.812 365.805 48.3287 364.297 47.362C362.828 46.3567 361.668 45.1193 360.817 43.65V49.16V59.31H355.365ZM368.415 44.172C369.962 44.172 371.296 43.824 372.417 43.128C373.577 42.3933 374.486 41.2527 375.143 39.706C375.801 38.1207 376.129 36.0713 376.129 33.558C376.129 31.0447 375.801 29.0147 375.143 27.468C374.525 25.8827 373.635 24.7613 372.475 24.104C371.315 23.408 369.962 23.06 368.415 23.06C366.869 23.06 365.496 23.4467 364.297 24.22C363.099 24.9933 362.171 26.1727 361.513 27.758C360.856 29.3433 360.527 31.2767 360.527 33.558C360.527 35.8393 360.856 37.792 361.513 39.416C362.209 41.0013 363.137 42.2 364.297 43.012C365.496 43.7853 366.869 44.172 368.415 44.172ZM400.606 48.812C398.054 48.812 395.734 48.1547 393.646 46.84C391.558 45.5253 389.914 43.708 388.716 41.388C387.517 39.068 386.918 36.4967 386.918 33.674C386.918 30.774 387.498 28.164 388.658 25.844C389.856 23.524 391.5 21.7067 393.588 20.392C395.676 19.0773 398.015 18.42 400.606 18.42C403.196 18.42 405.536 19.0773 407.624 20.392C409.712 21.7067 411.336 23.524 412.496 25.844C413.656 28.164 414.236 30.774 414.236 33.674C414.236 36.5353 413.636 39.126 412.438 41.446C411.239 43.7273 409.596 45.5253 407.508 46.84C405.458 48.1547 403.158 48.812 400.606 48.812ZM400.606 44.114C402.191 44.114 403.583 43.7273 404.782 42.954C405.98 42.1807 406.908 41.0207 407.566 39.474C408.223 37.9273 408.552 36.0133 408.552 33.732C408.552 31.412 408.223 29.4593 407.566 27.874C406.908 26.2887 405.98 25.1093 404.782 24.336C403.583 23.524 402.191 23.118 400.606 23.118C398.982 23.118 397.57 23.524 396.372 24.336C395.173 25.1093 394.245 26.2887 393.588 27.874C392.93 29.4593 392.602 31.412 392.602 33.732C392.602 36.0133 392.93 37.9273 393.588 39.474C394.245 41.0207 395.173 42.1807 396.372 42.954C397.57 43.7273 398.982 44.114 400.606 44.114ZM431.383 48.812C429.334 48.812 427.42 48.5027 425.641 47.884C423.862 47.2653 422.354 46.3373 421.117 45.1C419.918 43.8627 419.126 42.3547 418.739 40.576L423.901 38.894C424.172 39.938 424.597 40.866 425.177 41.678C425.796 42.49 426.608 43.1473 427.613 43.65C428.657 44.114 429.933 44.346 431.441 44.346C433.413 44.346 434.921 43.998 435.965 43.302C437.048 42.606 437.589 41.62 437.589 40.344C437.589 39.2613 437.202 38.372 436.429 37.676C435.656 36.98 434.322 36.458 432.427 36.11L428.947 35.472C427.091 35.0853 425.506 34.602 424.191 34.022C422.915 33.4033 421.871 32.5333 421.059 31.412C420.286 30.2907 419.899 28.86 419.899 27.12C419.899 25.4573 420.382 23.9687 421.349 22.654C422.316 21.3007 423.63 20.2567 425.293 19.522C426.956 18.7873 428.773 18.42 430.745 18.42C434.032 18.42 436.642 19.116 438.575 20.508C440.508 21.9 441.804 23.64 442.461 25.728L437.647 27.584C437.376 26.772 436.97 26.018 436.429 25.322C435.888 24.626 435.134 24.0267 434.167 23.524C433.239 23.0213 432.079 22.77 430.687 22.77C428.87 22.77 427.478 23.1373 426.511 23.872C425.583 24.6067 425.119 25.5153 425.119 26.598C425.119 27.6033 425.448 28.396 426.105 28.976C426.801 29.5173 428.096 29.962 429.991 30.31L433.413 30.948C435.926 31.4893 438.169 32.4173 440.141 33.732C442.113 35.0467 443.099 37.096 443.099 39.88C443.099 41.6973 442.635 43.2827 441.707 44.636C440.779 45.9507 439.426 46.9753 437.647 47.71C435.907 48.4447 433.819 48.812 431.383 48.812ZM460.156 48.812C458.107 48.812 456.193 48.5027 454.414 47.884C452.636 47.2653 451.128 46.3373 449.89 45.1C448.692 43.8627 447.899 42.3547 447.512 40.576L452.674 38.894C452.945 39.938 453.37 40.866 453.95 41.678C454.569 42.49 455.381 43.1473 456.386 43.65C457.43 44.114 458.706 44.346 460.214 44.346C462.186 44.346 463.694 43.998 464.738 43.302C465.821 42.606 466.362 41.62 466.362 40.344C466.362 39.2613 465.976 38.372 465.202 37.676C464.429 36.98 463.095 36.458 461.2 36.11L457.72 35.472C455.864 35.0853 454.279 34.602 452.964 34.022C451.688 33.4033 450.644 32.5333 449.832 31.412C449.059 30.2907 448.672 28.86 448.672 27.12C448.672 25.4573 449.156 23.9687 450.122 22.654C451.089 21.3007 452.404 20.2567 454.066 19.522C455.729 18.7873 457.546 18.42 459.518 18.42C462.805 18.42 465.415 19.116 467.348 20.508C469.282 21.9 470.577 23.64 471.234 25.728L466.42 27.584C466.15 26.772 465.744 26.018 465.202 25.322C464.661 24.626 463.907 24.0267 462.94 23.524C462.012 23.0213 460.852 22.77 459.46 22.77C457.643 22.77 456.251 23.1373 455.284 23.872C454.356 24.6067 453.892 25.5153 453.892 26.598C453.892 27.6033 454.221 28.396 454.878 28.976C455.574 29.5173 456.87 29.962 458.764 30.31L462.186 30.948C464.7 31.4893 466.942 32.4173 468.914 33.732C470.886 35.0467 471.872 37.096 471.872 39.88C471.872 41.6973 471.408 43.2827 470.48 44.636C469.552 45.9507 468.199 46.9753 466.42 47.71C464.68 48.4447 462.592 48.812 460.156 48.812ZM478.954 48V19.232H484.464V48H478.954ZM478.78 13.896V7.4H484.58V13.896H478.78ZM508.524 48.812C506.243 48.812 504.329 48.3093 502.782 47.304C501.236 46.2987 500.037 45.0807 499.186 43.65C499.186 44.3073 499.186 44.984 499.186 45.68C499.186 46.3373 499.186 47.1107 499.186 48H493.908V7.4H499.36V18.072C499.36 19.348 499.36 20.4113 499.36 21.262C499.36 22.1127 499.36 22.886 499.36 23.582C500.172 22.1513 501.332 20.9333 502.84 19.928C504.348 18.9227 506.243 18.42 508.524 18.42C510.806 18.42 512.836 19.0387 514.614 20.276C516.393 21.4747 517.785 23.234 518.79 25.554C519.796 27.8353 520.298 30.5227 520.298 33.616C520.298 36.6707 519.796 39.358 518.79 41.678C517.785 43.9593 516.393 45.7187 514.614 46.956C512.836 48.1933 510.806 48.812 508.524 48.812ZM506.958 44.172C508.505 44.172 509.839 43.824 510.96 43.128C512.12 42.3933 513.029 41.2527 513.686 39.706C514.344 38.1207 514.672 36.0713 514.672 33.558C514.672 31.0447 514.344 29.0147 513.686 27.468C513.068 25.8827 512.178 24.7613 511.018 24.104C509.858 23.408 508.505 23.06 506.958 23.06C505.412 23.06 504.039 23.4467 502.84 24.22C501.642 24.9933 500.714 26.1727 500.056 27.758C499.399 29.3433 499.07 31.2767 499.07 33.558C499.07 35.8393 499.399 37.792 500.056 39.416C500.752 41.0013 501.68 42.2 502.84 43.012C504.039 43.7853 505.412 44.172 506.958 44.172ZM527.665 48V19.232H533.175V48H527.665ZM527.491 13.896V7.4H533.291V13.896H527.491ZM542.619 48V7.4H548.071V48H542.619ZM557.458 48V19.232H562.968V48H557.458ZM557.284 13.896V7.4H563.084V13.896H557.284ZM582.446 48C580.861 48 579.527 47.7487 578.444 47.246C577.362 46.7047 576.55 45.912 576.008 44.868C575.467 43.824 575.196 42.5093 575.196 40.924V23.756H568.642V19.232H575.196V10.242H580.648V19.232H588.42V23.756H580.648V40.46C580.648 41.4267 580.88 42.142 581.344 42.606C581.808 43.07 582.524 43.302 583.49 43.302H589.522V48H582.446ZM595.634 48V19.232H601.144V48H595.634ZM595.46 13.896V7.4H601.26V13.896H595.46ZM621.724 48.812C619.056 48.812 616.717 48.232 614.706 47.072C612.734 45.8733 611.187 44.1527 610.066 41.91C608.983 39.6287 608.442 36.9027 608.442 33.732C608.442 30.6773 609.003 27.99 610.124 25.67C611.245 23.35 612.792 21.5713 614.764 20.334C616.775 19.058 619.017 18.42 621.492 18.42C624.315 18.42 626.731 19.1547 628.742 20.624C630.791 22.0547 632.28 24.046 633.208 26.598C634.175 29.1113 634.484 31.9147 634.136 35.008H613.894C613.971 37.212 614.377 39.01 615.112 40.402C615.885 41.7553 616.852 42.7413 618.012 43.36C619.172 43.94 620.467 44.23 621.898 44.23C623.947 44.23 625.552 43.6693 626.712 42.548C627.911 41.4267 628.8 40.1507 629.38 38.72L634.368 40.518C633.672 42.3353 632.705 43.8627 631.468 45.1C630.269 46.3373 628.839 47.2653 627.176 47.884C625.552 48.5027 623.735 48.812 621.724 48.812ZM628.626 30.658C628.626 28.9953 628.297 27.584 627.64 26.424C626.983 25.2253 626.113 24.3167 625.03 23.698C623.986 23.0793 622.807 22.77 621.492 22.77C619.559 22.77 617.877 23.4853 616.446 24.916C615.054 26.308 614.242 28.222 614.01 30.658H628.626ZM651.715 48.812C649.666 48.812 647.752 48.5027 645.973 47.884C644.194 47.2653 642.686 46.3373 641.449 45.1C640.25 43.8627 639.458 42.3547 639.071 40.576L644.233 38.894C644.504 39.938 644.929 40.866 645.509 41.678C646.128 42.49 646.94 43.1473 647.945 43.65C648.989 44.114 650.265 44.346 651.773 44.346C653.745 44.346 655.253 43.998 656.297 43.302C657.38 42.606 657.921 41.62 657.921 40.344C657.921 39.2613 657.534 38.372 656.761 37.676C655.988 36.98 654.654 36.458 652.759 36.11L649.279 35.472C647.423 35.0853 645.838 34.602 644.523 34.022C643.247 33.4033 642.203 32.5333 641.391 31.412C640.618 30.2907 640.231 28.86 640.231 27.12C640.231 25.4573 640.714 23.9687 641.681 22.654C642.648 21.3007 643.962 20.2567 645.625 19.522C647.288 18.7873 649.105 18.42 651.077 18.42C654.364 18.42 656.974 19.116 658.907 20.508C660.84 21.9 662.136 23.64 662.793 25.728L657.979 27.584C657.708 26.772 657.302 26.018 656.761 25.322C656.22 24.626 655.466 24.0267 654.499 23.524C653.571 23.0213 652.411 22.77 651.019 22.77C649.202 22.77 647.81 23.1373 646.843 23.872C645.915 24.6067 645.451 25.5153 645.451 26.598C645.451 27.6033 645.78 28.396 646.437 28.976C647.133 29.5173 648.428 29.962 650.323 30.31L653.745 30.948C656.258 31.4893 658.501 32.4173 660.473 33.732C662.445 35.0467 663.431 37.096 663.431 39.88C663.431 41.6973 662.967 43.2827 662.039 44.636C661.111 45.9507 659.758 46.9753 657.979 47.71C656.239 48.4447 654.151 48.812 651.715 48.812Z" fill="black"/>
<path d="M36.4039 106V89.2H42.2839C43.8679 89.2 45.2759 89.544 46.5079 90.232C47.7399 90.92 48.6919 91.896 49.3639 93.16C50.0519 94.424 50.3959 95.888 50.3959 97.552C50.3959 99.296 50.0599 100.808 49.3879 102.088C48.7159 103.352 47.7559 104.32 46.5079 104.992C45.2759 105.664 43.8279 106 42.1639 106H36.4039ZM41.8039 103.792C43.1639 103.792 44.2919 103.56 45.1879 103.096C46.0999 102.616 46.7719 101.92 47.2039 101.008C47.6519 100.08 47.8759 98.928 47.8759 97.552C47.8759 96.304 47.6519 95.224 47.2039 94.312C46.7719 93.384 46.1159 92.672 45.2359 92.176C44.3559 91.664 43.2679 91.408 41.9719 91.408H38.8039V103.792H41.8039ZM53.5963 106V94.096H55.8763V106H53.5963ZM53.5243 91.888V89.2H55.9243V91.888H53.5243ZM63.8884 106.336C63.0404 106.336 62.2484 106.208 61.5124 105.952C60.7764 105.696 60.1524 105.312 59.6404 104.8C59.1444 104.288 58.8164 103.664 58.6564 102.928L60.7924 102.232C60.9044 102.664 61.0804 103.048 61.3204 103.384C61.5764 103.72 61.9124 103.992 62.3284 104.2C62.7604 104.392 63.2884 104.488 63.9124 104.488C64.7284 104.488 65.3524 104.344 65.7844 104.056C66.2324 103.768 66.4564 103.36 66.4564 102.832C66.4564 102.384 66.2964 102.016 65.9764 101.728C65.6564 101.44 65.1044 101.224 64.3204 101.08L62.8804 100.816C62.1124 100.656 61.4564 100.456 60.9124 100.216C60.3844 99.96 59.9524 99.6 59.6164 99.136C59.2964 98.672 59.1364 98.08 59.1364 97.36C59.1364 96.672 59.3364 96.056 59.7364 95.512C60.1364 94.952 60.6804 94.52 61.3684 94.216C62.0564 93.912 62.8084 93.76 63.6244 93.76C64.9844 93.76 66.0644 94.048 66.8644 94.624C67.6644 95.2 68.2004 95.92 68.4724 96.784L66.4804 97.552C66.3684 97.216 66.2004 96.904 65.9764 96.616C65.7524 96.328 65.4404 96.08 65.0404 95.872C64.6564 95.664 64.1764 95.56 63.6004 95.56C62.8484 95.56 62.2724 95.712 61.8724 96.016C61.4884 96.32 61.2964 96.696 61.2964 97.144C61.2964 97.56 61.4324 97.888 61.7044 98.128C61.9924 98.352 62.5284 98.536 63.3124 98.68L64.7284 98.944C65.7684 99.168 66.6964 99.552 67.5124 100.096C68.3284 100.64 68.7364 101.488 68.7364 102.64C68.7364 103.392 68.5444 104.048 68.1604 104.608C67.7764 105.152 67.2164 105.576 66.4804 105.88C65.7604 106.184 64.8964 106.336 63.8884 106.336ZM76.5627 106.336C75.4107 106.336 74.3947 106.08 73.5147 105.568C72.6507 105.056 71.9787 104.328 71.4987 103.384C71.0187 102.424 70.7787 101.312 70.7787 100.048C70.7787 98.832 71.0267 97.744 71.5227 96.784C72.0187 95.824 72.6987 95.08 73.5627 94.552C74.4427 94.024 75.4347 93.76 76.5387 93.76C77.4027 93.76 78.1787 93.912 78.8667 94.216C79.5547 94.52 80.1227 94.936 80.5707 95.464C81.0187 95.992 81.3467 96.576 81.5547 97.216L79.4427 97.936C79.2187 97.28 78.8667 96.744 78.3867 96.328C77.9067 95.912 77.2827 95.704 76.5147 95.704C75.8907 95.704 75.3227 95.872 74.8107 96.208C74.2987 96.528 73.8907 97.016 73.5867 97.672C73.2827 98.328 73.1307 99.12 73.1307 100.048C73.1307 100.992 73.2747 101.792 73.5627 102.448C73.8667 103.104 74.2747 103.592 74.7867 103.912C75.2987 104.232 75.8827 104.392 76.5387 104.392C77.4027 104.392 78.0827 104.152 78.5787 103.672C79.0907 103.192 79.4667 102.576 79.7067 101.824L81.8427 102.568C81.4267 103.72 80.7627 104.64 79.8507 105.328C78.9547 106 77.8587 106.336 76.5627 106.336ZM89.1921 106.336C88.1361 106.336 87.1761 106.064 86.3121 105.52C85.4481 104.976 84.7681 104.224 84.2721 103.264C83.7761 102.304 83.5281 101.24 83.5281 100.072C83.5281 98.872 83.7681 97.792 84.2481 96.832C84.7441 95.872 85.4241 95.12 86.2881 94.576C87.1521 94.032 88.1201 93.76 89.1921 93.76C90.2641 93.76 91.2321 94.032 92.0961 94.576C92.9601 95.12 93.6321 95.872 94.1121 96.832C94.5921 97.792 94.8321 98.872 94.8321 100.072C94.8321 101.256 94.5841 102.328 94.0881 103.288C93.5921 104.232 92.9121 104.976 92.0481 105.52C91.2001 106.064 90.2481 106.336 89.1921 106.336ZM89.1921 104.392C89.8481 104.392 90.4241 104.232 90.9201 103.912C91.4161 103.592 91.8001 103.112 92.0721 102.472C92.3441 101.832 92.4801 101.04 92.4801 100.096C92.4801 99.136 92.3441 98.328 92.0721 97.672C91.8001 97.016 91.4161 96.528 90.9201 96.208C90.4241 95.872 89.8481 95.704 89.1921 95.704C88.5201 95.704 87.9361 95.872 87.4401 96.208C86.9441 96.528 86.5601 97.016 86.2881 97.672C86.0161 98.328 85.8801 99.136 85.8801 100.096C85.8801 101.04 86.0161 101.832 86.2881 102.472C86.5601 103.112 86.9441 103.592 87.4401 103.912C87.9361 104.232 88.5201 104.392 89.1921 104.392ZM100.323 106L96.2668 94.096H98.6428L100.707 100.624C100.995 101.52 101.339 102.632 101.739 103.96C101.851 103.624 102.195 102.512 102.771 100.624L104.739 94.096H107.043L103.131 106H100.323ZM114.127 106.336C113.023 106.336 112.055 106.096 111.223 105.616C110.407 105.12 109.767 104.408 109.303 103.48C108.855 102.536 108.631 101.408 108.631 100.096C108.631 98.832 108.863 97.72 109.327 96.76C109.791 95.8 110.431 95.064 111.247 94.552C112.079 94.024 113.007 93.76 114.031 93.76C115.199 93.76 116.199 94.064 117.031 94.672C117.879 95.264 118.495 96.088 118.879 97.144C119.279 98.184 119.407 99.344 119.263 100.624H110.887C110.919 101.536 111.087 102.28 111.391 102.856C111.711 103.416 112.111 103.824 112.591 104.08C113.071 104.32 113.607 104.44 114.199 104.44C115.047 104.44 115.711 104.208 116.191 103.744C116.687 103.28 117.055 102.752 117.295 102.16L119.359 102.904C119.071 103.656 118.671 104.288 118.159 104.8C117.663 105.312 117.071 105.696 116.383 105.952C115.711 106.208 114.959 106.336 114.127 106.336ZM116.983 98.824C116.983 98.136 116.847 97.552 116.575 97.072C116.303 96.576 115.943 96.2 115.495 95.944C115.063 95.688 114.575 95.56 114.031 95.56C113.231 95.56 112.535 95.856 111.943 96.448C111.367 97.024 111.031 97.816 110.935 98.824H116.983ZM122.433 106V94.096H124.641C124.641 94.368 124.641 94.624 124.641 94.864C124.641 95.088 124.641 95.296 124.641 95.488C124.641 95.68 124.641 95.864 124.641 96.04C124.641 96.216 124.641 96.408 124.641 96.616C124.929 95.96 125.401 95.352 126.057 94.792C126.713 94.216 127.561 93.928 128.601 93.928C129.049 93.928 129.417 93.968 129.705 94.048V96.352C129.193 96.288 128.769 96.256 128.433 96.256C127.137 96.256 126.185 96.632 125.577 97.384C124.985 98.12 124.689 99.208 124.689 100.648V106H122.433ZM141.327 106C140.671 106 140.119 105.896 139.671 105.688C139.223 105.464 138.887 105.136 138.663 104.704C138.439 104.272 138.327 103.728 138.327 103.072V95.968H135.615V94.096H138.327V90.376H140.583V94.096H143.799V95.968H140.583V102.88C140.583 103.28 140.679 103.576 140.871 103.768C141.063 103.96 141.359 104.056 141.759 104.056H144.255V106H141.327ZM146.808 106V89.2H149.064V93.616C149.064 93.904 149.064 94.176 149.064 94.432C149.064 94.672 149.064 94.896 149.064 95.104C149.064 95.28 149.064 95.448 149.064 95.608C149.064 95.768 149.064 95.928 149.064 96.088C149.176 95.8 149.376 95.48 149.664 95.128C149.952 94.776 150.376 94.464 150.936 94.192C151.512 93.904 152.208 93.76 153.024 93.76C153.904 93.76 154.64 93.944 155.232 94.312C155.84 94.68 156.288 95.2 156.576 95.872C156.864 96.528 157.008 97.304 157.008 98.2V106H154.752V98.728C154.752 97.704 154.528 96.952 154.08 96.472C153.648 95.976 153.032 95.728 152.232 95.728C151.288 95.728 150.576 96.016 150.096 96.592C149.632 97.152 149.344 97.792 149.232 98.512C149.12 99.216 149.064 100 149.064 100.864V106H146.808ZM165.385 106.336C164.281 106.336 163.313 106.096 162.481 105.616C161.665 105.12 161.025 104.408 160.561 103.48C160.113 102.536 159.889 101.408 159.889 100.096C159.889 98.832 160.121 97.72 160.585 96.76C161.049 95.8 161.689 95.064 162.505 94.552C163.337 94.024 164.265 93.76 165.289 93.76C166.457 93.76 167.457 94.064 168.289 94.672C169.137 95.264 169.753 96.088 170.137 97.144C170.537 98.184 170.665 99.344 170.521 100.624H162.145C162.177 101.536 162.345 102.28 162.649 102.856C162.969 103.416 163.369 103.824 163.849 104.08C164.329 104.32 164.865 104.44 165.457 104.44C166.305 104.44 166.969 104.208 167.449 103.744C167.945 103.28 168.313 102.752 168.553 102.16L170.617 102.904C170.329 103.656 169.929 104.288 169.417 104.8C168.921 105.312 168.329 105.696 167.641 105.952C166.969 106.208 166.217 106.336 165.385 106.336ZM168.241 98.824C168.241 98.136 168.105 97.552 167.833 97.072C167.561 96.576 167.201 96.2 166.753 95.944C166.321 95.688 165.833 95.56 165.289 95.56C164.489 95.56 163.793 95.856 163.201 96.448C162.625 97.024 162.289 97.816 162.193 98.824H168.241ZM185.856 106.336C184.912 106.336 184.12 106.128 183.48 105.712C182.84 105.296 182.344 104.792 181.992 104.2C181.992 104.472 181.992 104.752 181.992 105.04C181.992 105.312 181.992 105.632 181.992 106H179.808V89.2H182.064V93.616C182.064 94.144 182.064 94.584 182.064 94.936C182.064 95.288 182.064 95.608 182.064 95.896C182.4 95.304 182.88 94.8 183.504 94.384C184.128 93.968 184.912 93.76 185.856 93.76C186.8 93.76 187.64 94.016 188.376 94.528C189.112 95.024 189.688 95.752 190.104 96.712C190.52 97.656 190.728 98.768 190.728 100.048C190.728 101.312 190.52 102.424 190.104 103.384C189.688 104.328 189.112 105.056 188.376 105.568C187.64 106.08 186.8 106.336 185.856 106.336ZM185.208 104.416C185.848 104.416 186.4 104.272 186.864 103.984C187.344 103.68 187.72 103.208 187.992 102.568C188.264 101.912 188.4 101.064 188.4 100.024C188.4 98.984 188.264 98.144 187.992 97.504C187.736 96.848 187.368 96.384 186.888 96.112C186.408 95.824 185.848 95.68 185.208 95.68C184.568 95.68 184 95.84 183.504 96.16C183.008 96.48 182.624 96.968 182.352 97.624C182.08 98.28 181.944 99.08 181.944 100.024C181.944 100.968 182.08 101.776 182.352 102.448C182.64 103.104 183.024 103.6 183.504 103.936C184 104.256 184.568 104.416 185.208 104.416ZM198.408 106.336C197.304 106.336 196.336 106.096 195.504 105.616C194.688 105.12 194.048 104.408 193.584 103.48C193.136 102.536 192.912 101.408 192.912 100.096C192.912 98.832 193.144 97.72 193.608 96.76C194.072 95.8 194.712 95.064 195.528 94.552C196.36 94.024 197.288 93.76 198.312 93.76C199.48 93.76 200.48 94.064 201.312 94.672C202.16 95.264 202.776 96.088 203.16 97.144C203.56 98.184 203.688 99.344 203.544 100.624H195.168C195.2 101.536 195.368 102.28 195.672 102.856C195.992 103.416 196.392 103.824 196.872 104.08C197.352 104.32 197.888 104.44 198.48 104.44C199.328 104.44 199.992 104.208 200.472 103.744C200.968 103.28 201.336 102.752 201.576 102.16L203.64 102.904C203.352 103.656 202.952 104.288 202.44 104.8C201.944 105.312 201.352 105.696 200.664 105.952C199.992 106.208 199.24 106.336 198.408 106.336ZM201.264 98.824C201.264 98.136 201.128 97.552 200.856 97.072C200.584 96.576 200.224 96.2 199.776 95.944C199.344 95.688 198.856 95.56 198.312 95.56C197.512 95.56 196.816 95.856 196.224 96.448C195.648 97.024 195.312 97.816 195.216 98.824H201.264ZM210.818 106.336C209.97 106.336 209.178 106.208 208.442 105.952C207.706 105.696 207.082 105.312 206.57 104.8C206.074 104.288 205.746 103.664 205.586 102.928L207.722 102.232C207.834 102.664 208.01 103.048 208.25 103.384C208.506 103.72 208.842 103.992 209.258 104.2C209.69 104.392 210.218 104.488 210.842 104.488C211.658 104.488 212.282 104.344 212.714 104.056C213.162 103.768 213.386 103.36 213.386 102.832C213.386 102.384 213.226 102.016 212.906 101.728C212.586 101.44 212.034 101.224 211.25 101.08L209.81 100.816C209.042 100.656 208.386 100.456 207.842 100.216C207.314 99.96 206.882 99.6 206.546 99.136C206.226 98.672 206.066 98.08 206.066 97.36C206.066 96.672 206.266 96.056 206.666 95.512C207.066 94.952 207.61 94.52 208.298 94.216C208.986 93.912 209.738 93.76 210.554 93.76C211.914 93.76 212.994 94.048 213.794 94.624C214.594 95.2 215.13 95.92 215.402 96.784L213.41 97.552C213.298 97.216 213.13 96.904 212.906 96.616C212.682 96.328 212.37 96.08 211.97 95.872C211.586 95.664 211.106 95.56 210.53 95.56C209.778 95.56 209.202 95.712 208.802 96.016C208.418 96.32 208.226 96.696 208.226 97.144C208.226 97.56 208.362 97.888 208.634 98.128C208.922 98.352 209.458 98.536 210.242 98.68L211.658 98.944C212.698 99.168 213.626 99.552 214.442 100.096C215.258 100.64 215.666 101.488 215.666 102.64C215.666 103.392 215.474 104.048 215.09 104.608C214.706 105.152 214.146 105.576 213.41 105.88C212.69 106.184 211.826 106.336 210.818 106.336ZM222.632 106C221.976 106 221.424 105.896 220.976 105.688C220.528 105.464 220.192 105.136 219.968 104.704C219.744 104.272 219.632 103.728 219.632 103.072V95.968H216.92V94.096H219.632V90.376H221.888V94.096H225.104V95.968H221.888V102.88C221.888 103.28 221.984 103.576 222.176 103.768C222.368 103.96 222.664 104.056 223.064 104.056H225.56V106H222.632ZM227.777 99.712V97.384H234.689V99.712H227.777ZM242.388 106.336C241.54 106.336 240.748 106.208 240.012 105.952C239.276 105.696 238.652 105.312 238.14 104.8C237.644 104.288 237.316 103.664 237.156 102.928L239.292 102.232C239.404 102.664 239.58 103.048 239.82 103.384C240.076 103.72 240.412 103.992 240.828 104.2C241.26 104.392 241.788 104.488 242.412 104.488C243.228 104.488 243.852 104.344 244.284 104.056C244.732 103.768 244.956 103.36 244.956 102.832C244.956 102.384 244.796 102.016 244.476 101.728C244.156 101.44 243.604 101.224 242.82 101.08L241.38 100.816C240.612 100.656 239.956 100.456 239.412 100.216C238.884 99.96 238.452 99.6 238.116 99.136C237.796 98.672 237.636 98.08 237.636 97.36C237.636 96.672 237.836 96.056 238.236 95.512C238.636 94.952 239.18 94.52 239.868 94.216C240.556 93.912 241.308 93.76 242.124 93.76C243.484 93.76 244.564 94.048 245.364 94.624C246.164 95.2 246.7 95.92 246.972 96.784L244.98 97.552C244.868 97.216 244.7 96.904 244.476 96.616C244.252 96.328 243.94 96.08 243.54 95.872C243.156 95.664 242.676 95.56 242.1 95.56C241.348 95.56 240.772 95.712 240.372 96.016C239.988 96.32 239.796 96.696 239.796 97.144C239.796 97.56 239.932 97.888 240.204 98.128C240.492 98.352 241.028 98.536 241.812 98.68L243.228 98.944C244.268 99.168 245.196 99.552 246.012 100.096C246.828 100.64 247.236 101.488 247.236 102.64C247.236 103.392 247.044 104.048 246.66 104.608C246.276 105.152 245.716 105.576 244.98 105.88C244.26 106.184 243.396 106.336 242.388 106.336ZM254.799 106.336C253.695 106.336 252.727 106.096 251.895 105.616C251.079 105.12 250.439 104.408 249.975 103.48C249.527 102.536 249.303 101.408 249.303 100.096C249.303 98.832 249.535 97.72 249.999 96.76C250.463 95.8 251.103 95.064 251.919 94.552C252.751 94.024 253.679 93.76 254.703 93.76C255.871 93.76 256.871 94.064 257.703 94.672C258.551 95.264 259.167 96.088 259.551 97.144C259.951 98.184 260.079 99.344 259.935 100.624H251.559C251.591 101.536 251.759 102.28 252.063 102.856C252.383 103.416 252.783 103.824 253.263 104.08C253.743 104.32 254.279 104.44 254.871 104.44C255.719 104.44 256.383 104.208 256.863 103.744C257.359 103.28 257.727 102.752 257.967 102.16L260.031 102.904C259.743 103.656 259.343 104.288 258.831 104.8C258.335 105.312 257.743 105.696 257.055 105.952C256.383 106.208 255.631 106.336 254.799 106.336ZM257.655 98.824C257.655 98.136 257.519 97.552 257.247 97.072C256.975 96.576 256.615 96.2 256.167 95.944C255.735 95.688 255.247 95.56 254.703 95.56C253.903 95.56 253.207 95.856 252.615 96.448C252.039 97.024 251.703 97.816 251.607 98.824H257.655ZM263.105 106V89.2H265.361V106H263.105ZM269.269 106V89.2H271.525V106H269.269ZM275.409 106V94.096H277.689V106H275.409ZM275.337 91.888V89.2H277.737V91.888H275.337ZM281.597 106V94.096H283.781V95.176C283.781 95.32 283.781 95.472 283.781 95.632C283.781 95.776 283.781 95.928 283.781 96.088C283.893 95.816 284.101 95.504 284.405 95.152C284.725 94.784 285.157 94.464 285.701 94.192C286.261 93.904 286.917 93.76 287.669 93.76C288.613 93.76 289.389 93.944 289.997 94.312C290.621 94.68 291.077 95.192 291.365 95.848C291.653 96.504 291.797 97.288 291.797 98.2V106H289.541V98.728C289.541 97.704 289.317 96.952 288.869 96.472C288.437 95.976 287.821 95.728 287.021 95.728C286.077 95.728 285.365 96.016 284.885 96.592C284.421 97.152 284.133 97.792 284.021 98.512C283.909 99.216 283.853 100 283.853 100.864V106H281.597ZM297.582 110.68C296.478 110.68 295.67 110.464 295.158 110.032C294.662 109.616 294.414 109.032 294.414 108.28C294.414 107.736 294.566 107.248 294.87 106.816C295.174 106.384 295.534 106.04 295.95 105.784C295.598 105.576 295.334 105.32 295.158 105.016C294.982 104.696 294.894 104.304 294.894 103.84C294.894 103.312 295.062 102.848 295.398 102.448C295.734 102.032 296.158 101.656 296.67 101.32C296.286 100.984 295.966 100.544 295.71 100C295.47 99.456 295.35 98.856 295.35 98.2C295.35 97.368 295.558 96.616 295.974 95.944C296.39 95.272 296.958 94.744 297.678 94.36C298.414 93.96 299.238 93.76 300.15 93.76C301.158 93.76 302.006 93.976 302.694 94.408C303.382 94.824 303.894 95.312 304.23 95.872C304.31 95.504 304.422 95.192 304.566 94.936C304.726 94.664 304.934 94.456 305.19 94.312C305.462 94.168 305.798 94.096 306.198 94.096H307.422V95.968H306.438C306.086 95.968 305.806 96.008 305.598 96.088C305.406 96.168 305.254 96.328 305.142 96.568C305.046 96.792 304.982 97.128 304.95 97.576L304.902 98.152C304.838 99.048 304.598 99.832 304.182 100.504C303.766 101.16 303.214 101.672 302.526 102.04C301.838 102.392 301.054 102.568 300.174 102.568C299.23 102.568 298.478 102.416 297.918 102.112C297.598 102.24 297.342 102.408 297.15 102.616C296.958 102.824 296.862 103.032 296.862 103.24C296.862 103.464 296.942 103.648 297.102 103.792C297.278 103.936 297.55 104.008 297.918 104.008H303.078C303.846 104.008 304.518 104.152 305.094 104.44C305.67 104.712 306.118 105.104 306.438 105.616C306.758 106.112 306.918 106.688 306.918 107.344C306.918 108.416 306.558 109.24 305.838 109.816C305.118 110.392 304.214 110.68 303.126 110.68H297.582ZM302.838 108.76C303.382 108.76 303.814 108.656 304.134 108.448C304.47 108.256 304.638 107.896 304.638 107.368C304.638 106.856 304.478 106.496 304.158 106.288C303.838 106.096 303.398 106 302.838 106H297.27C297.046 106.144 296.846 106.344 296.67 106.6C296.494 106.872 296.406 107.176 296.406 107.512C296.406 107.976 296.55 108.296 296.838 108.472C297.142 108.664 297.598 108.76 298.206 108.76H302.838ZM300.174 100.792C300.958 100.792 301.582 100.56 302.046 100.096C302.51 99.616 302.742 98.976 302.742 98.176C302.742 97.664 302.638 97.208 302.43 96.808C302.222 96.408 301.918 96.096 301.518 95.872C301.134 95.648 300.686 95.536 300.174 95.536C299.662 95.536 299.206 95.648 298.806 95.872C298.422 96.096 298.126 96.408 297.918 96.808C297.71 97.208 297.606 97.664 297.606 98.176C297.606 98.976 297.838 99.616 298.302 100.096C298.766 100.56 299.39 100.792 300.174 100.792ZM315.886 110.68V94.096H318.07C318.07 94.448 318.07 94.768 318.07 95.056C318.07 95.328 318.07 95.608 318.07 95.896C318.422 95.304 318.918 94.8 319.558 94.384C320.198 93.968 320.99 93.76 321.934 93.76C322.878 93.76 323.718 94.016 324.454 94.528C325.19 95.024 325.766 95.752 326.182 96.712C326.598 97.656 326.806 98.768 326.806 100.048C326.806 101.312 326.598 102.424 326.182 103.384C325.766 104.328 325.19 105.056 324.454 105.568C323.718 106.08 322.878 106.336 321.934 106.336C320.99 106.336 320.206 106.136 319.582 105.736C318.974 105.32 318.494 104.808 318.142 104.2V106.48V110.68H315.886ZM321.286 104.416C321.926 104.416 322.478 104.272 322.942 103.984C323.422 103.68 323.798 103.208 324.07 102.568C324.342 101.912 324.478 101.064 324.478 100.024C324.478 98.984 324.342 98.144 324.07 97.504C323.814 96.848 323.446 96.384 322.966 96.112C322.486 95.824 321.926 95.68 321.286 95.68C320.646 95.68 320.078 95.84 319.582 96.16C319.086 96.48 318.702 96.968 318.43 97.624C318.158 98.28 318.022 99.08 318.022 100.024C318.022 100.968 318.158 101.776 318.43 102.448C318.718 103.104 319.102 103.6 319.582 103.936C320.078 104.256 320.646 104.416 321.286 104.416ZM329.878 106V94.096H332.086C332.086 94.368 332.086 94.624 332.086 94.864C332.086 95.088 332.086 95.296 332.086 95.488C332.086 95.68 332.086 95.864 332.086 96.04C332.086 96.216 332.086 96.408 332.086 96.616C332.374 95.96 332.846 95.352 333.502 94.792C334.158 94.216 335.006 93.928 336.046 93.928C336.494 93.928 336.862 93.968 337.15 94.048V96.352C336.638 96.288 336.214 96.256 335.878 96.256C334.582 96.256 333.63 96.632 333.022 97.384C332.43 98.12 332.134 99.208 332.134 100.648V106H329.878ZM344.051 106.336C342.995 106.336 342.035 106.064 341.171 105.52C340.307 104.976 339.627 104.224 339.131 103.264C338.635 102.304 338.387 101.24 338.387 100.072C338.387 98.872 338.627 97.792 339.107 96.832C339.603 95.872 340.283 95.12 341.147 94.576C342.011 94.032 342.979 93.76 344.051 93.76C345.123 93.76 346.091 94.032 346.955 94.576C347.819 95.12 348.491 95.872 348.971 96.832C349.451 97.792 349.691 98.872 349.691 100.072C349.691 101.256 349.443 102.328 348.947 103.288C348.451 104.232 347.771 104.976 346.907 105.52C346.059 106.064 345.107 106.336 344.051 106.336ZM344.051 104.392C344.707 104.392 345.283 104.232 345.779 103.912C346.275 103.592 346.659 103.112 346.931 102.472C347.203 101.832 347.339 101.04 347.339 100.096C347.339 99.136 347.203 98.328 346.931 97.672C346.659 97.016 346.275 96.528 345.779 96.208C345.283 95.872 344.707 95.704 344.051 95.704C343.379 95.704 342.795 95.872 342.299 96.208C341.803 96.528 341.419 97.016 341.147 97.672C340.875 98.328 340.739 99.136 340.739 100.096C340.739 101.04 340.875 101.832 341.147 102.472C341.419 103.112 341.803 103.592 342.299 103.912C342.795 104.232 343.379 104.392 344.051 104.392ZM356.691 106.336C355.747 106.336 354.907 106.088 354.171 105.592C353.435 105.08 352.851 104.352 352.419 103.408C352.003 102.448 351.795 101.336 351.795 100.072C351.795 98.792 352.003 97.68 352.419 96.736C352.851 95.776 353.435 95.04 354.171 94.528C354.907 94.016 355.747 93.76 356.691 93.76C357.619 93.76 358.395 93.968 359.019 94.384C359.643 94.8 360.131 95.312 360.483 95.92C360.483 95.632 360.483 95.312 360.483 94.96C360.483 94.592 360.483 94.144 360.483 93.616V89.2H362.739V106H360.531C360.531 105.648 360.531 105.336 360.531 105.064C360.531 104.776 360.531 104.488 360.531 104.2C360.179 104.792 359.683 105.296 359.043 105.712C358.419 106.128 357.635 106.336 356.691 106.336ZM357.315 104.416C357.971 104.416 358.539 104.256 359.019 103.936C359.515 103.616 359.899 103.128 360.171 102.472C360.459 101.816 360.603 101.016 360.603 100.072C360.603 99.112 360.459 98.304 360.171 97.648C359.899 96.992 359.515 96.504 359.019 96.184C358.539 95.848 357.971 95.68 357.315 95.68C356.675 95.68 356.115 95.832 355.635 96.136C355.171 96.424 354.803 96.896 354.531 97.552C354.259 98.192 354.123 99.032 354.123 100.072C354.123 101.112 354.259 101.96 354.531 102.616C354.803 103.256 355.171 103.72 355.635 104.008C356.115 104.28 356.675 104.416 357.315 104.416ZM370.419 106.336C369.539 106.336 368.803 106.152 368.211 105.784C367.635 105.416 367.203 104.904 366.915 104.248C366.643 103.576 366.507 102.792 366.507 101.896V94.096H368.763V101.368C368.763 102.392 368.971 103.152 369.387 103.648C369.819 104.128 370.427 104.368 371.211 104.368C372.507 104.368 373.347 103.872 373.731 102.88C374.131 101.888 374.331 100.688 374.331 99.28V94.096H376.587V106H374.379C374.379 105.584 374.379 105.224 374.379 104.92C374.379 104.6 374.379 104.28 374.379 103.96C374.059 104.536 373.579 105.08 372.939 105.592C372.315 106.088 371.475 106.336 370.419 106.336ZM385.399 106.336C384.247 106.336 383.231 106.08 382.351 105.568C381.487 105.056 380.815 104.328 380.335 103.384C379.855 102.424 379.615 101.312 379.615 100.048C379.615 98.832 379.863 97.744 380.359 96.784C380.855 95.824 381.535 95.08 382.399 94.552C383.279 94.024 384.271 93.76 385.375 93.76C386.239 93.76 387.015 93.912 387.703 94.216C388.391 94.52 388.959 94.936 389.407 95.464C389.855 95.992 390.183 96.576 390.391 97.216L388.279 97.936C388.055 97.28 387.703 96.744 387.223 96.328C386.743 95.912 386.119 95.704 385.351 95.704C384.727 95.704 384.159 95.872 383.647 96.208C383.135 96.528 382.727 97.016 382.423 97.672C382.119 98.328 381.967 99.12 381.967 100.048C381.967 100.992 382.111 101.792 382.399 102.448C382.703 103.104 383.111 103.592 383.623 103.912C384.135 104.232 384.719 104.392 385.375 104.392C386.239 104.392 386.919 104.152 387.415 103.672C387.927 103.192 388.303 102.576 388.543 101.824L390.679 102.568C390.263 103.72 389.599 104.64 388.687 105.328C387.791 106 386.695 106.336 385.399 106.336ZM397.452 106C396.796 106 396.244 105.896 395.796 105.688C395.348 105.464 395.012 105.136 394.788 104.704C394.564 104.272 394.452 103.728 394.452 103.072V95.968H391.74V94.096H394.452V90.376H396.708V94.096H399.924V95.968H396.708V102.88C396.708 103.28 396.804 103.576 396.996 103.768C397.188 103.96 397.484 104.056 397.884 104.056H400.38V106H397.452ZM407.037 106.336C406.189 106.336 405.397 106.208 404.661 105.952C403.925 105.696 403.301 105.312 402.789 104.8C402.293 104.288 401.965 103.664 401.805 102.928L403.941 102.232C404.053 102.664 404.229 103.048 404.469 103.384C404.725 103.72 405.061 103.992 405.477 104.2C405.909 104.392 406.437 104.488 407.061 104.488C407.877 104.488 408.501 104.344 408.933 104.056C409.381 103.768 409.605 103.36 409.605 102.832C409.605 102.384 409.445 102.016 409.125 101.728C408.805 101.44 408.253 101.224 407.469 101.08L406.029 100.816C405.261 100.656 404.605 100.456 404.061 100.216C403.533 99.96 403.101 99.6 402.765 99.136C402.445 98.672 402.285 98.08 402.285 97.36C402.285 96.672 402.485 96.056 402.885 95.512C403.285 94.952 403.829 94.52 404.517 94.216C405.205 93.912 405.957 93.76 406.773 93.76C408.133 93.76 409.213 94.048 410.013 94.624C410.813 95.2 411.349 95.92 411.621 96.784L409.629 97.552C409.517 97.216 409.349 96.904 409.125 96.616C408.901 96.328 408.589 96.08 408.189 95.872C407.805 95.664 407.325 95.56 406.749 95.56C405.997 95.56 405.421 95.712 405.021 96.016C404.637 96.32 404.445 96.696 404.445 97.144C404.445 97.56 404.581 97.888 404.853 98.128C405.141 98.352 405.677 98.536 406.461 98.68L407.877 98.944C408.917 99.168 409.845 99.552 410.661 100.096C411.477 100.64 411.885 101.488 411.885 102.64C411.885 103.392 411.693 104.048 411.309 104.608C410.925 105.152 410.365 105.576 409.629 105.88C408.909 106.184 408.045 106.336 407.037 106.336ZM424.028 106.336C422.86 106.336 421.924 106.032 421.22 105.424C420.532 104.816 420.188 103.984 420.188 102.928C420.188 101.888 420.524 101.04 421.196 100.384C421.884 99.712 422.78 99.216 423.884 98.896C424.988 98.56 426.252 98.336 427.676 98.224V97.864C427.676 97.4 427.588 97.008 427.412 96.688C427.236 96.352 426.964 96.096 426.596 95.92C426.228 95.744 425.756 95.656 425.18 95.656C424.252 95.656 423.556 95.864 423.092 96.28C422.644 96.68 422.316 97.184 422.108 97.792L419.948 97.096C420.076 96.52 420.356 95.984 420.788 95.488C421.236 94.976 421.828 94.56 422.564 94.24C423.316 93.92 424.188 93.76 425.18 93.76C426.236 93.76 427.116 93.928 427.82 94.264C428.524 94.6 429.052 95.08 429.404 95.704C429.756 96.328 429.932 97.072 429.932 97.936V103.384C429.932 103.656 429.98 103.84 430.076 103.936C430.172 104.032 430.356 104.08 430.628 104.08H431.852V106H430.124C429.34 106 428.796 105.848 428.492 105.544C428.188 105.24 427.996 104.792 427.916 104.2C427.468 104.888 426.932 105.416 426.308 105.784C425.684 106.152 424.924 106.336 424.028 106.336ZM424.628 104.488C425.156 104.488 425.652 104.368 426.116 104.128C426.58 103.872 426.956 103.488 427.244 102.976C427.532 102.464 427.676 101.832 427.676 101.08V99.856C426.092 100.016 424.836 100.32 423.908 100.768C422.98 101.2 422.516 101.856 422.516 102.736C422.516 103.28 422.692 103.712 423.044 104.032C423.412 104.336 423.94 104.488 424.628 104.488ZM433.988 106V94.096H436.172V95.176C436.172 95.32 436.172 95.472 436.172 95.632C436.172 95.776 436.172 95.928 436.172 96.088C436.284 95.816 436.492 95.504 436.796 95.152C437.116 94.784 437.548 94.464 438.092 94.192C438.652 93.904 439.308 93.76 440.06 93.76C441.004 93.76 441.78 93.944 442.388 94.312C443.012 94.68 443.468 95.192 443.756 95.848C444.044 96.504 444.188 97.288 444.188 98.2V106H441.932V98.728C441.932 97.704 441.708 96.952 441.26 96.472C440.828 95.976 440.212 95.728 439.412 95.728C438.468 95.728 437.756 96.016 437.276 96.592C436.812 97.152 436.524 97.792 436.412 98.512C436.3 99.216 436.244 100 436.244 100.864V106H433.988ZM451.964 106.336C451.02 106.336 450.18 106.088 449.444 105.592C448.708 105.08 448.124 104.352 447.692 103.408C447.276 102.448 447.068 101.336 447.068 100.072C447.068 98.792 447.276 97.68 447.692 96.736C448.124 95.776 448.708 95.04 449.444 94.528C450.18 94.016 451.02 93.76 451.964 93.76C452.892 93.76 453.668 93.968 454.292 94.384C454.916 94.8 455.404 95.312 455.756 95.92C455.756 95.632 455.756 95.312 455.756 94.96C455.756 94.592 455.756 94.144 455.756 93.616V89.2H458.012V106H455.804C455.804 105.648 455.804 105.336 455.804 105.064C455.804 104.776 455.804 104.488 455.804 104.2C455.452 104.792 454.956 105.296 454.316 105.712C453.692 106.128 452.908 106.336 451.964 106.336ZM452.588 104.416C453.244 104.416 453.812 104.256 454.292 103.936C454.788 103.616 455.172 103.128 455.444 102.472C455.732 101.816 455.876 101.016 455.876 100.072C455.876 99.112 455.732 98.304 455.444 97.648C455.172 96.992 454.788 96.504 454.292 96.184C453.812 95.848 453.244 95.68 452.588 95.68C451.948 95.68 451.388 95.832 450.908 96.136C450.444 96.424 450.076 96.896 449.804 97.552C449.532 98.192 449.396 99.032 449.396 100.072C449.396 101.112 449.532 101.96 449.804 102.616C450.076 103.256 450.444 103.72 450.908 104.008C451.388 104.28 451.948 104.416 452.588 104.416ZM472.938 106.336C471.786 106.336 470.77 106.08 469.89 105.568C469.026 105.056 468.354 104.328 467.874 103.384C467.394 102.424 467.154 101.312 467.154 100.048C467.154 98.832 467.402 97.744 467.898 96.784C468.394 95.824 469.074 95.08 469.938 94.552C470.818 94.024 471.81 93.76 472.914 93.76C473.778 93.76 474.554 93.912 475.242 94.216C475.93 94.52 476.498 94.936 476.946 95.464C477.394 95.992 477.722 96.576 477.93 97.216L475.818 97.936C475.594 97.28 475.242 96.744 474.762 96.328C474.282 95.912 473.658 95.704 472.89 95.704C472.266 95.704 471.698 95.872 471.186 96.208C470.674 96.528 470.266 97.016 469.962 97.672C469.658 98.328 469.506 99.12 469.506 100.048C469.506 100.992 469.65 101.792 469.938 102.448C470.242 103.104 470.65 103.592 471.162 103.912C471.674 104.232 472.258 104.392 472.914 104.392C473.778 104.392 474.458 104.152 474.954 103.672C475.466 103.192 475.842 102.576 476.082 101.824L478.218 102.568C477.802 103.72 477.138 104.64 476.226 105.328C475.33 106 474.234 106.336 472.938 106.336ZM480.839 106V94.096H483.047C483.047 94.368 483.047 94.624 483.047 94.864C483.047 95.088 483.047 95.296 483.047 95.488C483.047 95.68 483.047 95.864 483.047 96.04C483.047 96.216 483.047 96.408 483.047 96.616C483.335 95.96 483.807 95.352 484.463 94.792C485.119 94.216 485.967 93.928 487.007 93.928C487.455 93.928 487.823 93.968 488.111 94.048V96.352C487.599 96.288 487.175 96.256 486.839 96.256C485.543 96.256 484.591 96.632 483.983 97.384C483.391 98.12 483.095 99.208 483.095 100.648V106H480.839ZM494.892 106.336C493.788 106.336 492.82 106.096 491.988 105.616C491.172 105.12 490.532 104.408 490.068 103.48C489.62 102.536 489.396 101.408 489.396 100.096C489.396 98.832 489.628 97.72 490.092 96.76C490.556 95.8 491.196 95.064 492.012 94.552C492.844 94.024 493.772 93.76 494.796 93.76C495.964 93.76 496.964 94.064 497.796 94.672C498.644 95.264 499.26 96.088 499.644 97.144C500.044 98.184 500.172 99.344 500.028 100.624H491.652C491.684 101.536 491.852 102.28 492.156 102.856C492.476 103.416 492.876 103.824 493.356 104.08C493.836 104.32 494.372 104.44 494.964 104.44C495.812 104.44 496.476 104.208 496.956 103.744C497.452 103.28 497.82 102.752 498.06 102.16L500.124 102.904C499.836 103.656 499.436 104.288 498.924 104.8C498.428 105.312 497.836 105.696 497.148 105.952C496.476 106.208 495.724 106.336 494.892 106.336ZM497.748 98.824C497.748 98.136 497.612 97.552 497.34 97.072C497.068 96.576 496.708 96.2 496.26 95.944C495.828 95.688 495.34 95.56 494.796 95.56C493.996 95.56 493.3 95.856 492.708 96.448C492.132 97.024 491.796 97.816 491.7 98.824H497.748ZM506.27 106.336C505.102 106.336 504.166 106.032 503.462 105.424C502.774 104.816 502.43 103.984 502.43 102.928C502.43 101.888 502.766 101.04 503.438 100.384C504.126 99.712 505.022 99.216 506.126 98.896C507.23 98.56 508.494 98.336 509.918 98.224V97.864C509.918 97.4 509.83 97.008 509.654 96.688C509.478 96.352 509.206 96.096 508.838 95.92C508.47 95.744 507.998 95.656 507.422 95.656C506.494 95.656 505.798 95.864 505.334 96.28C504.886 96.68 504.558 97.184 504.35 97.792L502.19 97.096C502.318 96.52 502.598 95.984 503.03 95.488C503.478 94.976 504.07 94.56 504.806 94.24C505.558 93.92 506.43 93.76 507.422 93.76C508.478 93.76 509.358 93.928 510.062 94.264C510.766 94.6 511.294 95.08 511.646 95.704C511.998 96.328 512.174 97.072 512.174 97.936V103.384C512.174 103.656 512.222 103.84 512.318 103.936C512.414 104.032 512.598 104.08 512.87 104.08H514.094V106H512.366C511.582 106 511.038 105.848 510.734 105.544C510.43 105.24 510.238 104.792 510.158 104.2C509.71 104.888 509.174 105.416 508.55 105.784C507.926 106.152 507.166 106.336 506.27 106.336ZM506.87 104.488C507.398 104.488 507.894 104.368 508.358 104.128C508.822 103.872 509.198 103.488 509.486 102.976C509.774 102.464 509.918 101.832 509.918 101.08V99.856C508.334 100.016 507.078 100.32 506.15 100.768C505.222 101.2 504.758 101.856 504.758 102.736C504.758 103.28 504.934 103.712 505.286 104.032C505.654 104.336 506.182 104.488 506.87 104.488ZM520.218 106C519.562 106 519.01 105.896 518.562 105.688C518.114 105.464 517.778 105.136 517.554 104.704C517.33 104.272 517.218 103.728 517.218 103.072V95.968H514.506V94.096H517.218V90.376H519.474V94.096H522.69V95.968H519.474V102.88C519.474 103.28 519.57 103.576 519.762 103.768C519.954 103.96 520.25 104.056 520.65 104.056H523.146V106H520.218ZM530.309 106.336C529.253 106.336 528.293 106.064 527.429 105.52C526.565 104.976 525.885 104.224 525.389 103.264C524.893 102.304 524.645 101.24 524.645 100.072C524.645 98.872 524.885 97.792 525.365 96.832C525.861 95.872 526.541 95.12 527.405 94.576C528.269 94.032 529.237 93.76 530.309 93.76C531.381 93.76 532.349 94.032 533.213 94.576C534.077 95.12 534.749 95.872 535.229 96.832C535.709 97.792 535.949 98.872 535.949 100.072C535.949 101.256 535.701 102.328 535.205 103.288C534.709 104.232 534.029 104.976 533.165 105.52C532.317 106.064 531.365 106.336 530.309 106.336ZM530.309 104.392C530.965 104.392 531.541 104.232 532.037 103.912C532.533 103.592 532.917 103.112 533.189 102.472C533.461 101.832 533.597 101.04 533.597 100.096C533.597 99.136 533.461 98.328 533.189 97.672C532.917 97.016 532.533 96.528 532.037 96.208C531.541 95.872 530.965 95.704 530.309 95.704C529.637 95.704 529.053 95.872 528.557 96.208C528.061 96.528 527.677 97.016 527.405 97.672C527.133 98.328 526.997 99.136 526.997 100.096C526.997 101.04 527.133 101.832 527.405 102.472C527.677 103.112 528.061 103.592 528.557 103.912C529.053 104.232 529.637 104.392 530.309 104.392ZM538.941 106V94.096H541.149C541.149 94.368 541.149 94.624 541.149 94.864C541.149 95.088 541.149 95.296 541.149 95.488C541.149 95.68 541.149 95.864 541.149 96.04C541.149 96.216 541.149 96.408 541.149 96.616C541.437 95.96 541.909 95.352 542.565 94.792C543.221 94.216 544.069 93.928 545.109 93.928C545.557 93.928 545.925 93.968 546.213 94.048V96.352C545.701 96.288 545.277 96.256 544.941 96.256C543.645 96.256 542.693 96.632 542.085 97.384C541.493 98.12 541.197 99.208 541.197 100.648V106H538.941ZM552.584 106.336C551.736 106.336 550.944 106.208 550.208 105.952C549.472 105.696 548.848 105.312 548.336 104.8C547.84 104.288 547.512 103.664 547.352 102.928L549.488 102.232C549.6 102.664 549.776 103.048 550.016 103.384C550.272 103.72 550.608 103.992 551.024 104.2C551.456 104.392 551.984 104.488 552.608 104.488C553.424 104.488 554.048 104.344 554.48 104.056C554.928 103.768 555.152 103.36 555.152 102.832C555.152 102.384 554.992 102.016 554.672 101.728C554.352 101.44 553.8 101.224 553.016 101.08L551.576 100.816C550.808 100.656 550.152 100.456 549.608 100.216C549.08 99.96 548.648 99.6 548.312 99.136C547.992 98.672 547.832 98.08 547.832 97.36C547.832 96.672 548.032 96.056 548.432 95.512C548.832 94.952 549.376 94.52 550.064 94.216C550.752 93.912 551.504 93.76 552.32 93.76C553.68 93.76 554.76 94.048 555.56 94.624C556.36 95.2 556.896 95.92 557.168 96.784L555.176 97.552C555.064 97.216 554.896 96.904 554.672 96.616C554.448 96.328 554.136 96.08 553.736 95.872C553.352 95.664 552.872 95.56 552.296 95.56C551.544 95.56 550.968 95.712 550.568 96.016C550.184 96.32 549.992 96.696 549.992 97.144C549.992 97.56 550.128 97.888 550.4 98.128C550.688 98.352 551.224 98.536 552.008 98.68L553.424 98.944C554.464 99.168 555.392 99.552 556.208 100.096C557.024 100.64 557.432 101.488 557.432 102.64C557.432 103.392 557.24 104.048 556.856 104.608C556.472 105.152 555.912 105.576 555.176 105.88C554.456 106.184 553.592 106.336 552.584 106.336ZM571.231 106.336C570.175 106.336 569.215 106.064 568.351 105.52C567.487 104.976 566.807 104.224 566.311 103.264C565.815 102.304 565.567 101.24 565.567 100.072C565.567 98.872 565.807 97.792 566.287 96.832C566.783 95.872 567.463 95.12 568.327 94.576C569.191 94.032 570.159 93.76 571.231 93.76C572.303 93.76 573.271 94.032 574.135 94.576C574.999 95.12 575.671 95.872 576.151 96.832C576.631 97.792 576.871 98.872 576.871 100.072C576.871 101.256 576.623 102.328 576.127 103.288C575.631 104.232 574.951 104.976 574.087 105.52C573.239 106.064 572.287 106.336 571.231 106.336ZM571.231 104.392C571.887 104.392 572.463 104.232 572.959 103.912C573.455 103.592 573.839 103.112 574.111 102.472C574.383 101.832 574.519 101.04 574.519 100.096C574.519 99.136 574.383 98.328 574.111 97.672C573.839 97.016 573.455 96.528 572.959 96.208C572.463 95.872 571.887 95.704 571.231 95.704C570.559 95.704 569.975 95.872 569.479 96.208C568.983 96.528 568.599 97.016 568.327 97.672C568.055 98.328 567.919 99.136 567.919 100.096C567.919 101.04 568.055 101.832 568.327 102.472C568.599 103.112 568.983 103.592 569.479 103.912C569.975 104.232 570.559 104.392 571.231 104.392ZM579.863 106V94.096H582.047V95.176C582.047 95.32 582.047 95.472 582.047 95.632C582.047 95.776 582.047 95.928 582.047 96.088C582.159 95.816 582.367 95.504 582.671 95.152C582.991 94.784 583.423 94.464 583.967 94.192C584.527 93.904 585.183 93.76 585.935 93.76C586.879 93.76 587.655 93.944 588.263 94.312C588.887 94.68 589.343 95.192 589.631 95.848C589.919 96.504 590.063 97.288 590.063 98.2V106H587.807V98.728C587.807 97.704 587.583 96.952 587.135 96.472C586.703 95.976 586.087 95.728 585.287 95.728C584.343 95.728 583.631 96.016 583.151 96.592C582.687 97.152 582.399 97.792 582.287 98.512C582.175 99.216 582.119 100 582.119 100.864V106H579.863ZM607.148 106.336C605.548 106.336 604.148 105.984 602.948 105.28C601.748 104.56 600.82 103.544 600.164 102.232C599.524 100.92 599.204 99.376 599.204 97.6C599.204 95.92 599.58 94.416 600.332 93.088C601.084 91.76 602.1 90.728 603.38 89.992C604.676 89.24 606.092 88.864 607.628 88.864C608.988 88.864 610.18 89.104 611.204 89.584C612.244 90.048 613.092 90.656 613.748 91.408C614.404 92.16 614.884 92.992 615.188 93.904L612.74 94.888C612.452 94.12 612.084 93.456 611.636 92.896C611.188 92.32 610.628 91.88 609.956 91.576C609.284 91.256 608.492 91.096 607.58 91.096C606.572 91.096 605.62 91.344 604.724 91.84C603.844 92.336 603.132 93.08 602.588 94.072C602.044 95.048 601.772 96.216 601.772 97.576C601.772 98.936 602.012 100.112 602.492 101.104C602.972 102.096 603.644 102.856 604.508 103.384C605.372 103.896 606.364 104.152 607.484 104.152C608.508 104.152 609.404 103.952 610.172 103.552C610.94 103.136 611.532 102.608 611.948 101.968C612.38 101.312 612.62 100.632 612.668 99.928H606.86V97.72H615.14V106H612.812C612.812 105.664 612.812 105.368 612.812 105.112C612.812 104.856 612.812 104.624 612.812 104.416C612.812 104.16 612.812 103.928 612.812 103.72C612.812 103.512 612.812 103.296 612.812 103.072C612.396 103.92 611.732 104.68 610.82 105.352C609.924 106.008 608.7 106.336 607.148 106.336ZM622.419 106.336C621.539 106.336 620.803 106.152 620.211 105.784C619.635 105.416 619.203 104.904 618.915 104.248C618.643 103.576 618.507 102.792 618.507 101.896V94.096H620.763V101.368C620.763 102.392 620.971 103.152 621.387 103.648C621.819 104.128 622.427 104.368 623.211 104.368C624.507 104.368 625.347 103.872 625.731 102.88C626.131 101.888 626.331 100.688 626.331 99.28V94.096H628.587V106H626.379C626.379 105.584 626.379 105.224 626.379 104.92C626.379 104.6 626.379 104.28 626.379 103.96C626.059 104.536 625.579 105.08 624.939 105.592C624.315 106.088 623.475 106.336 622.419 106.336ZM632.527 106V94.096H634.711V95.08C634.711 95.208 634.711 95.344 634.711 95.488C634.711 95.616 634.711 95.752 634.711 95.896C634.919 95.544 635.175 95.208 635.479 94.888C635.783 94.568 636.175 94.304 636.655 94.096C637.135 93.872 637.687 93.76 638.311 93.76C639.175 93.76 639.927 93.984 640.567 94.432C641.207 94.864 641.687 95.464 642.007 96.232C642.327 95.544 642.799 94.96 643.423 94.48C644.063 94 644.919 93.76 645.991 93.76C646.871 93.76 647.615 93.928 648.223 94.264C648.847 94.584 649.319 95.072 649.639 95.728C649.959 96.368 650.119 97.16 650.119 98.104V106H647.839V98.728C647.839 97.688 647.623 96.936 647.191 96.472C646.759 95.992 646.143 95.752 645.343 95.752C644.463 95.752 643.807 96.008 643.375 96.52C642.959 97.016 642.695 97.584 642.583 98.224C642.471 98.864 642.415 99.584 642.415 100.384V106H640.207V98.728C640.207 97.688 639.983 96.936 639.535 96.472C639.103 95.992 638.487 95.752 637.687 95.752C636.839 95.752 636.199 96.008 635.767 96.52C635.335 97.016 635.063 97.592 634.951 98.248C634.839 98.888 634.783 99.6 634.783 100.384V106H632.527ZM653.855 106V94.096H656.063C656.063 94.368 656.063 94.624 656.063 94.864C656.063 95.088 656.063 95.296 656.063 95.488C656.063 95.68 656.063 95.864 656.063 96.04C656.063 96.216 656.063 96.408 656.063 96.616C656.351 95.96 656.823 95.352 657.479 94.792C658.135 94.216 658.983 93.928 660.023 93.928C660.471 93.928 660.839 93.968 661.127 94.048V96.352C660.615 96.288 660.191 96.256 659.855 96.256C658.559 96.256 657.607 96.632 656.999 97.384C656.407 98.12 656.111 99.208 656.111 100.648V106H653.855ZM668.028 106.336C666.972 106.336 666.012 106.064 665.148 105.52C664.284 104.976 663.604 104.224 663.108 103.264C662.612 102.304 662.364 101.24 662.364 100.072C662.364 98.872 662.604 97.792 663.084 96.832C663.58 95.872 664.26 95.12 665.124 94.576C665.988 94.032 666.956 93.76 668.028 93.76C669.1 93.76 670.068 94.032 670.932 94.576C671.796 95.12 672.468 95.872 672.948 96.832C673.428 97.792 673.668 98.872 673.668 100.072C673.668 101.256 673.42 102.328 672.924 103.288C672.428 104.232 671.748 104.976 670.884 105.52C670.036 106.064 669.084 106.336 668.028 106.336ZM668.028 104.392C668.684 104.392 669.26 104.232 669.756 103.912C670.252 103.592 670.636 103.112 670.908 102.472C671.18 101.832 671.316 101.04 671.316 100.096C671.316 99.136 671.18 98.328 670.908 97.672C670.636 97.016 670.252 96.528 669.756 96.208C669.26 95.872 668.684 95.704 668.028 95.704C667.356 95.704 666.772 95.872 666.276 96.208C665.78 96.528 665.396 97.016 665.124 97.672C664.852 98.328 664.716 99.136 664.716 100.096C664.716 101.04 664.852 101.832 665.124 102.472C665.396 103.112 665.78 103.592 666.276 103.912C666.772 104.232 667.356 104.392 668.028 104.392ZM679.731 106.336C678.563 106.336 677.627 106.032 676.923 105.424C676.235 104.816 675.891 103.984 675.891 102.928C675.891 101.888 676.227 101.04 676.899 100.384C677.587 99.712 678.483 99.216 679.587 98.896C680.691 98.56 681.955 98.336 683.379 98.224V97.864C683.379 97.4 683.291 97.008 683.115 96.688C682.939 96.352 682.667 96.096 682.299 95.92C681.931 95.744 681.459 95.656 680.883 95.656C679.955 95.656 679.259 95.864 678.795 96.28C678.347 96.68 678.019 97.184 677.811 97.792L675.651 97.096C675.779 96.52 676.059 95.984 676.491 95.488C676.939 94.976 677.531 94.56 678.267 94.24C679.019 93.92 679.891 93.76 680.883 93.76C681.939 93.76 682.819 93.928 683.523 94.264C684.227 94.6 684.755 95.08 685.107 95.704C685.459 96.328 685.635 97.072 685.635 97.936V103.384C685.635 103.656 685.683 103.84 685.779 103.936C685.875 104.032 686.059 104.08 686.331 104.08H687.555V106H685.827C685.043 106 684.499 105.848 684.195 105.544C683.891 105.24 683.699 104.792 683.619 104.2C683.171 104.888 682.635 105.416 682.011 105.784C681.387 106.152 680.627 106.336 679.731 106.336ZM680.331 104.488C680.859 104.488 681.355 104.368 681.819 104.128C682.283 103.872 682.659 103.488 682.947 102.976C683.235 102.464 683.379 101.832 683.379 101.08V99.856C681.795 100.016 680.539 100.32 679.611 100.768C678.683 101.2 678.219 101.856 678.219 102.736C678.219 103.28 678.395 103.712 678.747 104.032C679.115 104.336 679.643 104.488 680.331 104.488ZM693.699 106.336C692.755 106.336 691.915 106.088 691.179 105.592C690.443 105.08 689.859 104.352 689.427 103.408C689.011 102.448 688.803 101.336 688.803 100.072C688.803 98.792 689.011 97.68 689.427 96.736C689.859 95.776 690.443 95.04 691.179 94.528C691.915 94.016 692.755 93.76 693.699 93.76C694.627 93.76 695.403 93.968 696.027 94.384C696.651 94.8 697.139 95.312 697.491 95.92C697.491 95.632 697.491 95.312 697.491 94.96C697.491 94.592 697.491 94.144 697.491 93.616V89.2H699.747V106H697.539C697.539 105.648 697.539 105.336 697.539 105.064C697.539 104.776 697.539 104.488 697.539 104.2C697.187 104.792 696.691 105.296 696.051 105.712C695.427 106.128 694.643 106.336 693.699 106.336ZM694.323 104.416C694.979 104.416 695.547 104.256 696.027 103.936C696.523 103.616 696.907 103.128 697.179 102.472C697.467 101.816 697.611 101.016 697.611 100.072C697.611 99.112 697.467 98.304 697.179 97.648C696.907 96.992 696.523 96.504 696.027 96.184C695.547 95.848 694.979 95.68 694.323 95.68C693.683 95.68 693.123 95.832 692.643 96.136C692.179 96.424 691.811 96.896 691.539 97.552C691.267 98.192 691.131 99.032 691.131 100.072C691.131 101.112 691.267 101.96 691.539 102.616C691.811 103.256 692.179 103.72 692.643 104.008C693.123 104.28 693.683 104.416 694.323 104.416ZM703.323 106V102.88H706.395V106H703.323Z" fill="black" fill-opacity="0.7"/>
</svg>
